<svg width="1517" height="32" viewBox="0 0 1517 32" fill="none" xmlns="http://www.w3.org/2000/svg">
<path d="M10.1065 5.375L4.60651 25H0.637756L7.85651 2.25H10.3253L10.1065 5.375ZM14.4971 25L8.98151 5.375L8.71588 2.25H11.2315L18.4815 25H14.4971ZM14.5909 16.5469V19.7344H3.99713V16.5469H14.5909ZM24.7159 21.9688L27.8409 8.09375H31.6065L26.794 25H24.4659L24.7159 21.9688ZM22.4971 8.09375L25.7315 22.0156L25.8878 25H23.5753L18.7315 8.09375H22.4971ZM32.1534 23.0938C32.1534 22.4896 32.3461 21.9844 32.7315 21.5781C33.1273 21.1719 33.669 20.9688 34.3565 20.9688C35.044 20.9688 35.5805 21.1719 35.9659 21.5781C36.3617 21.9844 36.5596 22.4896 36.5596 23.0938C36.5596 23.6771 36.3617 24.1719 35.9659 24.5781C35.5805 24.9844 35.044 25.1875 34.3565 25.1875C33.669 25.1875 33.1273 24.9844 32.7315 24.5781C32.3461 24.1719 32.1534 23.6771 32.1534 23.0938ZM60.7003 21.8281V25H51.2471V21.8281H60.7003ZM52.2471 2.25V25H48.4503V2.25H52.2471ZM67.3565 8.09375V25H63.7159V8.09375H67.3565ZM63.6846 5.875L66.7471 1.15625H71.0128L66.7471 5.875H63.6846ZM75.0753 11.3594V25H71.4346V8.09375H74.9034L75.0753 11.3594ZM79.1534 7.98438L79.1378 11.5781C78.9294 11.526 78.7055 11.4948 78.4659 11.4844C78.2367 11.4635 78.0075 11.4531 77.7784 11.4531C77.2784 11.4531 76.8461 11.5417 76.4815 11.7188C76.1169 11.8958 75.8096 12.151 75.5596 12.4844C75.3096 12.8177 75.1117 13.2188 74.9659 13.6875C74.8305 14.1562 74.7471 14.6875 74.7159 15.2812L73.9346 15.3125C73.9346 14.25 74.018 13.2656 74.1846 12.3594C74.3513 11.4427 74.6013 10.6458 74.9346 9.96875C75.2784 9.28125 75.7055 8.74479 76.2159 8.35938C76.7263 7.97396 77.32 7.78125 77.9971 7.78125C78.1846 7.78125 78.3982 7.80208 78.6378 7.84375C78.8773 7.88542 79.0492 7.93229 79.1534 7.98438ZM85.5128 8.09375V25H81.8721V8.09375H85.5128ZM81.6846 3.67188C81.6846 3.08854 81.8617 2.60417 82.2159 2.21875C82.57 1.82292 83.0648 1.625 83.7003 1.625C84.3357 1.625 84.8305 1.82292 85.1846 2.21875C85.5388 2.60417 85.7159 3.08854 85.7159 3.67188C85.7159 4.23438 85.5388 4.70833 85.1846 5.09375C84.8305 5.47917 84.3357 5.67188 83.7003 5.67188C83.0648 5.67188 82.57 5.47917 82.2159 5.09375C81.8617 4.70833 81.6846 4.23438 81.6846 3.67188ZM97.2471 21.5625V13.1406C97.2471 12.5573 97.1638 12.0885 96.9971 11.7344C96.8409 11.3802 96.6065 11.125 96.294 10.9688C95.9919 10.8021 95.6117 10.7188 95.1534 10.7188C94.6742 10.7188 94.268 10.8177 93.9346 11.0156C93.6117 11.2135 93.3669 11.4844 93.2003 11.8281C93.0336 12.1615 92.9503 12.5469 92.9503 12.9844H89.3096C89.3096 12.3073 89.445 11.6562 89.7159 11.0312C89.9971 10.4062 90.3982 9.84896 90.919 9.35938C91.4398 8.86979 92.07 8.48438 92.8096 8.20312C93.5492 7.92188 94.3721 7.78125 95.2784 7.78125C96.3617 7.78125 97.3253 7.96354 98.169 8.32812C99.0128 8.68229 99.6742 9.26042 100.153 10.0625C100.643 10.8542 100.888 11.8958 100.888 13.1875V21.0781C100.888 21.8594 100.935 22.5573 101.028 23.1719C101.133 23.776 101.273 24.3021 101.45 24.75V25H97.7471C97.5805 24.5938 97.4555 24.0729 97.3721 23.4375C97.2888 22.8021 97.2471 22.1771 97.2471 21.5625ZM97.7315 14.7031L97.7471 17.0625H95.9971C95.4763 17.0625 95.0075 17.1354 94.5909 17.2812C94.1742 17.4167 93.82 17.6146 93.5284 17.875C93.2471 18.125 93.0284 18.4323 92.8721 18.7969C92.7263 19.1615 92.6534 19.5625 92.6534 20C92.6534 20.5312 92.7263 20.9635 92.8721 21.2969C93.0284 21.6302 93.2523 21.8802 93.544 22.0469C93.8461 22.2031 94.2107 22.2812 94.6378 22.2812C95.2211 22.2812 95.7263 22.1562 96.1534 21.9062C96.5909 21.6458 96.9242 21.3333 97.1534 20.9688C97.393 20.6042 97.4867 20.2708 97.4346 19.9688L98.2628 21.4844C98.1794 21.8802 98.0232 22.2969 97.794 22.7344C97.5753 23.1719 97.2888 23.5885 96.9346 23.9844C96.5805 24.3802 96.1534 24.7031 95.6534 24.9531C95.1534 25.1927 94.5753 25.3125 93.919 25.3125C92.9711 25.3125 92.1273 25.1146 91.3878 24.7188C90.6482 24.3229 90.0648 23.7552 89.6378 23.0156C89.2211 22.2656 89.0128 21.3698 89.0128 20.3281C89.0128 19.4844 89.1534 18.7188 89.4346 18.0312C89.7159 17.3438 90.1325 16.7552 90.6846 16.2656C91.2367 15.7656 91.9294 15.3802 92.7628 15.1094C93.6065 14.8385 94.5909 14.7031 95.7159 14.7031H97.7315ZM119.747 2.25V25H115.966V2.25H119.747ZM125.544 2.25V5.4375H110.232V2.25H125.544ZM133.247 25.3125C132.153 25.3125 131.179 25.151 130.325 24.8281C129.471 24.4948 128.747 24.0052 128.153 23.3594C127.56 22.7031 127.107 21.901 126.794 20.9531C126.482 19.9948 126.325 18.8854 126.325 17.625V16C126.325 14.5729 126.487 13.3438 126.81 12.3125C127.143 11.2708 127.601 10.4167 128.185 9.75C128.768 9.08333 129.455 8.58854 130.247 8.26562C131.049 7.94271 131.919 7.78125 132.857 7.78125C133.919 7.78125 134.841 7.95312 135.622 8.29688C136.403 8.64062 137.044 9.15625 137.544 9.84375C138.054 10.5312 138.429 11.3802 138.669 12.3906C138.919 13.401 139.044 14.5625 139.044 15.875V17.7031H128.075V14.9531H135.45V14.5625C135.429 13.7917 135.336 13.1302 135.169 12.5781C135.002 12.0156 134.732 11.5885 134.357 11.2969C133.992 10.9948 133.487 10.8438 132.841 10.8438C132.372 10.8438 131.955 10.9323 131.591 11.1094C131.226 11.2865 130.924 11.5729 130.685 11.9688C130.455 12.3646 130.278 12.8958 130.153 13.5625C130.028 14.2188 129.966 15.0312 129.966 16V17.625C129.966 18.4688 130.039 19.1823 130.185 19.7656C130.341 20.349 130.57 20.8281 130.872 21.2031C131.174 21.5677 131.539 21.8385 131.966 22.0156C132.403 22.1823 132.909 22.2656 133.482 22.2656C134.325 22.2656 135.049 22.1094 135.653 21.7969C136.268 21.474 136.799 21.0573 137.247 20.5469L138.857 22.7812C138.554 23.1875 138.148 23.5885 137.638 23.9844C137.127 24.3698 136.508 24.6875 135.778 24.9375C135.06 25.1875 134.216 25.3125 133.247 25.3125ZM145.607 11.3594V25H141.966V8.09375H145.435L145.607 11.3594ZM149.685 7.98438L149.669 11.5781C149.461 11.526 149.237 11.4948 148.997 11.4844C148.768 11.4635 148.539 11.4531 148.31 11.4531C147.81 11.4531 147.377 11.5417 147.013 11.7188C146.648 11.8958 146.341 12.151 146.091 12.4844C145.841 12.8177 145.643 13.2188 145.497 13.6875C145.362 14.1562 145.278 14.6875 145.247 15.2812L144.466 15.3125C144.466 14.25 144.549 13.2656 144.716 12.3594C144.883 11.4427 145.133 10.6458 145.466 9.96875C145.81 9.28125 146.237 8.74479 146.747 8.35938C147.258 7.97396 147.851 7.78125 148.528 7.78125C148.716 7.78125 148.929 7.80208 149.169 7.84375C149.409 7.88542 149.58 7.93229 149.685 7.98438ZM158.341 25.3125C157.247 25.3125 156.273 25.151 155.419 24.8281C154.565 24.4948 153.841 24.0052 153.247 23.3594C152.653 22.7031 152.2 21.901 151.888 20.9531C151.575 19.9948 151.419 18.8854 151.419 17.625V16C151.419 14.5729 151.58 13.3438 151.903 12.3125C152.237 11.2708 152.695 10.4167 153.278 9.75C153.862 9.08333 154.549 8.58854 155.341 8.26562C156.143 7.94271 157.013 7.78125 157.95 7.78125C159.013 7.78125 159.935 7.95312 160.716 8.29688C161.497 8.64062 162.138 9.15625 162.638 9.84375C163.148 10.5312 163.523 11.3802 163.763 12.3906C164.013 13.401 164.138 14.5625 164.138 15.875V17.7031H153.169V14.9531H160.544V14.5625C160.523 13.7917 160.429 13.1302 160.263 12.5781C160.096 12.0156 159.825 11.5885 159.45 11.2969C159.086 10.9948 158.58 10.8438 157.935 10.8438C157.466 10.8438 157.049 10.9323 156.685 11.1094C156.32 11.2865 156.018 11.5729 155.778 11.9688C155.549 12.3646 155.372 12.8958 155.247 13.5625C155.122 14.2188 155.06 15.0312 155.06 16V17.625C155.06 18.4688 155.133 19.1823 155.278 19.7656C155.435 20.349 155.664 20.8281 155.966 21.2031C156.268 21.5677 156.633 21.8385 157.06 22.0156C157.497 22.1823 158.002 22.2656 158.575 22.2656C159.419 22.2656 160.143 22.1094 160.747 21.7969C161.362 21.474 161.893 21.0573 162.341 20.5469L163.95 22.7812C163.648 23.1875 163.242 23.5885 162.732 23.9844C162.221 24.3698 161.601 24.6875 160.872 24.9375C160.153 25.1875 159.31 25.3125 158.341 25.3125ZM178.232 21.9375V25H167.732V21.9375H178.232ZM178.028 10.4688L168.95 25H166.591V22.5312L175.622 8.09375H178.028V10.4688ZM176.653 8.09375V11.1719H166.7V8.09375H176.653ZM185.2 8.09375V25H181.56V8.09375H185.2ZM181.372 3.67188C181.372 3.08854 181.549 2.60417 181.903 2.21875C182.258 1.82292 182.752 1.625 183.388 1.625C184.023 1.625 184.518 1.82292 184.872 2.21875C185.226 2.60417 185.403 3.08854 185.403 3.67188C185.403 4.23438 185.226 4.70833 184.872 5.09375C184.518 5.47917 184.023 5.67188 183.388 5.67188C182.752 5.67188 182.258 5.47917 181.903 5.09375C181.549 4.70833 181.372 4.23438 181.372 3.67188ZM192.685 11.7031V25H189.044V8.09375H192.466L192.685 11.7031ZM192.028 15.9375H190.872C190.862 14.7188 190.992 13.6094 191.263 12.6094C191.534 11.6094 191.919 10.75 192.419 10.0312C192.929 9.3125 193.534 8.76042 194.232 8.375C194.94 7.97917 195.726 7.78125 196.591 7.78125C197.258 7.78125 197.867 7.89583 198.419 8.125C198.982 8.34375 199.461 8.70312 199.857 9.20312C200.252 9.70312 200.554 10.3542 200.763 11.1562C200.982 11.9583 201.091 12.9375 201.091 14.0938V25H197.45V14.0625C197.45 13.2708 197.362 12.6458 197.185 12.1875C197.018 11.7188 196.768 11.3854 196.435 11.1875C196.101 10.9792 195.679 10.875 195.169 10.875C194.7 10.875 194.268 11.0104 193.872 11.2812C193.487 11.5417 193.153 11.9062 192.872 12.375C192.601 12.8333 192.393 13.3698 192.247 13.9844C192.101 14.5885 192.028 15.2396 192.028 15.9375ZM208.325 1V25H204.7V1H208.325ZM207.685 15.9375H206.528C206.518 14.7604 206.643 13.6771 206.903 12.6875C207.164 11.6979 207.539 10.8333 208.028 10.0938C208.518 9.35417 209.107 8.78646 209.794 8.39062C210.492 7.98438 211.263 7.78125 212.107 7.78125C212.804 7.78125 213.435 7.90104 213.997 8.14062C214.57 8.36979 215.06 8.73438 215.466 9.23438C215.883 9.73438 216.2 10.3906 216.419 11.2031C216.638 12.0052 216.747 12.9844 216.747 14.1406V25H213.107V14.1094C213.107 13.3073 213.018 12.6719 212.841 12.2031C212.674 11.7344 212.424 11.3958 212.091 11.1875C211.758 10.9792 211.336 10.875 210.825 10.875C210.325 10.875 209.877 11.0104 209.482 11.2812C209.086 11.5417 208.752 11.9062 208.482 12.375C208.221 12.8333 208.023 13.3698 207.888 13.9844C207.752 14.5885 207.685 15.2396 207.685 15.9375ZM228.216 21.5625V13.1406C228.216 12.5573 228.133 12.0885 227.966 11.7344C227.81 11.3802 227.575 11.125 227.263 10.9688C226.961 10.8021 226.58 10.7188 226.122 10.7188C225.643 10.7188 225.237 10.8177 224.903 11.0156C224.58 11.2135 224.336 11.4844 224.169 11.8281C224.002 12.1615 223.919 12.5469 223.919 12.9844H220.278C220.278 12.3073 220.414 11.6562 220.685 11.0312C220.966 10.4062 221.367 9.84896 221.888 9.35938C222.409 8.86979 223.039 8.48438 223.778 8.20312C224.518 7.92188 225.341 7.78125 226.247 7.78125C227.33 7.78125 228.294 7.96354 229.138 8.32812C229.982 8.68229 230.643 9.26042 231.122 10.0625C231.612 10.8542 231.857 11.8958 231.857 13.1875V21.0781C231.857 21.8594 231.903 22.5573 231.997 23.1719C232.101 23.776 232.242 24.3021 232.419 24.75V25H228.716C228.549 24.5938 228.424 24.0729 228.341 23.4375C228.258 22.8021 228.216 22.1771 228.216 21.5625ZM228.7 14.7031L228.716 17.0625H226.966C226.445 17.0625 225.976 17.1354 225.56 17.2812C225.143 17.4167 224.789 17.6146 224.497 17.875C224.216 18.125 223.997 18.4323 223.841 18.7969C223.695 19.1615 223.622 19.5625 223.622 20C223.622 20.5312 223.695 20.9635 223.841 21.2969C223.997 21.6302 224.221 21.8802 224.513 22.0469C224.815 22.2031 225.179 22.2812 225.607 22.2812C226.19 22.2812 226.695 22.1562 227.122 21.9062C227.56 21.6458 227.893 21.3333 228.122 20.9688C228.362 20.6042 228.455 20.2708 228.403 19.9688L229.232 21.4844C229.148 21.8802 228.992 22.2969 228.763 22.7344C228.544 23.1719 228.258 23.5885 227.903 23.9844C227.549 24.3802 227.122 24.7031 226.622 24.9531C226.122 25.1927 225.544 25.3125 224.888 25.3125C223.94 25.3125 223.096 25.1146 222.357 24.7188C221.617 24.3229 221.034 23.7552 220.607 23.0156C220.19 22.2656 219.982 21.3698 219.982 20.3281C219.982 19.4844 220.122 18.7188 220.403 18.0312C220.685 17.3438 221.101 16.7552 221.653 16.2656C222.205 15.7656 222.898 15.3802 223.732 15.1094C224.575 14.8385 225.56 14.7031 226.685 14.7031H228.7ZM255.513 21.8281V25H246.06V21.8281H255.513ZM247.06 2.25V25H243.263V2.25H247.06ZM266.091 21.5625V13.1406C266.091 12.5573 266.008 12.0885 265.841 11.7344C265.685 11.3802 265.45 11.125 265.138 10.9688C264.836 10.8021 264.455 10.7188 263.997 10.7188C263.518 10.7188 263.112 10.8177 262.778 11.0156C262.455 11.2135 262.211 11.4844 262.044 11.8281C261.877 12.1615 261.794 12.5469 261.794 12.9844H258.153C258.153 12.3073 258.289 11.6562 258.56 11.0312C258.841 10.4062 259.242 9.84896 259.763 9.35938C260.284 8.86979 260.914 8.48438 261.653 8.20312C262.393 7.92188 263.216 7.78125 264.122 7.78125C265.205 7.78125 266.169 7.96354 267.013 8.32812C267.857 8.68229 268.518 9.26042 268.997 10.0625C269.487 10.8542 269.732 11.8958 269.732 13.1875V21.0781C269.732 21.8594 269.778 22.5573 269.872 23.1719C269.976 23.776 270.117 24.3021 270.294 24.75V25H266.591C266.424 24.5938 266.299 24.0729 266.216 23.4375C266.133 22.8021 266.091 22.1771 266.091 21.5625ZM266.575 14.7031L266.591 17.0625H264.841C264.32 17.0625 263.851 17.1354 263.435 17.2812C263.018 17.4167 262.664 17.6146 262.372 17.875C262.091 18.125 261.872 18.4323 261.716 18.7969C261.57 19.1615 261.497 19.5625 261.497 20C261.497 20.5312 261.57 20.9635 261.716 21.2969C261.872 21.6302 262.096 21.8802 262.388 22.0469C262.69 22.2031 263.054 22.2812 263.482 22.2812C264.065 22.2812 264.57 22.1562 264.997 21.9062C265.435 21.6458 265.768 21.3333 265.997 20.9688C266.237 20.6042 266.33 20.2708 266.278 19.9688L267.107 21.4844C267.023 21.8802 266.867 22.2969 266.638 22.7344C266.419 23.1719 266.133 23.5885 265.778 23.9844C265.424 24.3802 264.997 24.7031 264.497 24.9531C263.997 25.1927 263.419 25.3125 262.763 25.3125C261.815 25.3125 260.971 25.1146 260.232 24.7188C259.492 24.3229 258.909 23.7552 258.482 23.0156C258.065 22.2656 257.857 21.3698 257.857 20.3281C257.857 19.4844 257.997 18.7188 258.278 18.0312C258.56 17.3438 258.976 16.7552 259.528 16.2656C260.08 15.7656 260.773 15.3802 261.607 15.1094C262.45 14.8385 263.435 14.7031 264.56 14.7031H266.575ZM281.294 20.5469C281.294 20.1927 281.19 19.8802 280.982 19.6094C280.784 19.3281 280.461 19.0521 280.013 18.7812C279.565 18.5104 278.966 18.2188 278.216 17.9062C277.435 17.5833 276.742 17.2604 276.138 16.9375C275.534 16.6146 275.023 16.2604 274.607 15.875C274.19 15.4792 273.872 15.026 273.653 14.5156C273.435 14.0052 273.325 13.4115 273.325 12.7344C273.325 12.0365 273.455 11.3906 273.716 10.7969C273.976 10.2031 274.351 9.68229 274.841 9.23438C275.33 8.77604 275.919 8.42188 276.607 8.17188C277.294 7.91146 278.07 7.78125 278.935 7.78125C280.153 7.78125 281.195 8.00521 282.06 8.45312C282.935 8.89062 283.601 9.50521 284.06 10.2969C284.528 11.0781 284.763 11.9792 284.763 13H281.122C281.122 12.5729 281.044 12.1875 280.888 11.8438C280.732 11.4896 280.492 11.2083 280.169 11C279.846 10.7812 279.435 10.6719 278.935 10.6719C278.476 10.6719 278.091 10.7604 277.778 10.9375C277.476 11.1042 277.247 11.3333 277.091 11.625C276.945 11.9062 276.872 12.224 276.872 12.5781C276.872 12.8385 276.919 13.0677 277.013 13.2656C277.107 13.4635 277.263 13.6562 277.482 13.8438C277.7 14.0208 277.992 14.2031 278.357 14.3906C278.732 14.5781 279.205 14.7917 279.778 15.0312C280.914 15.4688 281.857 15.9219 282.607 16.3906C283.357 16.8594 283.919 17.4062 284.294 18.0312C284.669 18.6562 284.857 19.4323 284.857 20.3594C284.857 21.1094 284.716 21.7865 284.435 22.3906C284.164 22.9948 283.768 23.5156 283.247 23.9531C282.737 24.3906 282.117 24.7292 281.388 24.9688C280.669 25.1979 279.867 25.3125 278.982 25.3125C277.659 25.3125 276.539 25.0521 275.622 24.5312C274.716 24 274.028 23.3177 273.56 22.4844C273.091 21.651 272.857 20.7708 272.857 19.8438H276.372C276.403 20.5104 276.544 21.0312 276.794 21.4062C277.054 21.7812 277.383 22.0417 277.778 22.1875C278.174 22.3229 278.586 22.3906 279.013 22.3906C279.523 22.3906 279.945 22.3229 280.278 22.1875C280.612 22.0417 280.862 21.8281 281.028 21.5469C281.205 21.2656 281.294 20.9323 281.294 20.5469ZM295.857 20.5469C295.857 20.1927 295.752 19.8802 295.544 19.6094C295.346 19.3281 295.023 19.0521 294.575 18.7812C294.127 18.5104 293.528 18.2188 292.778 17.9062C291.997 17.5833 291.304 17.2604 290.7 16.9375C290.096 16.6146 289.586 16.2604 289.169 15.875C288.752 15.4792 288.435 15.026 288.216 14.5156C287.997 14.0052 287.888 13.4115 287.888 12.7344C287.888 12.0365 288.018 11.3906 288.278 10.7969C288.539 10.2031 288.914 9.68229 289.403 9.23438C289.893 8.77604 290.482 8.42188 291.169 8.17188C291.857 7.91146 292.633 7.78125 293.497 7.78125C294.716 7.78125 295.758 8.00521 296.622 8.45312C297.497 8.89062 298.164 9.50521 298.622 10.2969C299.091 11.0781 299.325 11.9792 299.325 13H295.685C295.685 12.5729 295.607 12.1875 295.45 11.8438C295.294 11.4896 295.054 11.2083 294.732 11C294.409 10.7812 293.997 10.6719 293.497 10.6719C293.039 10.6719 292.653 10.7604 292.341 10.9375C292.039 11.1042 291.81 11.3333 291.653 11.625C291.508 11.9062 291.435 12.224 291.435 12.5781C291.435 12.8385 291.482 13.0677 291.575 13.2656C291.669 13.4635 291.825 13.6562 292.044 13.8438C292.263 14.0208 292.554 14.2031 292.919 14.3906C293.294 14.5781 293.768 14.7917 294.341 15.0312C295.476 15.4688 296.419 15.9219 297.169 16.3906C297.919 16.8594 298.482 17.4062 298.857 18.0312C299.232 18.6562 299.419 19.4323 299.419 20.3594C299.419 21.1094 299.278 21.7865 298.997 22.3906C298.726 22.9948 298.33 23.5156 297.81 23.9531C297.299 24.3906 296.679 24.7292 295.95 24.9688C295.232 25.1979 294.429 25.3125 293.544 25.3125C292.221 25.3125 291.101 25.0521 290.185 24.5312C289.278 24 288.591 23.3177 288.122 22.4844C287.653 21.651 287.419 20.7708 287.419 19.8438H290.935C290.966 20.5104 291.107 21.0312 291.357 21.4062C291.617 21.7812 291.945 22.0417 292.341 22.1875C292.737 22.3229 293.148 22.3906 293.575 22.3906C294.086 22.3906 294.508 22.3229 294.841 22.1875C295.174 22.0417 295.424 21.8281 295.591 21.5469C295.768 21.2656 295.857 20.9323 295.857 20.5469ZM306.45 8.09375V25H302.81V8.09375H306.45ZM302.622 3.67188C302.622 3.08854 302.799 2.60417 303.153 2.21875C303.508 1.82292 304.002 1.625 304.638 1.625C305.273 1.625 305.768 1.82292 306.122 2.21875C306.476 2.60417 306.653 3.08854 306.653 3.67188C306.653 4.23438 306.476 4.70833 306.122 5.09375C305.768 5.47917 305.273 5.67188 304.638 5.67188C304.002 5.67188 303.508 5.47917 303.153 5.09375C302.799 4.70833 302.622 4.23438 302.622 3.67188ZM329.107 17.5781H332.888C332.815 19.224 332.482 20.625 331.888 21.7812C331.294 22.9271 330.44 23.8021 329.325 24.4062C328.221 25.0104 326.872 25.3125 325.278 25.3125C324.07 25.3125 322.987 25.0938 322.028 24.6562C321.08 24.2188 320.273 23.5885 319.607 22.7656C318.94 21.9323 318.429 20.9167 318.075 19.7188C317.732 18.5208 317.56 17.1615 317.56 15.6406V11.6094C317.56 10.0885 317.737 8.72917 318.091 7.53125C318.455 6.33333 318.976 5.31771 319.653 4.48438C320.33 3.65104 321.153 3.02083 322.122 2.59375C323.101 2.15625 324.205 1.9375 325.435 1.9375C327.008 1.9375 328.33 2.23958 329.403 2.84375C330.476 3.44792 331.304 4.33333 331.888 5.5C332.471 6.66667 332.81 8.08854 332.903 9.76562H329.122C329.07 8.63021 328.914 7.72396 328.653 7.04688C328.403 6.35938 328.018 5.86458 327.497 5.5625C326.987 5.26042 326.299 5.10938 325.435 5.10938C324.716 5.10938 324.096 5.24479 323.575 5.51562C323.065 5.78646 322.643 6.19271 322.31 6.73438C321.987 7.26562 321.742 7.9375 321.575 8.75C321.419 9.55208 321.341 10.4948 321.341 11.5781V15.6406C321.341 16.6823 321.409 17.6042 321.544 18.4062C321.679 19.2083 321.898 19.8906 322.2 20.4531C322.502 21.0052 322.903 21.4271 323.403 21.7188C323.903 22 324.528 22.1406 325.278 22.1406C326.174 22.1406 326.888 22 327.419 21.7188C327.961 21.4375 328.362 20.9635 328.622 20.2969C328.883 19.6302 329.044 18.724 329.107 17.5781ZM343.778 21.5625V13.1406C343.778 12.5573 343.695 12.0885 343.528 11.7344C343.372 11.3802 343.138 11.125 342.825 10.9688C342.523 10.8021 342.143 10.7188 341.685 10.7188C341.205 10.7188 340.799 10.8177 340.466 11.0156C340.143 11.2135 339.898 11.4844 339.732 11.8281C339.565 12.1615 339.482 12.5469 339.482 12.9844H335.841C335.841 12.3073 335.976 11.6562 336.247 11.0312C336.528 10.4062 336.929 9.84896 337.45 9.35938C337.971 8.86979 338.601 8.48438 339.341 8.20312C340.08 7.92188 340.903 7.78125 341.81 7.78125C342.893 7.78125 343.857 7.96354 344.7 8.32812C345.544 8.68229 346.205 9.26042 346.685 10.0625C347.174 10.8542 347.419 11.8958 347.419 13.1875V21.0781C347.419 21.8594 347.466 22.5573 347.56 23.1719C347.664 23.776 347.804 24.3021 347.982 24.75V25H344.278C344.112 24.5938 343.987 24.0729 343.903 23.4375C343.82 22.8021 343.778 22.1771 343.778 21.5625ZM344.263 14.7031L344.278 17.0625H342.528C342.008 17.0625 341.539 17.1354 341.122 17.2812C340.705 17.4167 340.351 17.6146 340.06 17.875C339.778 18.125 339.56 18.4323 339.403 18.7969C339.258 19.1615 339.185 19.5625 339.185 20C339.185 20.5312 339.258 20.9635 339.403 21.2969C339.56 21.6302 339.784 21.8802 340.075 22.0469C340.377 22.2031 340.742 22.2812 341.169 22.2812C341.752 22.2812 342.258 22.1562 342.685 21.9062C343.122 21.6458 343.455 21.3333 343.685 20.9688C343.924 20.6042 344.018 20.2708 343.966 19.9688L344.794 21.4844C344.711 21.8802 344.554 22.2969 344.325 22.7344C344.107 23.1719 343.82 23.5885 343.466 23.9844C343.112 24.3802 342.685 24.7031 342.185 24.9531C341.685 25.1927 341.107 25.3125 340.45 25.3125C339.502 25.3125 338.659 25.1146 337.919 24.7188C337.179 24.3229 336.596 23.7552 336.169 23.0156C335.752 22.2656 335.544 21.3698 335.544 20.3281C335.544 19.4844 335.685 18.7188 335.966 18.0312C336.247 17.3438 336.664 16.7552 337.216 16.2656C337.768 15.7656 338.461 15.3802 339.294 15.1094C340.138 14.8385 341.122 14.7031 342.247 14.7031H344.263ZM354.794 11.3438V31.5H351.169V8.09375H354.497L354.794 11.3438ZM363.888 15.875V17.2188C363.888 18.5417 363.768 19.7083 363.528 20.7188C363.289 21.7292 362.935 22.5781 362.466 23.2656C362.008 23.9427 361.44 24.4531 360.763 24.7969C360.086 25.1406 359.294 25.3125 358.388 25.3125C357.534 25.3125 356.789 25.125 356.153 24.75C355.528 24.375 355.002 23.849 354.575 23.1719C354.148 22.4948 353.804 21.6927 353.544 20.7656C353.294 19.8281 353.112 18.8073 352.997 17.7031V15.6406C353.112 14.474 353.289 13.4115 353.528 12.4531C353.778 11.4844 354.117 10.651 354.544 9.95312C354.982 9.25521 355.513 8.71875 356.138 8.34375C356.763 7.96875 357.508 7.78125 358.372 7.78125C359.278 7.78125 360.075 7.94271 360.763 8.26562C361.45 8.58854 362.023 9.08333 362.482 9.75C362.95 10.4167 363.299 11.2604 363.528 12.2812C363.768 13.2917 363.888 14.4896 363.888 15.875ZM360.247 17.2188V15.875C360.247 15.0104 360.19 14.2656 360.075 13.6406C359.971 13.0052 359.794 12.4844 359.544 12.0781C359.304 11.6719 358.997 11.3698 358.622 11.1719C358.258 10.974 357.804 10.875 357.263 10.875C356.784 10.875 356.362 10.974 355.997 11.1719C355.633 11.3698 355.325 11.6458 355.075 12C354.825 12.3438 354.627 12.7552 354.482 13.2344C354.336 13.7031 354.242 14.2135 354.2 14.7656V18.5938C354.294 19.2604 354.45 19.875 354.669 20.4375C354.888 20.9896 355.205 21.4323 355.622 21.7656C356.049 22.099 356.607 22.2656 357.294 22.2656C357.825 22.2656 358.278 22.1615 358.653 21.9531C359.028 21.7448 359.33 21.4323 359.56 21.0156C359.799 20.599 359.971 20.0781 360.075 19.4531C360.19 18.8177 360.247 18.0729 360.247 17.2188ZM375.31 21.0156V8.09375H378.95V25H375.513L375.31 21.0156ZM375.825 17.4844L376.982 17.4531C376.982 18.5885 376.877 19.6354 376.669 20.5938C376.461 21.5521 376.138 22.3854 375.7 23.0938C375.273 23.7917 374.716 24.3385 374.028 24.7344C373.351 25.1198 372.539 25.3125 371.591 25.3125C370.893 25.3125 370.252 25.1927 369.669 24.9531C369.096 24.7135 368.601 24.3438 368.185 23.8438C367.778 23.3438 367.461 22.6927 367.232 21.8906C367.002 21.0885 366.888 20.1302 366.888 19.0156V8.09375H370.528V19.0469C370.528 19.651 370.58 20.1562 370.685 20.5625C370.789 20.9583 370.935 21.2812 371.122 21.5312C371.31 21.7708 371.518 21.9427 371.747 22.0469C371.987 22.1406 372.242 22.1875 372.513 22.1875C373.336 22.1875 373.987 21.9844 374.466 21.5781C374.955 21.1615 375.304 20.599 375.513 19.8906C375.721 19.1823 375.825 18.3802 375.825 17.4844ZM390.435 21.5625V13.1406C390.435 12.5573 390.351 12.0885 390.185 11.7344C390.028 11.3802 389.794 11.125 389.482 10.9688C389.179 10.8021 388.799 10.7188 388.341 10.7188C387.862 10.7188 387.455 10.8177 387.122 11.0156C386.799 11.2135 386.554 11.4844 386.388 11.8281C386.221 12.1615 386.138 12.5469 386.138 12.9844H382.497C382.497 12.3073 382.633 11.6562 382.903 11.0312C383.185 10.4062 383.586 9.84896 384.107 9.35938C384.627 8.86979 385.258 8.48438 385.997 8.20312C386.737 7.92188 387.56 7.78125 388.466 7.78125C389.549 7.78125 390.513 7.96354 391.357 8.32812C392.2 8.68229 392.862 9.26042 393.341 10.0625C393.83 10.8542 394.075 11.8958 394.075 13.1875V21.0781C394.075 21.8594 394.122 22.5573 394.216 23.1719C394.32 23.776 394.461 24.3021 394.638 24.75V25H390.935C390.768 24.5938 390.643 24.0729 390.56 23.4375C390.476 22.8021 390.435 22.1771 390.435 21.5625ZM390.919 14.7031L390.935 17.0625H389.185C388.664 17.0625 388.195 17.1354 387.778 17.2812C387.362 17.4167 387.008 17.6146 386.716 17.875C386.435 18.125 386.216 18.4323 386.06 18.7969C385.914 19.1615 385.841 19.5625 385.841 20C385.841 20.5312 385.914 20.9635 386.06 21.2969C386.216 21.6302 386.44 21.8802 386.732 22.0469C387.034 22.2031 387.398 22.2812 387.825 22.2812C388.409 22.2812 388.914 22.1562 389.341 21.9062C389.778 21.6458 390.112 21.3333 390.341 20.9688C390.58 20.6042 390.674 20.2708 390.622 19.9688L391.45 21.4844C391.367 21.8802 391.211 22.2969 390.982 22.7344C390.763 23.1719 390.476 23.5885 390.122 23.9844C389.768 24.3802 389.341 24.7031 388.841 24.9531C388.341 25.1927 387.763 25.3125 387.107 25.3125C386.159 25.3125 385.315 25.1146 384.575 24.7188C383.836 24.3229 383.252 23.7552 382.825 23.0156C382.409 22.2656 382.2 21.3698 382.2 20.3281C382.2 19.4844 382.341 18.7188 382.622 18.0312C382.903 17.3438 383.32 16.7552 383.872 16.2656C384.424 15.7656 385.117 15.3802 385.95 15.1094C386.794 14.8385 387.778 14.7031 388.903 14.7031H390.919ZM401.403 11.7031V25H397.763V8.09375H401.185L401.403 11.7031ZM400.747 15.9375H399.591C399.58 14.7188 399.711 13.6094 399.982 12.6094C400.252 11.6094 400.638 10.75 401.138 10.0312C401.648 9.3125 402.252 8.76042 402.95 8.375C403.659 7.97917 404.445 7.78125 405.31 7.78125C405.976 7.78125 406.586 7.89583 407.138 8.125C407.7 8.34375 408.179 8.70312 408.575 9.20312C408.971 9.70312 409.273 10.3542 409.482 11.1562C409.7 11.9583 409.81 12.9375 409.81 14.0938V25H406.169V14.0625C406.169 13.2708 406.08 12.6458 405.903 12.1875C405.737 11.7188 405.487 11.3854 405.153 11.1875C404.82 10.9792 404.398 10.875 403.888 10.875C403.419 10.875 402.987 11.0104 402.591 11.2812C402.205 11.5417 401.872 11.9062 401.591 12.375C401.32 12.8333 401.112 13.3698 400.966 13.9844C400.82 14.5885 400.747 15.2396 400.747 15.9375ZM412.935 17.2344V15.875C412.935 14.5625 413.096 13.401 413.419 12.3906C413.742 11.3802 414.2 10.5365 414.794 9.85938C415.398 9.17188 416.107 8.65625 416.919 8.3125C417.732 7.95833 418.627 7.78125 419.607 7.78125C420.607 7.78125 421.513 7.95833 422.325 8.3125C423.148 8.65625 423.857 9.17188 424.45 9.85938C425.054 10.5365 425.518 11.3802 425.841 12.3906C426.164 13.401 426.325 14.5625 426.325 15.875V17.2344C426.325 18.5469 426.164 19.7083 425.841 20.7188C425.518 21.7292 425.054 22.5781 424.45 23.2656C423.857 23.9427 423.153 24.4531 422.341 24.7969C421.528 25.1406 420.627 25.3125 419.638 25.3125C418.659 25.3125 417.758 25.1406 416.935 24.7969C416.122 24.4531 415.414 23.9427 414.81 23.2656C414.205 22.5781 413.742 21.7292 413.419 20.7188C413.096 19.7083 412.935 18.5469 412.935 17.2344ZM416.575 15.875V17.2344C416.575 18.0781 416.648 18.8177 416.794 19.4531C416.94 20.0781 417.148 20.599 417.419 21.0156C417.69 21.4323 418.013 21.7448 418.388 21.9531C418.763 22.1615 419.179 22.2656 419.638 22.2656C420.148 22.2656 420.591 22.1615 420.966 21.9531C421.351 21.7448 421.669 21.4323 421.919 21.0156C422.179 20.599 422.372 20.0781 422.497 19.4531C422.622 18.8177 422.685 18.0781 422.685 17.2344V15.875C422.685 15.0417 422.612 14.3125 422.466 13.6875C422.32 13.0521 422.112 12.526 421.841 12.1094C421.57 11.6823 421.242 11.3646 420.857 11.1562C420.482 10.9479 420.065 10.8438 419.607 10.8438C419.159 10.8438 418.747 10.9479 418.372 11.1562C418.008 11.3646 417.69 11.6823 417.419 12.1094C417.148 12.526 416.94 13.0521 416.794 13.6875C416.648 14.3125 416.575 15.0417 416.575 15.875ZM443.466 13.75V16.8125H436.388V13.75H443.466ZM461.732 14.75H457.091L457.075 11.8438H461.185C461.82 11.8438 462.362 11.7188 462.81 11.4688C463.258 11.2188 463.596 10.8542 463.825 10.375C464.065 9.89583 464.185 9.31771 464.185 8.64062C464.185 7.89062 464.08 7.28125 463.872 6.8125C463.664 6.33333 463.336 5.98438 462.888 5.76562C462.45 5.54688 461.888 5.4375 461.2 5.4375H458.216V25H454.419V2.25H461.2C462.263 2.25 463.211 2.375 464.044 2.625C464.888 2.86458 465.601 3.23438 466.185 3.73438C466.768 4.23438 467.211 4.875 467.513 5.65625C467.825 6.42708 467.982 7.34375 467.982 8.40625C467.982 9.33333 467.784 10.1875 467.388 10.9688C466.992 11.7396 466.403 12.375 465.622 12.875C464.851 13.3646 463.893 13.6562 462.747 13.75L461.732 14.75ZM461.591 25H455.841L457.591 21.8281H461.591C462.268 21.8281 462.825 21.6823 463.263 21.3906C463.7 21.099 464.028 20.6927 464.247 20.1719C464.466 19.651 464.575 19.0417 464.575 18.3438C464.575 17.6146 464.482 16.9792 464.294 16.4375C464.107 15.8958 463.804 15.4792 463.388 15.1875C462.971 14.8958 462.419 14.75 461.732 14.75H457.903L457.935 11.8438H462.825L463.7 12.9531C464.794 12.974 465.685 13.2448 466.372 13.7656C467.06 14.276 467.565 14.9375 467.888 15.75C468.211 16.5625 468.372 17.4323 468.372 18.3594C468.372 19.8073 468.101 21.026 467.56 22.0156C467.018 22.9948 466.242 23.7396 465.232 24.25C464.232 24.75 463.018 25 461.591 25ZM479.716 21.5625V13.1406C479.716 12.5573 479.633 12.0885 479.466 11.7344C479.31 11.3802 479.075 11.125 478.763 10.9688C478.461 10.8021 478.08 10.7188 477.622 10.7188C477.143 10.7188 476.737 10.8177 476.403 11.0156C476.08 11.2135 475.836 11.4844 475.669 11.8281C475.502 12.1615 475.419 12.5469 475.419 12.9844H471.778C471.778 12.3073 471.914 11.6562 472.185 11.0312C472.466 10.4062 472.867 9.84896 473.388 9.35938C473.909 8.86979 474.539 8.48438 475.278 8.20312C476.018 7.92188 476.841 7.78125 477.747 7.78125C478.83 7.78125 479.794 7.96354 480.638 8.32812C481.482 8.68229 482.143 9.26042 482.622 10.0625C483.112 10.8542 483.357 11.8958 483.357 13.1875V21.0781C483.357 21.8594 483.403 22.5573 483.497 23.1719C483.601 23.776 483.742 24.3021 483.919 24.75V25H480.216C480.049 24.5938 479.924 24.0729 479.841 23.4375C479.758 22.8021 479.716 22.1771 479.716 21.5625ZM480.2 14.7031L480.216 17.0625H478.466C477.945 17.0625 477.476 17.1354 477.06 17.2812C476.643 17.4167 476.289 17.6146 475.997 17.875C475.716 18.125 475.497 18.4323 475.341 18.7969C475.195 19.1615 475.122 19.5625 475.122 20C475.122 20.5312 475.195 20.9635 475.341 21.2969C475.497 21.6302 475.721 21.8802 476.013 22.0469C476.315 22.2031 476.679 22.2812 477.107 22.2812C477.69 22.2812 478.195 22.1562 478.622 21.9062C479.06 21.6458 479.393 21.3333 479.622 20.9688C479.862 20.6042 479.955 20.2708 479.903 19.9688L480.732 21.4844C480.648 21.8802 480.492 22.2969 480.263 22.7344C480.044 23.1719 479.758 23.5885 479.403 23.9844C479.049 24.3802 478.622 24.7031 478.122 24.9531C477.622 25.1927 477.044 25.3125 476.388 25.3125C475.44 25.3125 474.596 25.1146 473.857 24.7188C473.117 24.3229 472.534 23.7552 472.107 23.0156C471.69 22.2656 471.482 21.3698 471.482 20.3281C471.482 19.4844 471.622 18.7188 471.903 18.0312C472.185 17.3438 472.601 16.7552 473.153 16.2656C473.705 15.7656 474.398 15.3802 475.232 15.1094C476.075 14.8385 477.06 14.7031 478.185 14.7031H480.2ZM490.95 8.09375V25H487.31V8.09375H490.95ZM487.122 3.67188C487.122 3.08854 487.299 2.60417 487.653 2.21875C488.008 1.82292 488.502 1.625 489.138 1.625C489.773 1.625 490.268 1.82292 490.622 2.21875C490.976 2.60417 491.153 3.08854 491.153 3.67188C491.153 4.23438 490.976 4.70833 490.622 5.09375C490.268 5.47917 489.773 5.67188 489.138 5.67188C488.502 5.67188 488.008 5.47917 487.653 5.09375C487.299 4.70833 487.122 4.23438 487.122 3.67188ZM498.482 11.3594V25H494.841V8.09375H498.31L498.482 11.3594ZM502.56 7.98438L502.544 11.5781C502.336 11.526 502.112 11.4948 501.872 11.4844C501.643 11.4635 501.414 11.4531 501.185 11.4531C500.685 11.4531 500.252 11.5417 499.888 11.7188C499.523 11.8958 499.216 12.151 498.966 12.4844C498.716 12.8177 498.518 13.2188 498.372 13.6875C498.237 14.1562 498.153 14.6875 498.122 15.2812L497.341 15.3125C497.341 14.25 497.424 13.2656 497.591 12.3594C497.758 11.4427 498.008 10.6458 498.341 9.96875C498.685 9.28125 499.112 8.74479 499.622 8.35938C500.133 7.97396 500.726 7.78125 501.403 7.78125C501.591 7.78125 501.804 7.80208 502.044 7.84375C502.284 7.88542 502.455 7.93229 502.56 7.98438ZM508.7 11.3594V25H505.06V8.09375H508.528L508.7 11.3594ZM512.778 7.98438L512.763 11.5781C512.554 11.526 512.33 11.4948 512.091 11.4844C511.862 11.4635 511.633 11.4531 511.403 11.4531C510.903 11.4531 510.471 11.5417 510.107 11.7188C509.742 11.8958 509.435 12.151 509.185 12.4844C508.935 12.8177 508.737 13.2188 508.591 13.6875C508.455 14.1562 508.372 14.6875 508.341 15.2812L507.56 15.3125C507.56 14.25 507.643 13.2656 507.81 12.3594C507.976 11.4427 508.226 10.6458 508.56 9.96875C508.903 9.28125 509.33 8.74479 509.841 8.35938C510.351 7.97396 510.945 7.78125 511.622 7.78125C511.81 7.78125 512.023 7.80208 512.263 7.84375C512.502 7.88542 512.674 7.93229 512.778 7.98438ZM514.278 17.2344V15.875C514.278 14.5625 514.44 13.401 514.763 12.3906C515.086 11.3802 515.544 10.5365 516.138 9.85938C516.742 9.17188 517.45 8.65625 518.263 8.3125C519.075 7.95833 519.971 7.78125 520.95 7.78125C521.95 7.78125 522.857 7.95833 523.669 8.3125C524.492 8.65625 525.2 9.17188 525.794 9.85938C526.398 10.5365 526.862 11.3802 527.185 12.3906C527.508 13.401 527.669 14.5625 527.669 15.875V17.2344C527.669 18.5469 527.508 19.7083 527.185 20.7188C526.862 21.7292 526.398 22.5781 525.794 23.2656C525.2 23.9427 524.497 24.4531 523.685 24.7969C522.872 25.1406 521.971 25.3125 520.982 25.3125C520.002 25.3125 519.101 25.1406 518.278 24.7969C517.466 24.4531 516.758 23.9427 516.153 23.2656C515.549 22.5781 515.086 21.7292 514.763 20.7188C514.44 19.7083 514.278 18.5469 514.278 17.2344ZM517.919 15.875V17.2344C517.919 18.0781 517.992 18.8177 518.138 19.4531C518.284 20.0781 518.492 20.599 518.763 21.0156C519.034 21.4323 519.357 21.7448 519.732 21.9531C520.107 22.1615 520.523 22.2656 520.982 22.2656C521.492 22.2656 521.935 22.1615 522.31 21.9531C522.695 21.7448 523.013 21.4323 523.263 21.0156C523.523 20.599 523.716 20.0781 523.841 19.4531C523.966 18.8177 524.028 18.0781 524.028 17.2344V15.875C524.028 15.0417 523.955 14.3125 523.81 13.6875C523.664 13.0521 523.455 12.526 523.185 12.1094C522.914 11.6823 522.586 11.3646 522.2 11.1562C521.825 10.9479 521.409 10.8438 520.95 10.8438C520.502 10.8438 520.091 10.9479 519.716 11.1562C519.351 11.3646 519.034 11.6823 518.763 12.1094C518.492 12.526 518.284 13.0521 518.138 13.6875C517.992 14.3125 517.919 15.0417 517.919 15.875ZM548.919 2.25H552.716V18.0469C552.716 19.7865 552.388 21.1875 551.732 22.25C551.086 23.3125 550.211 24.0885 549.107 24.5781C548.013 25.0677 546.794 25.3125 545.45 25.3125C544.054 25.3125 542.81 25.0677 541.716 24.5781C540.622 24.0885 539.763 23.3125 539.138 22.25C538.513 21.1875 538.2 19.7865 538.2 18.0469V2.25H541.982V18.0469C541.982 19.1302 542.117 19.9688 542.388 20.5625C542.669 21.1562 543.065 21.5677 543.575 21.7969C544.096 22.026 544.721 22.1406 545.45 22.1406C546.179 22.1406 546.799 22.026 547.31 21.7969C547.83 21.5677 548.226 21.1562 548.497 20.5625C548.778 19.9688 548.919 19.1302 548.919 18.0469V2.25ZM559.935 11.7031V25H556.294V8.09375H559.716L559.935 11.7031ZM559.278 15.9375H558.122C558.112 14.7188 558.242 13.6094 558.513 12.6094C558.784 11.6094 559.169 10.75 559.669 10.0312C560.179 9.3125 560.784 8.76042 561.482 8.375C562.19 7.97917 562.976 7.78125 563.841 7.78125C564.508 7.78125 565.117 7.89583 565.669 8.125C566.232 8.34375 566.711 8.70312 567.107 9.20312C567.502 9.70312 567.804 10.3542 568.013 11.1562C568.232 11.9583 568.341 12.9375 568.341 14.0938V25H564.7V14.0625C564.7 13.2708 564.612 12.6458 564.435 12.1875C564.268 11.7188 564.018 11.3854 563.685 11.1875C563.351 10.9792 562.929 10.875 562.419 10.875C561.95 10.875 561.518 11.0104 561.122 11.2812C560.737 11.5417 560.403 11.9062 560.122 12.375C559.851 12.8333 559.643 13.3698 559.497 13.9844C559.351 14.5885 559.278 15.2396 559.278 15.9375ZM575.857 8.09375V25H572.216V8.09375H575.857ZM572.028 3.67188C572.028 3.08854 572.205 2.60417 572.56 2.21875C572.914 1.82292 573.409 1.625 574.044 1.625C574.679 1.625 575.174 1.82292 575.528 2.21875C575.883 2.60417 576.06 3.08854 576.06 3.67188C576.06 4.23438 575.883 4.70833 575.528 5.09375C575.174 5.47917 574.679 5.67188 574.044 5.67188C573.409 5.67188 572.914 5.47917 572.56 5.09375C572.205 4.70833 572.028 4.23438 572.028 3.67188ZM584.466 21.9688L587.591 8.09375H591.357L586.544 25H584.216L584.466 21.9688ZM582.247 8.09375L585.482 22.0156L585.638 25H583.325L578.482 8.09375H582.247ZM600.06 25.3125C598.966 25.3125 597.992 25.151 597.138 24.8281C596.284 24.4948 595.56 24.0052 594.966 23.3594C594.372 22.7031 593.919 21.901 593.607 20.9531C593.294 19.9948 593.138 18.8854 593.138 17.625V16C593.138 14.5729 593.299 13.3438 593.622 12.3125C593.955 11.2708 594.414 10.4167 594.997 9.75C595.58 9.08333 596.268 8.58854 597.06 8.26562C597.862 7.94271 598.732 7.78125 599.669 7.78125C600.732 7.78125 601.653 7.95312 602.435 8.29688C603.216 8.64062 603.857 9.15625 604.357 9.84375C604.867 10.5312 605.242 11.3802 605.482 12.3906C605.732 13.401 605.857 14.5625 605.857 15.875V17.7031H594.888V14.9531H602.263V14.5625C602.242 13.7917 602.148 13.1302 601.982 12.5781C601.815 12.0156 601.544 11.5885 601.169 11.2969C600.804 10.9948 600.299 10.8438 599.653 10.8438C599.185 10.8438 598.768 10.9323 598.403 11.1094C598.039 11.2865 597.737 11.5729 597.497 11.9688C597.268 12.3646 597.091 12.8958 596.966 13.5625C596.841 14.2188 596.778 15.0312 596.778 16V17.625C596.778 18.4688 596.851 19.1823 596.997 19.7656C597.153 20.349 597.383 20.8281 597.685 21.2031C597.987 21.5677 598.351 21.8385 598.778 22.0156C599.216 22.1823 599.721 22.2656 600.294 22.2656C601.138 22.2656 601.862 22.1094 602.466 21.7969C603.08 21.474 603.612 21.0573 604.06 20.5469L605.669 22.7812C605.367 23.1875 604.961 23.5885 604.45 23.9844C603.94 24.3698 603.32 24.6875 602.591 24.9375C601.872 25.1875 601.028 25.3125 600.06 25.3125ZM612.419 11.3594V25H608.778V8.09375H612.247L612.419 11.3594ZM616.497 7.98438L616.482 11.5781C616.273 11.526 616.049 11.4948 615.81 11.4844C615.58 11.4635 615.351 11.4531 615.122 11.4531C614.622 11.4531 614.19 11.5417 613.825 11.7188C613.461 11.8958 613.153 12.151 612.903 12.4844C612.653 12.8177 612.455 13.2188 612.31 13.6875C612.174 14.1562 612.091 14.6875 612.06 15.2812L611.278 15.3125C611.278 14.25 611.362 13.2656 611.528 12.3594C611.695 11.4427 611.945 10.6458 612.278 9.96875C612.622 9.28125 613.049 8.74479 613.56 8.35938C614.07 7.97396 614.664 7.78125 615.341 7.78125C615.528 7.78125 615.742 7.80208 615.982 7.84375C616.221 7.88542 616.393 7.93229 616.497 7.98438ZM626.825 20.5469C626.825 20.1927 626.721 19.8802 626.513 19.6094C626.315 19.3281 625.992 19.0521 625.544 18.7812C625.096 18.5104 624.497 18.2188 623.747 17.9062C622.966 17.5833 622.273 17.2604 621.669 16.9375C621.065 16.6146 620.554 16.2604 620.138 15.875C619.721 15.4792 619.403 15.026 619.185 14.5156C618.966 14.0052 618.857 13.4115 618.857 12.7344C618.857 12.0365 618.987 11.3906 619.247 10.7969C619.508 10.2031 619.883 9.68229 620.372 9.23438C620.862 8.77604 621.45 8.42188 622.138 8.17188C622.825 7.91146 623.601 7.78125 624.466 7.78125C625.685 7.78125 626.726 8.00521 627.591 8.45312C628.466 8.89062 629.133 9.50521 629.591 10.2969C630.06 11.0781 630.294 11.9792 630.294 13H626.653C626.653 12.5729 626.575 12.1875 626.419 11.8438C626.263 11.4896 626.023 11.2083 625.7 11C625.377 10.7812 624.966 10.6719 624.466 10.6719C624.008 10.6719 623.622 10.7604 623.31 10.9375C623.008 11.1042 622.778 11.3333 622.622 11.625C622.476 11.9062 622.403 12.224 622.403 12.5781C622.403 12.8385 622.45 13.0677 622.544 13.2656C622.638 13.4635 622.794 13.6562 623.013 13.8438C623.232 14.0208 623.523 14.2031 623.888 14.3906C624.263 14.5781 624.737 14.7917 625.31 15.0312C626.445 15.4688 627.388 15.9219 628.138 16.3906C628.888 16.8594 629.45 17.4062 629.825 18.0312C630.2 18.6562 630.388 19.4323 630.388 20.3594C630.388 21.1094 630.247 21.7865 629.966 22.3906C629.695 22.9948 629.299 23.5156 628.778 23.9531C628.268 24.3906 627.648 24.7292 626.919 24.9688C626.2 25.1979 625.398 25.3125 624.513 25.3125C623.19 25.3125 622.07 25.0521 621.153 24.5312C620.247 24 619.56 23.3177 619.091 22.4844C618.622 21.651 618.388 20.7708 618.388 19.8438H621.903C621.935 20.5104 622.075 21.0312 622.325 21.4062C622.586 21.7812 622.914 22.0417 623.31 22.1875C623.705 22.3229 624.117 22.3906 624.544 22.3906C625.054 22.3906 625.476 22.3229 625.81 22.1875C626.143 22.0417 626.393 21.8281 626.56 21.5469C626.737 21.2656 626.825 20.9323 626.825 20.5469ZM637.419 8.09375V25H633.778V8.09375H637.419ZM633.591 3.67188C633.591 3.08854 633.768 2.60417 634.122 2.21875C634.476 1.82292 634.971 1.625 635.607 1.625C636.242 1.625 636.737 1.82292 637.091 2.21875C637.445 2.60417 637.622 3.08854 637.622 3.67188C637.622 4.23438 637.445 4.70833 637.091 5.09375C636.737 5.47917 636.242 5.67188 635.607 5.67188C634.971 5.67188 634.476 5.47917 634.122 5.09375C633.768 4.70833 633.591 4.23438 633.591 3.67188ZM648.138 8.09375V10.9062H639.841V8.09375H648.138ZM642.107 3.95312H645.732V20.2812C645.732 20.8021 645.789 21.1979 645.903 21.4688C646.018 21.7396 646.179 21.9219 646.388 22.0156C646.596 22.1094 646.841 22.1562 647.122 22.1562C647.33 22.1562 647.534 22.1406 647.732 22.1094C647.94 22.0677 648.091 22.0312 648.185 22V24.9375C647.914 25.0417 647.601 25.1302 647.247 25.2031C646.893 25.276 646.466 25.3125 645.966 25.3125C645.226 25.3125 644.565 25.1615 643.982 24.8594C643.398 24.5469 642.94 24.0417 642.607 23.3438C642.273 22.6354 642.107 21.6979 642.107 20.5312V3.95312ZM658.81 21.5625V13.1406C658.81 12.5573 658.726 12.0885 658.56 11.7344C658.403 11.3802 658.169 11.125 657.857 10.9688C657.554 10.8021 657.174 10.7188 656.716 10.7188C656.237 10.7188 655.83 10.8177 655.497 11.0156C655.174 11.2135 654.929 11.4844 654.763 11.8281C654.596 12.1615 654.513 12.5469 654.513 12.9844H650.872C650.872 12.3073 651.008 11.6562 651.278 11.0312C651.56 10.4062 651.961 9.84896 652.482 9.35938C653.002 8.86979 653.633 8.48438 654.372 8.20312C655.112 7.92188 655.935 7.78125 656.841 7.78125C657.924 7.78125 658.888 7.96354 659.732 8.32812C660.575 8.68229 661.237 9.26042 661.716 10.0625C662.205 10.8542 662.45 11.8958 662.45 13.1875V21.0781C662.45 21.8594 662.497 22.5573 662.591 23.1719C662.695 23.776 662.836 24.3021 663.013 24.75V25H659.31C659.143 24.5938 659.018 24.0729 658.935 23.4375C658.851 22.8021 658.81 22.1771 658.81 21.5625ZM659.294 14.7031L659.31 17.0625H657.56C657.039 17.0625 656.57 17.1354 656.153 17.2812C655.737 17.4167 655.383 17.6146 655.091 17.875C654.81 18.125 654.591 18.4323 654.435 18.7969C654.289 19.1615 654.216 19.5625 654.216 20C654.216 20.5312 654.289 20.9635 654.435 21.2969C654.591 21.6302 654.815 21.8802 655.107 22.0469C655.409 22.2031 655.773 22.2812 656.2 22.2812C656.784 22.2812 657.289 22.1562 657.716 21.9062C658.153 21.6458 658.487 21.3333 658.716 20.9688C658.955 20.6042 659.049 20.2708 658.997 19.9688L659.825 21.4844C659.742 21.8802 659.586 22.2969 659.357 22.7344C659.138 23.1719 658.851 23.5885 658.497 23.9844C658.143 24.3802 657.716 24.7031 657.216 24.9531C656.716 25.1927 656.138 25.3125 655.482 25.3125C654.534 25.3125 653.69 25.1146 652.95 24.7188C652.211 24.3229 651.627 23.7552 651.2 23.0156C650.784 22.2656 650.575 21.3698 650.575 20.3281C650.575 19.4844 650.716 18.7188 650.997 18.0312C651.278 17.3438 651.695 16.7552 652.247 16.2656C652.799 15.7656 653.492 15.3802 654.325 15.1094C655.169 14.8385 656.153 14.7031 657.278 14.7031H659.294ZM654.935 5.71875L657.997 1H662.263L657.997 5.71875H654.935ZM669.825 11.3594V25H666.185V8.09375H669.653L669.825 11.3594ZM673.903 7.98438L673.888 11.5781C673.679 11.526 673.455 11.4948 673.216 11.4844C672.987 11.4635 672.758 11.4531 672.528 11.4531C672.028 11.4531 671.596 11.5417 671.232 11.7188C670.867 11.8958 670.56 12.151 670.31 12.4844C670.06 12.8177 669.862 13.2188 669.716 13.6875C669.58 14.1562 669.497 14.6875 669.466 15.2812L668.685 15.3125C668.685 14.25 668.768 13.2656 668.935 12.3594C669.101 11.4427 669.351 10.6458 669.685 9.96875C670.028 9.28125 670.455 8.74479 670.966 8.35938C671.476 7.97396 672.07 7.78125 672.747 7.78125C672.935 7.78125 673.148 7.80208 673.388 7.84375C673.627 7.88542 673.799 7.93229 673.903 7.98438ZM680.263 8.09375V25H676.622V8.09375H680.263ZM676.435 3.67188C676.435 3.08854 676.612 2.60417 676.966 2.21875C677.32 1.82292 677.815 1.625 678.45 1.625C679.086 1.625 679.58 1.82292 679.935 2.21875C680.289 2.60417 680.466 3.08854 680.466 3.67188C680.466 4.23438 680.289 4.70833 679.935 5.09375C679.58 5.47917 679.086 5.67188 678.45 5.67188C677.815 5.67188 677.32 5.47917 676.966 5.09375C676.612 4.70833 676.435 4.23438 676.435 3.67188ZM683.622 17.2344V15.875C683.622 14.5625 683.784 13.401 684.107 12.3906C684.429 11.3802 684.888 10.5365 685.482 9.85938C686.086 9.17188 686.794 8.65625 687.607 8.3125C688.419 7.95833 689.315 7.78125 690.294 7.78125C691.294 7.78125 692.2 7.95833 693.013 8.3125C693.836 8.65625 694.544 9.17188 695.138 9.85938C695.742 10.5365 696.205 11.3802 696.528 12.3906C696.851 13.401 697.013 14.5625 697.013 15.875V17.2344C697.013 18.5469 696.851 19.7083 696.528 20.7188C696.205 21.7292 695.742 22.5781 695.138 23.2656C694.544 23.9427 693.841 24.4531 693.028 24.7969C692.216 25.1406 691.315 25.3125 690.325 25.3125C689.346 25.3125 688.445 25.1406 687.622 24.7969C686.81 24.4531 686.101 23.9427 685.497 23.2656C684.893 22.5781 684.429 21.7292 684.107 20.7188C683.784 19.7083 683.622 18.5469 683.622 17.2344ZM687.263 15.875V17.2344C687.263 18.0781 687.336 18.8177 687.482 19.4531C687.627 20.0781 687.836 20.599 688.107 21.0156C688.377 21.4323 688.7 21.7448 689.075 21.9531C689.45 22.1615 689.867 22.2656 690.325 22.2656C690.836 22.2656 691.278 22.1615 691.653 21.9531C692.039 21.7448 692.357 21.4323 692.607 21.0156C692.867 20.599 693.06 20.0781 693.185 19.4531C693.31 18.8177 693.372 18.0781 693.372 17.2344V15.875C693.372 15.0417 693.299 14.3125 693.153 13.6875C693.008 13.0521 692.799 12.526 692.528 12.1094C692.258 11.6823 691.929 11.3646 691.544 11.1562C691.169 10.9479 690.752 10.8438 690.294 10.8438C689.846 10.8438 689.435 10.9479 689.06 11.1562C688.695 11.3646 688.377 11.6823 688.107 12.1094C687.836 12.526 687.627 13.0521 687.482 13.6875C687.336 14.3125 687.263 15.0417 687.263 15.875ZM714.153 13.75V16.8125H707.075V13.75H714.153ZM729.06 2.25V25H725.263V2.25H729.06ZM736.747 11.7031V25H733.107V8.09375H736.528L736.747 11.7031ZM736.091 15.9375H734.935C734.924 14.7188 735.054 13.6094 735.325 12.6094C735.596 11.6094 735.982 10.75 736.482 10.0312C736.992 9.3125 737.596 8.76042 738.294 8.375C739.002 7.97917 739.789 7.78125 740.653 7.78125C741.32 7.78125 741.929 7.89583 742.482 8.125C743.044 8.34375 743.523 8.70312 743.919 9.20312C744.315 9.70312 744.617 10.3542 744.825 11.1562C745.044 11.9583 745.153 12.9375 745.153 14.0938V25H741.513V14.0625C741.513 13.2708 741.424 12.6458 741.247 12.1875C741.08 11.7188 740.83 11.3854 740.497 11.1875C740.164 10.9792 739.742 10.875 739.232 10.875C738.763 10.875 738.33 11.0104 737.935 11.2812C737.549 11.5417 737.216 11.9062 736.935 12.375C736.664 12.8333 736.455 13.3698 736.31 13.9844C736.164 14.5885 736.091 15.2396 736.091 15.9375ZM756.638 20.5469C756.638 20.1927 756.534 19.8802 756.325 19.6094C756.127 19.3281 755.804 19.0521 755.357 18.7812C754.909 18.5104 754.31 18.2188 753.56 17.9062C752.778 17.5833 752.086 17.2604 751.482 16.9375C750.877 16.6146 750.367 16.2604 749.95 15.875C749.534 15.4792 749.216 15.026 748.997 14.5156C748.778 14.0052 748.669 13.4115 748.669 12.7344C748.669 12.0365 748.799 11.3906 749.06 10.7969C749.32 10.2031 749.695 9.68229 750.185 9.23438C750.674 8.77604 751.263 8.42188 751.95 8.17188C752.638 7.91146 753.414 7.78125 754.278 7.78125C755.497 7.78125 756.539 8.00521 757.403 8.45312C758.278 8.89062 758.945 9.50521 759.403 10.2969C759.872 11.0781 760.107 11.9792 760.107 13H756.466C756.466 12.5729 756.388 12.1875 756.232 11.8438C756.075 11.4896 755.836 11.2083 755.513 11C755.19 10.7812 754.778 10.6719 754.278 10.6719C753.82 10.6719 753.435 10.7604 753.122 10.9375C752.82 11.1042 752.591 11.3333 752.435 11.625C752.289 11.9062 752.216 12.224 752.216 12.5781C752.216 12.8385 752.263 13.0677 752.357 13.2656C752.45 13.4635 752.607 13.6562 752.825 13.8438C753.044 14.0208 753.336 14.2031 753.7 14.3906C754.075 14.5781 754.549 14.7917 755.122 15.0312C756.258 15.4688 757.2 15.9219 757.95 16.3906C758.7 16.8594 759.263 17.4062 759.638 18.0312C760.013 18.6562 760.2 19.4323 760.2 20.3594C760.2 21.1094 760.06 21.7865 759.778 22.3906C759.508 22.9948 759.112 23.5156 758.591 23.9531C758.08 24.3906 757.461 24.7292 756.732 24.9688C756.013 25.1979 755.211 25.3125 754.325 25.3125C753.002 25.3125 751.883 25.0521 750.966 24.5312C750.06 24 749.372 23.3177 748.903 22.4844C748.435 21.651 748.2 20.7708 748.2 19.8438H751.716C751.747 20.5104 751.888 21.0312 752.138 21.4062C752.398 21.7812 752.726 22.0417 753.122 22.1875C753.518 22.3229 753.929 22.3906 754.357 22.3906C754.867 22.3906 755.289 22.3229 755.622 22.1875C755.955 22.0417 756.205 21.8281 756.372 21.5469C756.549 21.2656 756.638 20.9323 756.638 20.5469ZM770.2 8.09375V10.9062H761.903V8.09375H770.2ZM764.169 3.95312H767.794V20.2812C767.794 20.8021 767.851 21.1979 767.966 21.4688C768.08 21.7396 768.242 21.9219 768.45 22.0156C768.659 22.1094 768.903 22.1562 769.185 22.1562C769.393 22.1562 769.596 22.1406 769.794 22.1094C770.002 22.0677 770.153 22.0312 770.247 22V24.9375C769.976 25.0417 769.664 25.1302 769.31 25.2031C768.955 25.276 768.528 25.3125 768.028 25.3125C767.289 25.3125 766.627 25.1615 766.044 24.8594C765.461 24.5469 765.002 24.0417 764.669 23.3438C764.336 22.6354 764.169 21.6979 764.169 20.5312V3.95312ZM776.888 8.09375V25H773.247V8.09375H776.888ZM773.06 3.67188C773.06 3.08854 773.237 2.60417 773.591 2.21875C773.945 1.82292 774.44 1.625 775.075 1.625C775.711 1.625 776.205 1.82292 776.56 2.21875C776.914 2.60417 777.091 3.08854 777.091 3.67188C777.091 4.23438 776.914 4.70833 776.56 5.09375C776.205 5.47917 775.711 5.67188 775.075 5.67188C774.44 5.67188 773.945 5.47917 773.591 5.09375C773.237 4.70833 773.06 4.23438 773.06 3.67188ZM787.607 8.09375V10.9062H779.31V8.09375H787.607ZM781.575 3.95312H785.2V20.2812C785.2 20.8021 785.258 21.1979 785.372 21.4688C785.487 21.7396 785.648 21.9219 785.857 22.0156C786.065 22.1094 786.31 22.1562 786.591 22.1562C786.799 22.1562 787.002 22.1406 787.2 22.1094C787.409 22.0677 787.56 22.0312 787.653 22V24.9375C787.383 25.0417 787.07 25.1302 786.716 25.2031C786.362 25.276 785.935 25.3125 785.435 25.3125C784.695 25.3125 784.034 25.1615 783.45 24.8594C782.867 24.5469 782.409 24.0417 782.075 23.3438C781.742 22.6354 781.575 21.6979 781.575 20.5312V3.95312ZM798.778 21.0156V8.09375H802.419V25H798.982L798.778 21.0156ZM799.294 17.4844L800.45 17.4531C800.45 18.5885 800.346 19.6354 800.138 20.5938C799.929 21.5521 799.607 22.3854 799.169 23.0938C798.742 23.7917 798.185 24.3385 797.497 24.7344C796.82 25.1198 796.008 25.3125 795.06 25.3125C794.362 25.3125 793.721 25.1927 793.138 24.9531C792.565 24.7135 792.07 24.3438 791.653 23.8438C791.247 23.3438 790.929 22.6927 790.7 21.8906C790.471 21.0885 790.357 20.1302 790.357 19.0156V8.09375H793.997V19.0469C793.997 19.651 794.049 20.1562 794.153 20.5625C794.258 20.9583 794.403 21.2812 794.591 21.5312C794.778 21.7708 794.987 21.9427 795.216 22.0469C795.455 22.1406 795.711 22.1875 795.982 22.1875C796.804 22.1875 797.455 21.9844 797.935 21.5781C798.424 21.1615 798.773 20.599 798.982 19.8906C799.19 19.1823 799.294 18.3802 799.294 17.4844ZM812.888 8.09375V10.9062H804.591V8.09375H812.888ZM806.857 3.95312H810.482V20.2812C810.482 20.8021 810.539 21.1979 810.653 21.4688C810.768 21.7396 810.929 21.9219 811.138 22.0156C811.346 22.1094 811.591 22.1562 811.872 22.1562C812.08 22.1562 812.284 22.1406 812.482 22.1094C812.69 22.0677 812.841 22.0312 812.935 22V24.9375C812.664 25.0417 812.351 25.1302 811.997 25.2031C811.643 25.276 811.216 25.3125 810.716 25.3125C809.976 25.3125 809.315 25.1615 808.732 24.8594C808.148 24.5469 807.69 24.0417 807.357 23.3438C807.023 22.6354 806.857 21.6979 806.857 20.5312V3.95312ZM814.778 17.2344V15.875C814.778 14.5625 814.94 13.401 815.263 12.3906C815.586 11.3802 816.044 10.5365 816.638 9.85938C817.242 9.17188 817.95 8.65625 818.763 8.3125C819.575 7.95833 820.471 7.78125 821.45 7.78125C822.45 7.78125 823.357 7.95833 824.169 8.3125C824.992 8.65625 825.7 9.17188 826.294 9.85938C826.898 10.5365 827.362 11.3802 827.685 12.3906C828.008 13.401 828.169 14.5625 828.169 15.875V17.2344C828.169 18.5469 828.008 19.7083 827.685 20.7188C827.362 21.7292 826.898 22.5781 826.294 23.2656C825.7 23.9427 824.997 24.4531 824.185 24.7969C823.372 25.1406 822.471 25.3125 821.482 25.3125C820.502 25.3125 819.601 25.1406 818.778 24.7969C817.966 24.4531 817.258 23.9427 816.653 23.2656C816.049 22.5781 815.586 21.7292 815.263 20.7188C814.94 19.7083 814.778 18.5469 814.778 17.2344ZM818.419 15.875V17.2344C818.419 18.0781 818.492 18.8177 818.638 19.4531C818.784 20.0781 818.992 20.599 819.263 21.0156C819.534 21.4323 819.857 21.7448 820.232 21.9531C820.607 22.1615 821.023 22.2656 821.482 22.2656C821.992 22.2656 822.435 22.1615 822.81 21.9531C823.195 21.7448 823.513 21.4323 823.763 21.0156C824.023 20.599 824.216 20.0781 824.341 19.4531C824.466 18.8177 824.528 18.0781 824.528 17.2344V15.875C824.528 15.0417 824.455 14.3125 824.31 13.6875C824.164 13.0521 823.955 12.526 823.685 12.1094C823.414 11.6823 823.086 11.3646 822.7 11.1562C822.325 10.9479 821.909 10.8438 821.45 10.8438C821.002 10.8438 820.591 10.9479 820.216 11.1562C819.851 11.3646 819.534 11.6823 819.263 12.1094C818.992 12.526 818.784 13.0521 818.638 13.6875C818.492 14.3125 818.419 15.0417 818.419 15.875ZM842.778 2.25V25H838.982V2.25H842.778ZM850.153 12.1719V15.3594H841.903V12.1719H850.153ZM851.216 2.25V5.4375H841.903V2.25H851.216ZM860.122 25.3125C859.028 25.3125 858.054 25.151 857.2 24.8281C856.346 24.4948 855.622 24.0052 855.028 23.3594C854.435 22.7031 853.982 21.901 853.669 20.9531C853.357 19.9948 853.2 18.8854 853.2 17.625V16C853.2 14.5729 853.362 13.3438 853.685 12.3125C854.018 11.2708 854.476 10.4167 855.06 9.75C855.643 9.08333 856.33 8.58854 857.122 8.26562C857.924 7.94271 858.794 7.78125 859.732 7.78125C860.794 7.78125 861.716 7.95312 862.497 8.29688C863.278 8.64062 863.919 9.15625 864.419 9.84375C864.929 10.5312 865.304 11.3802 865.544 12.3906C865.794 13.401 865.919 14.5625 865.919 15.875V17.7031H854.95V14.9531H862.325V14.5625C862.304 13.7917 862.211 13.1302 862.044 12.5781C861.877 12.0156 861.607 11.5885 861.232 11.2969C860.867 10.9948 860.362 10.8438 859.716 10.8438C859.247 10.8438 858.83 10.9323 858.466 11.1094C858.101 11.2865 857.799 11.5729 857.56 11.9688C857.33 12.3646 857.153 12.8958 857.028 13.5625C856.903 14.2188 856.841 15.0312 856.841 16V17.625C856.841 18.4688 856.914 19.1823 857.06 19.7656C857.216 20.349 857.445 20.8281 857.747 21.2031C858.049 21.5677 858.414 21.8385 858.841 22.0156C859.278 22.1823 859.784 22.2656 860.357 22.2656C861.2 22.2656 861.924 22.1094 862.528 21.7969C863.143 21.474 863.674 21.0573 864.122 20.5469L865.732 22.7812C865.429 23.1875 865.023 23.5885 864.513 23.9844C864.002 24.3698 863.383 24.6875 862.653 24.9375C861.935 25.1875 861.091 25.3125 860.122 25.3125ZM877.341 21.4688V1H880.982V25L877.685 25.0156L877.341 21.4688ZM868.263 17.2344V15.9062C868.263 14.5208 868.388 13.3229 868.638 12.3125C868.888 11.2917 869.252 10.4427 869.732 9.76562C870.221 9.08854 870.81 8.58854 871.497 8.26562C872.185 7.94271 872.961 7.78125 873.825 7.78125C874.669 7.78125 875.398 7.97396 876.013 8.35938C876.627 8.73438 877.148 9.27083 877.575 9.96875C878.002 10.6667 878.341 11.5 878.591 12.4688C878.851 13.4271 879.028 14.5 879.122 15.6875V17.5312C879.008 18.6771 878.825 19.7292 878.575 20.6875C878.325 21.6354 877.987 22.4531 877.56 23.1406C877.133 23.8281 876.607 24.3646 875.982 24.75C875.367 25.125 874.643 25.3125 873.81 25.3125C872.945 25.3125 872.169 25.1406 871.482 24.7969C870.804 24.4531 870.221 23.9427 869.732 23.2656C869.252 22.5885 868.888 21.75 868.638 20.75C868.388 19.7396 868.263 18.5677 868.263 17.2344ZM871.903 15.9062V17.2344C871.903 18.099 871.955 18.8438 872.06 19.4688C872.164 20.0938 872.33 20.6094 872.56 21.0156C872.789 21.4115 873.091 21.7083 873.466 21.9062C873.841 22.0938 874.294 22.1875 874.825 22.1875C875.492 22.1875 876.034 22.0208 876.45 21.6875C876.877 21.3542 877.205 20.9062 877.435 20.3438C877.674 19.7708 877.841 19.1354 877.935 18.4375V14.7969C877.883 14.2448 877.778 13.7344 877.622 13.2656C877.466 12.7865 877.263 12.3698 877.013 12.0156C876.763 11.6615 876.455 11.3854 876.091 11.1875C875.737 10.9792 875.32 10.875 874.841 10.875C874.31 10.875 873.857 10.9792 873.482 11.1875C873.107 11.3854 872.804 11.6927 872.575 12.1094C872.346 12.5156 872.174 13.0365 872.06 13.6719C871.955 14.2969 871.903 15.0417 871.903 15.9062ZM891.185 25.3125C890.091 25.3125 889.117 25.151 888.263 24.8281C887.409 24.4948 886.685 24.0052 886.091 23.3594C885.497 22.7031 885.044 21.901 884.732 20.9531C884.419 19.9948 884.263 18.8854 884.263 17.625V16C884.263 14.5729 884.424 13.3438 884.747 12.3125C885.08 11.2708 885.539 10.4167 886.122 9.75C886.705 9.08333 887.393 8.58854 888.185 8.26562C888.987 7.94271 889.857 7.78125 890.794 7.78125C891.857 7.78125 892.778 7.95312 893.56 8.29688C894.341 8.64062 894.982 9.15625 895.482 9.84375C895.992 10.5312 896.367 11.3802 896.607 12.3906C896.857 13.401 896.982 14.5625 896.982 15.875V17.7031H886.013V14.9531H893.388V14.5625C893.367 13.7917 893.273 13.1302 893.107 12.5781C892.94 12.0156 892.669 11.5885 892.294 11.2969C891.929 10.9948 891.424 10.8438 890.778 10.8438C890.31 10.8438 889.893 10.9323 889.528 11.1094C889.164 11.2865 888.862 11.5729 888.622 11.9688C888.393 12.3646 888.216 12.8958 888.091 13.5625C887.966 14.2188 887.903 15.0312 887.903 16V17.625C887.903 18.4688 887.976 19.1823 888.122 19.7656C888.278 20.349 888.508 20.8281 888.81 21.2031C889.112 21.5677 889.476 21.8385 889.903 22.0156C890.341 22.1823 890.846 22.2656 891.419 22.2656C892.263 22.2656 892.987 22.1094 893.591 21.7969C894.205 21.474 894.737 21.0573 895.185 20.5469L896.794 22.7812C896.492 23.1875 896.086 23.5885 895.575 23.9844C895.065 24.3698 894.445 24.6875 893.716 24.9375C892.997 25.1875 892.153 25.3125 891.185 25.3125ZM903.544 11.3594V25H899.903V8.09375H903.372L903.544 11.3594ZM907.622 7.98438L907.607 11.5781C907.398 11.526 907.174 11.4948 906.935 11.4844C906.705 11.4635 906.476 11.4531 906.247 11.4531C905.747 11.4531 905.315 11.5417 904.95 11.7188C904.586 11.8958 904.278 12.151 904.028 12.4844C903.778 12.8177 903.58 13.2188 903.435 13.6875C903.299 14.1562 903.216 14.6875 903.185 15.2812L902.403 15.3125C902.403 14.25 902.487 13.2656 902.653 12.3594C902.82 11.4427 903.07 10.6458 903.403 9.96875C903.747 9.28125 904.174 8.74479 904.685 8.35938C905.195 7.97396 905.789 7.78125 906.466 7.78125C906.653 7.78125 906.867 7.80208 907.107 7.84375C907.346 7.88542 907.518 7.93229 907.622 7.98438ZM917.403 21.5625V13.1406C917.403 12.5573 917.32 12.0885 917.153 11.7344C916.997 11.3802 916.763 11.125 916.45 10.9688C916.148 10.8021 915.768 10.7188 915.31 10.7188C914.83 10.7188 914.424 10.8177 914.091 11.0156C913.768 11.2135 913.523 11.4844 913.357 11.8281C913.19 12.1615 913.107 12.5469 913.107 12.9844H909.466C909.466 12.3073 909.601 11.6562 909.872 11.0312C910.153 10.4062 910.554 9.84896 911.075 9.35938C911.596 8.86979 912.226 8.48438 912.966 8.20312C913.705 7.92188 914.528 7.78125 915.435 7.78125C916.518 7.78125 917.482 7.96354 918.325 8.32812C919.169 8.68229 919.83 9.26042 920.31 10.0625C920.799 10.8542 921.044 11.8958 921.044 13.1875V21.0781C921.044 21.8594 921.091 22.5573 921.185 23.1719C921.289 23.776 921.429 24.3021 921.607 24.75V25H917.903C917.737 24.5938 917.612 24.0729 917.528 23.4375C917.445 22.8021 917.403 22.1771 917.403 21.5625ZM917.888 14.7031L917.903 17.0625H916.153C915.633 17.0625 915.164 17.1354 914.747 17.2812C914.33 17.4167 913.976 17.6146 913.685 17.875C913.403 18.125 913.185 18.4323 913.028 18.7969C912.883 19.1615 912.81 19.5625 912.81 20C912.81 20.5312 912.883 20.9635 913.028 21.2969C913.185 21.6302 913.409 21.8802 913.7 22.0469C914.002 22.2031 914.367 22.2812 914.794 22.2812C915.377 22.2812 915.883 22.1562 916.31 21.9062C916.747 21.6458 917.08 21.3333 917.31 20.9688C917.549 20.6042 917.643 20.2708 917.591 19.9688L918.419 21.4844C918.336 21.8802 918.179 22.2969 917.95 22.7344C917.732 23.1719 917.445 23.5885 917.091 23.9844C916.737 24.3802 916.31 24.7031 915.81 24.9531C915.31 25.1927 914.732 25.3125 914.075 25.3125C913.127 25.3125 912.284 25.1146 911.544 24.7188C910.804 24.3229 910.221 23.7552 909.794 23.0156C909.377 22.2656 909.169 21.3698 909.169 20.3281C909.169 19.4844 909.31 18.7188 909.591 18.0312C909.872 17.3438 910.289 16.7552 910.841 16.2656C911.393 15.7656 912.086 15.3802 912.919 15.1094C913.763 14.8385 914.747 14.7031 915.872 14.7031H917.888ZM928.638 1V25H924.997V1H928.638ZM945.778 25H941.825L941.857 21.8281H945.778C946.997 21.8281 947.971 21.6042 948.7 21.1562C949.429 20.6979 949.955 20 950.278 19.0625C950.601 18.125 950.763 16.9271 950.763 15.4688V11.7656C950.763 10.6406 950.669 9.68229 950.482 8.89062C950.304 8.08854 950.023 7.4375 949.638 6.9375C949.263 6.42708 948.768 6.05208 948.153 5.8125C947.539 5.5625 946.799 5.4375 945.935 5.4375H941.747V2.25H945.935C947.237 2.25 948.414 2.45833 949.466 2.875C950.518 3.29167 951.419 3.90625 952.169 4.71875C952.929 5.52083 953.513 6.51562 953.919 7.70312C954.325 8.89062 954.528 10.2552 954.528 11.7969V15.4688C954.528 17.0104 954.325 18.375 953.919 19.5625C953.513 20.7396 952.929 21.7344 952.169 22.5469C951.409 23.349 950.492 23.9583 949.419 24.375C948.346 24.7917 947.133 25 945.778 25ZM943.997 2.25V25H940.2V2.25H943.997ZM957.56 17.2344V15.875C957.56 14.5625 957.721 13.401 958.044 12.3906C958.367 11.3802 958.825 10.5365 959.419 9.85938C960.023 9.17188 960.732 8.65625 961.544 8.3125C962.357 7.95833 963.252 7.78125 964.232 7.78125C965.232 7.78125 966.138 7.95833 966.95 8.3125C967.773 8.65625 968.482 9.17188 969.075 9.85938C969.679 10.5365 970.143 11.3802 970.466 12.3906C970.789 13.401 970.95 14.5625 970.95 15.875V17.2344C970.95 18.5469 970.789 19.7083 970.466 20.7188C970.143 21.7292 969.679 22.5781 969.075 23.2656C968.482 23.9427 967.778 24.4531 966.966 24.7969C966.153 25.1406 965.252 25.3125 964.263 25.3125C963.284 25.3125 962.383 25.1406 961.56 24.7969C960.747 24.4531 960.039 23.9427 959.435 23.2656C958.83 22.5781 958.367 21.7292 958.044 20.7188C957.721 19.7083 957.56 18.5469 957.56 17.2344ZM961.2 15.875V17.2344C961.2 18.0781 961.273 18.8177 961.419 19.4531C961.565 20.0781 961.773 20.599 962.044 21.0156C962.315 21.4323 962.638 21.7448 963.013 21.9531C963.388 22.1615 963.804 22.2656 964.263 22.2656C964.773 22.2656 965.216 22.1615 965.591 21.9531C965.976 21.7448 966.294 21.4323 966.544 21.0156C966.804 20.599 966.997 20.0781 967.122 19.4531C967.247 18.8177 967.31 18.0781 967.31 17.2344V15.875C967.31 15.0417 967.237 14.3125 967.091 13.6875C966.945 13.0521 966.737 12.526 966.466 12.1094C966.195 11.6823 965.867 11.3646 965.482 11.1562C965.107 10.9479 964.69 10.8438 964.232 10.8438C963.784 10.8438 963.372 10.9479 962.997 11.1562C962.633 11.3646 962.315 11.6823 962.044 12.1094C961.773 12.526 961.565 13.0521 961.419 13.6875C961.273 14.3125 961.2 15.0417 961.2 15.875ZM989.216 2.25V25H985.435V2.25H989.216ZM995.013 2.25V5.4375H979.7V2.25H995.013ZM1000.26 11.3594V25H996.622V8.09375H1000.09L1000.26 11.3594ZM1004.34 7.98438L1004.33 11.5781C1004.12 11.526 1003.89 11.4948 1003.65 11.4844C1003.42 11.4635 1003.2 11.4531 1002.97 11.4531C1002.47 11.4531 1002.03 11.5417 1001.67 11.7188C1001.3 11.8958 1001 12.151 1000.75 12.4844C1000.5 12.8177 1000.3 13.2188 1000.15 13.6875C1000.02 14.1562 999.935 14.6875 999.903 15.2812L999.122 15.3125C999.122 14.25 999.205 13.2656 999.372 12.3594C999.539 11.4427 999.789 10.6458 1000.12 9.96875C1000.47 9.28125 1000.89 8.74479 1001.4 8.35938C1001.91 7.97396 1002.51 7.78125 1003.18 7.78125C1003.37 7.78125 1003.59 7.80208 1003.83 7.84375C1004.06 7.88542 1004.24 7.93229 1004.34 7.98438ZM1010.7 8.09375V25H1007.06V8.09375H1010.7ZM1006.87 3.67188C1006.87 3.08854 1007.05 2.60417 1007.4 2.21875C1007.76 1.82292 1008.25 1.625 1008.89 1.625C1009.52 1.625 1010.02 1.82292 1010.37 2.21875C1010.73 2.60417 1010.9 3.08854 1010.9 3.67188C1010.9 4.23438 1010.73 4.70833 1010.37 5.09375C1010.02 5.47917 1009.52 5.67188 1008.89 5.67188C1008.25 5.67188 1007.76 5.47917 1007.4 5.09375C1007.05 4.70833 1006.87 4.23438 1006.87 3.67188ZM1022.43 21.5625V13.1406C1022.43 12.5573 1022.35 12.0885 1022.18 11.7344C1022.03 11.3802 1021.79 11.125 1021.48 10.9688C1021.18 10.8021 1020.8 10.7188 1020.34 10.7188C1019.86 10.7188 1019.46 10.8177 1019.12 11.0156C1018.8 11.2135 1018.55 11.4844 1018.39 11.8281C1018.22 12.1615 1018.14 12.5469 1018.14 12.9844H1014.5C1014.5 12.3073 1014.63 11.6562 1014.9 11.0312C1015.18 10.4062 1015.59 9.84896 1016.11 9.35938C1016.63 8.86979 1017.26 8.48438 1018 8.20312C1018.74 7.92188 1019.56 7.78125 1020.47 7.78125C1021.55 7.78125 1022.51 7.96354 1023.36 8.32812C1024.2 8.68229 1024.86 9.26042 1025.34 10.0625C1025.83 10.8542 1026.08 11.8958 1026.08 13.1875V21.0781C1026.08 21.8594 1026.12 22.5573 1026.22 23.1719C1026.32 23.776 1026.46 24.3021 1026.64 24.75V25H1022.93C1022.77 24.5938 1022.64 24.0729 1022.56 23.4375C1022.48 22.8021 1022.43 22.1771 1022.43 21.5625ZM1022.92 14.7031L1022.93 17.0625H1021.18C1020.66 17.0625 1020.2 17.1354 1019.78 17.2812C1019.36 17.4167 1019.01 17.6146 1018.72 17.875C1018.43 18.125 1018.22 18.4323 1018.06 18.7969C1017.91 19.1615 1017.84 19.5625 1017.84 20C1017.84 20.5312 1017.91 20.9635 1018.06 21.2969C1018.22 21.6302 1018.44 21.8802 1018.73 22.0469C1019.03 22.2031 1019.4 22.2812 1019.83 22.2812C1020.41 22.2812 1020.91 22.1562 1021.34 21.9062C1021.78 21.6458 1022.11 21.3333 1022.34 20.9688C1022.58 20.6042 1022.67 20.2708 1022.62 19.9688L1023.45 21.4844C1023.37 21.8802 1023.21 22.2969 1022.98 22.7344C1022.76 23.1719 1022.48 23.5885 1022.12 23.9844C1021.77 24.3802 1021.34 24.7031 1020.84 24.9531C1020.34 25.1927 1019.76 25.3125 1019.11 25.3125C1018.16 25.3125 1017.31 25.1146 1016.58 24.7188C1015.84 24.3229 1015.25 23.7552 1014.83 23.0156C1014.41 22.2656 1014.2 21.3698 1014.2 20.3281C1014.2 19.4844 1014.34 18.7188 1014.62 18.0312C1014.9 17.3438 1015.32 16.7552 1015.87 16.2656C1016.42 15.7656 1017.12 15.3802 1017.95 15.1094C1018.79 14.8385 1019.78 14.7031 1020.9 14.7031H1022.92ZM1021.53 0.984375L1025.26 5.3125V5.48438H1022.39L1020.48 3.0625L1018.56 5.5H1015.73V5.28125L1019.42 0.984375H1021.53ZM1033.4 11.7031V25H1029.76V8.09375H1033.18L1033.4 11.7031ZM1032.75 15.9375H1031.59C1031.58 14.7188 1031.71 13.6094 1031.98 12.6094C1032.25 11.6094 1032.64 10.75 1033.14 10.0312C1033.65 9.3125 1034.25 8.76042 1034.95 8.375C1035.66 7.97917 1036.45 7.78125 1037.31 7.78125C1037.98 7.78125 1038.59 7.89583 1039.14 8.125C1039.7 8.34375 1040.18 8.70312 1040.58 9.20312C1040.97 9.70312 1041.27 10.3542 1041.48 11.1562C1041.7 11.9583 1041.81 12.9375 1041.81 14.0938V25H1038.17V14.0625C1038.17 13.2708 1038.08 12.6458 1037.9 12.1875C1037.74 11.7188 1037.49 11.3854 1037.15 11.1875C1036.82 10.9792 1036.4 10.875 1035.89 10.875C1035.42 10.875 1034.99 11.0104 1034.59 11.2812C1034.21 11.5417 1033.87 11.9062 1033.59 12.375C1033.32 12.8333 1033.11 13.3698 1032.97 13.9844C1032.82 14.5885 1032.75 15.2396 1032.75 15.9375ZM1054.48 8.09375H1057.78V25.0625C1057.78 26.5833 1057.5 27.8281 1056.93 28.7969C1056.38 29.776 1055.61 30.5 1054.62 30.9688C1053.63 31.4375 1052.49 31.6719 1051.18 31.6719C1050.71 31.6719 1050.14 31.5938 1049.48 31.4375C1048.83 31.2812 1048.18 31.0521 1047.56 30.75C1046.93 30.4479 1046.41 30.0729 1046 29.625L1047.33 27.0938C1047.81 27.5938 1048.39 27.9792 1049.06 28.25C1049.73 28.5312 1050.37 28.6719 1050.98 28.6719C1051.65 28.6719 1052.21 28.5573 1052.67 28.3281C1053.14 28.1094 1053.5 27.7396 1053.75 27.2188C1054 26.7083 1054.12 26.0156 1054.12 25.1406V11.9219L1054.48 8.09375ZM1044.92 17.2344V15.9062C1044.92 14.5208 1045.05 13.3229 1045.31 12.3125C1045.57 11.2917 1045.95 10.4427 1046.43 9.76562C1046.92 9.08854 1047.52 8.58854 1048.23 8.26562C1048.94 7.94271 1049.73 7.78125 1050.61 7.78125C1051.51 7.78125 1052.28 7.97396 1052.9 8.35938C1053.54 8.73438 1054.05 9.27083 1054.45 9.96875C1054.86 10.6667 1055.17 11.5 1055.4 12.4688C1055.63 13.4271 1055.8 14.5 1055.9 15.6875V17.5312C1055.8 18.6771 1055.62 19.7292 1055.37 20.6875C1055.12 21.6354 1054.78 22.4531 1054.36 23.1406C1053.94 23.8281 1053.42 24.3646 1052.79 24.75C1052.18 25.125 1051.44 25.3125 1050.58 25.3125C1049.71 25.3125 1048.93 25.1406 1048.23 24.7969C1047.53 24.4531 1046.93 23.9427 1046.43 23.2656C1045.95 22.5885 1045.57 21.75 1045.31 20.75C1045.05 19.7396 1044.92 18.5677 1044.92 17.2344ZM1048.56 15.9062V17.2344C1048.56 18.099 1048.62 18.8438 1048.73 19.4688C1048.86 20.0938 1049.04 20.6094 1049.28 21.0156C1049.52 21.4115 1049.83 21.7083 1050.22 21.9062C1050.6 22.0938 1051.06 22.1875 1051.59 22.1875C1052.29 22.1875 1052.85 22.0208 1053.28 21.6875C1053.72 21.3542 1054.05 20.9062 1054.28 20.3438C1054.52 19.7708 1054.68 19.1354 1054.78 18.4375V14.7969C1054.73 14.2448 1054.62 13.7344 1054.47 13.2656C1054.32 12.7865 1054.12 12.3698 1053.86 12.0156C1053.61 11.6615 1053.29 11.3854 1052.92 11.1875C1052.55 10.9792 1052.12 10.875 1051.62 10.875C1051.1 10.875 1050.64 10.9792 1050.25 11.1875C1049.86 11.3854 1049.54 11.6927 1049.29 12.1094C1049.04 12.5156 1048.86 13.0365 1048.73 13.6719C1048.62 14.2969 1048.56 15.0417 1048.56 15.9062ZM1069.78 21.0156V8.09375H1073.42V25H1069.98L1069.78 21.0156ZM1070.29 17.4844L1071.45 17.4531C1071.45 18.5885 1071.35 19.6354 1071.14 20.5938C1070.93 21.5521 1070.61 22.3854 1070.17 23.0938C1069.74 23.7917 1069.18 24.3385 1068.5 24.7344C1067.82 25.1198 1067.01 25.3125 1066.06 25.3125C1065.36 25.3125 1064.72 25.1927 1064.14 24.9531C1063.56 24.7135 1063.07 24.3438 1062.65 23.8438C1062.25 23.3438 1061.93 22.6927 1061.7 21.8906C1061.47 21.0885 1061.36 20.1302 1061.36 19.0156V8.09375H1065V19.0469C1065 19.651 1065.05 20.1562 1065.15 20.5625C1065.26 20.9583 1065.4 21.2812 1065.59 21.5312C1065.78 21.7708 1065.99 21.9427 1066.22 22.0469C1066.46 22.1406 1066.71 22.1875 1066.98 22.1875C1067.8 22.1875 1068.46 21.9844 1068.93 21.5781C1069.42 21.1615 1069.77 20.599 1069.98 19.8906C1070.19 19.1823 1070.29 18.3802 1070.29 17.4844ZM1080.92 1V25H1077.28V1H1080.92ZM1084.28 17.2344V15.875C1084.28 14.5625 1084.44 13.401 1084.76 12.3906C1085.09 11.3802 1085.54 10.5365 1086.14 9.85938C1086.74 9.17188 1087.45 8.65625 1088.26 8.3125C1089.08 7.95833 1089.97 7.78125 1090.95 7.78125C1091.95 7.78125 1092.86 7.95833 1093.67 8.3125C1094.49 8.65625 1095.2 9.17188 1095.79 9.85938C1096.4 10.5365 1096.86 11.3802 1097.18 12.3906C1097.51 13.401 1097.67 14.5625 1097.67 15.875V17.2344C1097.67 18.5469 1097.51 19.7083 1097.18 20.7188C1096.86 21.7292 1096.4 22.5781 1095.79 23.2656C1095.2 23.9427 1094.5 24.4531 1093.68 24.7969C1092.87 25.1406 1091.97 25.3125 1090.98 25.3125C1090 25.3125 1089.1 25.1406 1088.28 24.7969C1087.47 24.4531 1086.76 23.9427 1086.15 23.2656C1085.55 22.5781 1085.09 21.7292 1084.76 20.7188C1084.44 19.7083 1084.28 18.5469 1084.28 17.2344ZM1087.92 15.875V17.2344C1087.92 18.0781 1087.99 18.8177 1088.14 19.4531C1088.28 20.0781 1088.49 20.599 1088.76 21.0156C1089.03 21.4323 1089.36 21.7448 1089.73 21.9531C1090.11 22.1615 1090.52 22.2656 1090.98 22.2656C1091.49 22.2656 1091.93 22.1615 1092.31 21.9531C1092.7 21.7448 1093.01 21.4323 1093.26 21.0156C1093.52 20.599 1093.72 20.0781 1093.84 19.4531C1093.97 18.8177 1094.03 18.0781 1094.03 17.2344V15.875C1094.03 15.0417 1093.96 14.3125 1093.81 13.6875C1093.66 13.0521 1093.46 12.526 1093.18 12.1094C1092.91 11.6823 1092.59 11.3646 1092.2 11.1562C1091.83 10.9479 1091.41 10.8438 1090.95 10.8438C1090.5 10.8438 1090.09 10.9479 1089.72 11.1562C1089.35 11.3646 1089.03 11.6823 1088.76 12.1094C1088.49 12.526 1088.28 13.0521 1088.14 13.6875C1087.99 14.3125 1087.92 15.0417 1087.92 15.875ZM1109.78 2.25H1113.23L1118.47 19.1719L1123.68 2.25H1126.89L1119.89 25H1117.03L1109.78 2.25ZM1108.48 2.25H1111.67L1112.18 16.7344V25H1108.48V2.25ZM1125.23 2.25H1128.43V25H1124.73V16.7344L1125.23 2.25ZM1136.26 8.09375V25H1132.62V8.09375H1136.26ZM1132.43 3.67188C1132.43 3.08854 1132.61 2.60417 1132.97 2.21875C1133.32 1.82292 1133.81 1.625 1134.45 1.625C1135.09 1.625 1135.58 1.82292 1135.93 2.21875C1136.29 2.60417 1136.47 3.08854 1136.47 3.67188C1136.47 4.23438 1136.29 4.70833 1135.93 5.09375C1135.58 5.47917 1135.09 5.67188 1134.45 5.67188C1133.81 5.67188 1133.32 5.47917 1132.97 5.09375C1132.61 4.70833 1132.43 4.23438 1132.43 3.67188ZM1143.75 11.7031V25H1140.11V8.09375H1143.53L1143.75 11.7031ZM1143.09 15.9375H1141.93C1141.92 14.7188 1142.05 13.6094 1142.33 12.6094C1142.6 11.6094 1142.98 10.75 1143.48 10.0312C1143.99 9.3125 1144.6 8.76042 1145.29 8.375C1146 7.97917 1146.79 7.78125 1147.65 7.78125C1148.32 7.78125 1148.93 7.89583 1149.48 8.125C1150.04 8.34375 1150.52 8.70312 1150.92 9.20312C1151.31 9.70312 1151.62 10.3542 1151.83 11.1562C1152.04 11.9583 1152.15 12.9375 1152.15 14.0938V25H1148.51V14.0625C1148.51 13.2708 1148.42 12.6458 1148.25 12.1875C1148.08 11.7188 1147.83 11.3854 1147.5 11.1875C1147.16 10.9792 1146.74 10.875 1146.23 10.875C1145.76 10.875 1145.33 11.0104 1144.93 11.2812C1144.55 11.5417 1144.22 11.9062 1143.93 12.375C1143.66 12.8333 1143.46 13.3698 1143.31 13.9844C1143.16 14.5885 1143.09 15.2396 1143.09 15.9375ZM1162.28 25.3125C1161.18 25.3125 1160.21 25.151 1159.36 24.8281C1158.5 24.4948 1157.78 24.0052 1157.18 23.3594C1156.59 22.7031 1156.14 21.901 1155.83 20.9531C1155.51 19.9948 1155.36 18.8854 1155.36 17.625V16C1155.36 14.5729 1155.52 13.3438 1155.84 12.3125C1156.17 11.2708 1156.63 10.4167 1157.22 9.75C1157.8 9.08333 1158.49 8.58854 1159.28 8.26562C1160.08 7.94271 1160.95 7.78125 1161.89 7.78125C1162.95 7.78125 1163.87 7.95312 1164.65 8.29688C1165.43 8.64062 1166.08 9.15625 1166.58 9.84375C1167.09 10.5312 1167.46 11.3802 1167.7 12.3906C1167.95 13.401 1168.08 14.5625 1168.08 15.875V17.7031H1157.11V14.9531H1164.48V14.5625C1164.46 13.7917 1164.37 13.1302 1164.2 12.5781C1164.03 12.0156 1163.76 11.5885 1163.39 11.2969C1163.02 10.9948 1162.52 10.8438 1161.87 10.8438C1161.4 10.8438 1160.99 10.9323 1160.62 11.1094C1160.26 11.2865 1159.96 11.5729 1159.72 11.9688C1159.49 12.3646 1159.31 12.8958 1159.18 13.5625C1159.06 14.2188 1159 15.0312 1159 16V17.625C1159 18.4688 1159.07 19.1823 1159.22 19.7656C1159.37 20.349 1159.6 20.8281 1159.9 21.2031C1160.21 21.5677 1160.57 21.8385 1161 22.0156C1161.43 22.1823 1161.94 22.2656 1162.51 22.2656C1163.36 22.2656 1164.08 22.1094 1164.68 21.7969C1165.3 21.474 1165.83 21.0573 1166.28 20.5469L1167.89 22.7812C1167.59 23.1875 1167.18 23.5885 1166.67 23.9844C1166.16 24.3698 1165.54 24.6875 1164.81 24.9375C1164.09 25.1875 1163.25 25.3125 1162.28 25.3125ZM1174.86 8.09375V25H1171.22V8.09375H1174.86ZM1171.03 3.67188C1171.03 3.08854 1171.21 2.60417 1171.56 2.21875C1171.91 1.82292 1172.41 1.625 1173.04 1.625C1173.68 1.625 1174.17 1.82292 1174.53 2.21875C1174.88 2.60417 1175.06 3.08854 1175.06 3.67188C1175.06 4.23438 1174.88 4.70833 1174.53 5.09375C1174.17 5.47917 1173.68 5.67188 1173.04 5.67188C1172.41 5.67188 1171.91 5.47917 1171.56 5.09375C1171.21 4.70833 1171.03 4.23438 1171.03 3.67188ZM1182.39 11.3594V25H1178.75V8.09375H1182.22L1182.39 11.3594ZM1186.47 7.98438L1186.45 11.5781C1186.24 11.526 1186.02 11.4948 1185.78 11.4844C1185.55 11.4635 1185.32 11.4531 1185.09 11.4531C1184.59 11.4531 1184.16 11.5417 1183.79 11.7188C1183.43 11.8958 1183.12 12.151 1182.87 12.4844C1182.62 12.8177 1182.42 13.2188 1182.28 13.6875C1182.14 14.1562 1182.06 14.6875 1182.03 15.2812L1181.25 15.3125C1181.25 14.25 1181.33 13.2656 1181.5 12.3594C1181.66 11.4427 1181.91 10.6458 1182.25 9.96875C1182.59 9.28125 1183.02 8.74479 1183.53 8.35938C1184.04 7.97396 1184.63 7.78125 1185.31 7.78125C1185.5 7.78125 1185.71 7.80208 1185.95 7.84375C1186.19 7.88542 1186.36 7.93229 1186.47 7.98438ZM1187.97 17.2344V15.875C1187.97 14.5625 1188.13 13.401 1188.45 12.3906C1188.77 11.3802 1189.23 10.5365 1189.83 9.85938C1190.43 9.17188 1191.14 8.65625 1191.95 8.3125C1192.76 7.95833 1193.66 7.78125 1194.64 7.78125C1195.64 7.78125 1196.54 7.95833 1197.36 8.3125C1198.18 8.65625 1198.89 9.17188 1199.48 9.85938C1200.09 10.5365 1200.55 11.3802 1200.87 12.3906C1201.2 13.401 1201.36 14.5625 1201.36 15.875V17.2344C1201.36 18.5469 1201.2 19.7083 1200.87 20.7188C1200.55 21.7292 1200.09 22.5781 1199.48 23.2656C1198.89 23.9427 1198.18 24.4531 1197.37 24.7969C1196.56 25.1406 1195.66 25.3125 1194.67 25.3125C1193.69 25.3125 1192.79 25.1406 1191.97 24.7969C1191.15 24.4531 1190.45 23.9427 1189.84 23.2656C1189.24 22.5781 1188.77 21.7292 1188.45 20.7188C1188.13 19.7083 1187.97 18.5469 1187.97 17.2344ZM1191.61 15.875V17.2344C1191.61 18.0781 1191.68 18.8177 1191.83 19.4531C1191.97 20.0781 1192.18 20.599 1192.45 21.0156C1192.72 21.4323 1193.04 21.7448 1193.42 21.9531C1193.79 22.1615 1194.21 22.2656 1194.67 22.2656C1195.18 22.2656 1195.62 22.1615 1196 21.9531C1196.38 21.7448 1196.7 21.4323 1196.95 21.0156C1197.21 20.599 1197.4 20.0781 1197.53 19.4531C1197.65 18.8177 1197.72 18.0781 1197.72 17.2344V15.875C1197.72 15.0417 1197.64 14.3125 1197.5 13.6875C1197.35 13.0521 1197.14 12.526 1196.87 12.1094C1196.6 11.6823 1196.27 11.3646 1195.89 11.1562C1195.51 10.9479 1195.1 10.8438 1194.64 10.8438C1194.19 10.8438 1193.78 10.9479 1193.4 11.1562C1193.04 11.3646 1192.72 11.6823 1192.45 12.1094C1192.18 12.526 1191.97 13.0521 1191.83 13.6875C1191.68 14.3125 1191.61 15.0417 1191.61 15.875ZM1223.26 17.5781H1227.04C1226.97 19.224 1226.64 20.625 1226.04 21.7812C1225.45 22.9271 1224.6 23.8021 1223.48 24.4062C1222.38 25.0104 1221.03 25.3125 1219.43 25.3125C1218.23 25.3125 1217.14 25.0938 1216.18 24.6562C1215.24 24.2188 1214.43 23.5885 1213.76 22.7656C1213.1 21.9323 1212.59 20.9167 1212.23 19.7188C1211.89 18.5208 1211.72 17.1615 1211.72 15.6406V11.6094C1211.72 10.0885 1211.89 8.72917 1212.25 7.53125C1212.61 6.33333 1213.13 5.31771 1213.81 4.48438C1214.49 3.65104 1215.31 3.02083 1216.28 2.59375C1217.26 2.15625 1218.36 1.9375 1219.59 1.9375C1221.16 1.9375 1222.49 2.23958 1223.56 2.84375C1224.63 3.44792 1225.46 4.33333 1226.04 5.5C1226.63 6.66667 1226.97 8.08854 1227.06 9.76562H1223.28C1223.23 8.63021 1223.07 7.72396 1222.81 7.04688C1222.56 6.35938 1222.17 5.86458 1221.65 5.5625C1221.14 5.26042 1220.46 5.10938 1219.59 5.10938C1218.87 5.10938 1218.25 5.24479 1217.73 5.51562C1217.22 5.78646 1216.8 6.19271 1216.47 6.73438C1216.14 7.26562 1215.9 7.9375 1215.73 8.75C1215.58 9.55208 1215.5 10.4948 1215.5 11.5781V15.6406C1215.5 16.6823 1215.56 17.6042 1215.7 18.4062C1215.84 19.2083 1216.05 19.8906 1216.36 20.4531C1216.66 21.0052 1217.06 21.4271 1217.56 21.7188C1218.06 22 1218.68 22.1406 1219.43 22.1406C1220.33 22.1406 1221.04 22 1221.58 21.7188C1222.12 21.4375 1222.52 20.9635 1222.78 20.2969C1223.04 19.6302 1223.2 18.724 1223.26 17.5781ZM1237.93 21.5625V13.1406C1237.93 12.5573 1237.85 12.0885 1237.68 11.7344C1237.53 11.3802 1237.29 11.125 1236.98 10.9688C1236.68 10.8021 1236.3 10.7188 1235.84 10.7188C1235.36 10.7188 1234.96 10.8177 1234.62 11.0156C1234.3 11.2135 1234.05 11.4844 1233.89 11.8281C1233.72 12.1615 1233.64 12.5469 1233.64 12.9844H1230C1230 12.3073 1230.13 11.6562 1230.4 11.0312C1230.68 10.4062 1231.09 9.84896 1231.61 9.35938C1232.13 8.86979 1232.76 8.48438 1233.5 8.20312C1234.24 7.92188 1235.06 7.78125 1235.97 7.78125C1237.05 7.78125 1238.01 7.96354 1238.86 8.32812C1239.7 8.68229 1240.36 9.26042 1240.84 10.0625C1241.33 10.8542 1241.58 11.8958 1241.58 13.1875V21.0781C1241.58 21.8594 1241.62 22.5573 1241.72 23.1719C1241.82 23.776 1241.96 24.3021 1242.14 24.75V25H1238.43C1238.27 24.5938 1238.14 24.0729 1238.06 23.4375C1237.98 22.8021 1237.93 22.1771 1237.93 21.5625ZM1238.42 14.7031L1238.43 17.0625H1236.68C1236.16 17.0625 1235.7 17.1354 1235.28 17.2812C1234.86 17.4167 1234.51 17.6146 1234.22 17.875C1233.93 18.125 1233.72 18.4323 1233.56 18.7969C1233.41 19.1615 1233.34 19.5625 1233.34 20C1233.34 20.5312 1233.41 20.9635 1233.56 21.2969C1233.72 21.6302 1233.94 21.8802 1234.23 22.0469C1234.53 22.2031 1234.9 22.2812 1235.33 22.2812C1235.91 22.2812 1236.41 22.1562 1236.84 21.9062C1237.28 21.6458 1237.61 21.3333 1237.84 20.9688C1238.08 20.6042 1238.17 20.2708 1238.12 19.9688L1238.95 21.4844C1238.87 21.8802 1238.71 22.2969 1238.48 22.7344C1238.26 23.1719 1237.98 23.5885 1237.62 23.9844C1237.27 24.3802 1236.84 24.7031 1236.34 24.9531C1235.84 25.1927 1235.26 25.3125 1234.61 25.3125C1233.66 25.3125 1232.81 25.1146 1232.08 24.7188C1231.34 24.3229 1230.75 23.7552 1230.33 23.0156C1229.91 22.2656 1229.7 21.3698 1229.7 20.3281C1229.7 19.4844 1229.84 18.7188 1230.12 18.0312C1230.4 17.3438 1230.82 16.7552 1231.37 16.2656C1231.92 15.7656 1232.62 15.3802 1233.45 15.1094C1234.29 14.8385 1235.28 14.7031 1236.4 14.7031H1238.42ZM1248.97 11.5312V25H1245.33V8.09375H1248.75L1248.97 11.5312ZM1248.37 15.9375H1247.14C1247.12 14.7604 1247.22 13.6771 1247.45 12.6875C1247.69 11.6979 1248.04 10.8333 1248.51 10.0938C1248.99 9.35417 1249.59 8.78646 1250.31 8.39062C1251.03 7.98438 1251.87 7.78125 1252.84 7.78125C1253.47 7.78125 1254.04 7.89583 1254.58 8.125C1255.12 8.34375 1255.59 8.69271 1255.98 9.17188C1256.39 9.65104 1256.7 10.2656 1256.92 11.0156C1257.14 11.7656 1257.25 12.6719 1257.25 13.7344V25H1253.61V14.0781C1253.61 13.2656 1253.51 12.6302 1253.33 12.1719C1253.15 11.7031 1252.89 11.3698 1252.54 11.1719C1252.2 10.974 1251.78 10.875 1251.29 10.875C1250.76 10.875 1250.31 11.0104 1249.93 11.2812C1249.56 11.5417 1249.26 11.9062 1249.03 12.375C1248.8 12.8333 1248.63 13.3698 1248.53 13.9844C1248.42 14.5885 1248.37 15.2396 1248.37 15.9375ZM1257.01 14.9688L1255.31 15.3594C1255.29 14.3281 1255.39 13.3594 1255.62 12.4531C1255.85 11.5365 1256.2 10.7292 1256.65 10.0312C1257.12 9.33333 1257.71 8.78646 1258.4 8.39062C1259.11 7.98438 1259.93 7.78125 1260.86 7.78125C1261.58 7.78125 1262.22 7.90104 1262.79 8.14062C1263.38 8.36979 1263.87 8.73438 1264.28 9.23438C1264.68 9.73438 1264.99 10.3854 1265.2 11.1875C1265.42 11.9792 1265.53 12.9427 1265.53 14.0781V25H1261.87V14.0625C1261.87 13.2188 1261.78 12.5677 1261.59 12.1094C1261.41 11.651 1261.15 11.3333 1260.81 11.1562C1260.47 10.9688 1260.05 10.875 1259.58 10.875C1259.16 10.875 1258.79 10.9844 1258.47 11.2031C1258.15 11.4115 1257.89 11.7031 1257.67 12.0781C1257.45 12.4531 1257.28 12.8906 1257.17 13.3906C1257.06 13.8802 1257.01 14.4062 1257.01 14.9688ZM1272.86 11.3438V31.5H1269.23V8.09375H1272.56L1272.86 11.3438ZM1281.95 15.875V17.2188C1281.95 18.5417 1281.83 19.7083 1281.59 20.7188C1281.35 21.7292 1281 22.5781 1280.53 23.2656C1280.07 23.9427 1279.5 24.4531 1278.83 24.7969C1278.15 25.1406 1277.36 25.3125 1276.45 25.3125C1275.6 25.3125 1274.85 25.125 1274.22 24.75C1273.59 24.375 1273.06 23.849 1272.64 23.1719C1272.21 22.4948 1271.87 21.6927 1271.61 20.7656C1271.36 19.8281 1271.17 18.8073 1271.06 17.7031V15.6406C1271.17 14.474 1271.35 13.4115 1271.59 12.4531C1271.84 11.4844 1272.18 10.651 1272.61 9.95312C1273.04 9.25521 1273.58 8.71875 1274.2 8.34375C1274.83 7.96875 1275.57 7.78125 1276.43 7.78125C1277.34 7.78125 1278.14 7.94271 1278.83 8.26562C1279.51 8.58854 1280.09 9.08333 1280.54 9.75C1281.01 10.4167 1281.36 11.2604 1281.59 12.2812C1281.83 13.2917 1281.95 14.4896 1281.95 15.875ZM1278.31 17.2188V15.875C1278.31 15.0104 1278.25 14.2656 1278.14 13.6406C1278.03 13.0052 1277.86 12.4844 1277.61 12.0781C1277.37 11.6719 1277.06 11.3698 1276.68 11.1719C1276.32 10.974 1275.87 10.875 1275.33 10.875C1274.85 10.875 1274.42 10.974 1274.06 11.1719C1273.7 11.3698 1273.39 11.6458 1273.14 12C1272.89 12.3438 1272.69 12.7552 1272.54 13.2344C1272.4 13.7031 1272.3 14.2135 1272.26 14.7656V18.5938C1272.36 19.2604 1272.51 19.875 1272.73 20.4375C1272.95 20.9896 1273.27 21.4323 1273.68 21.7656C1274.11 22.099 1274.67 22.2656 1275.36 22.2656C1275.89 22.2656 1276.34 22.1615 1276.72 21.9531C1277.09 21.7448 1277.39 21.4323 1277.62 21.0156C1277.86 20.599 1278.03 20.0781 1278.14 19.4531C1278.25 18.8177 1278.31 18.0729 1278.31 17.2188ZM1293.37 21.0156V8.09375H1297.01V25H1293.58L1293.37 21.0156ZM1293.89 17.4844L1295.04 17.4531C1295.04 18.5885 1294.94 19.6354 1294.73 20.5938C1294.52 21.5521 1294.2 22.3854 1293.76 23.0938C1293.34 23.7917 1292.78 24.3385 1292.09 24.7344C1291.41 25.1198 1290.6 25.3125 1289.65 25.3125C1288.96 25.3125 1288.31 25.1927 1287.73 24.9531C1287.16 24.7135 1286.66 24.3438 1286.25 23.8438C1285.84 23.3438 1285.52 22.6927 1285.29 21.8906C1285.06 21.0885 1284.95 20.1302 1284.95 19.0156V8.09375H1288.59V19.0469C1288.59 19.651 1288.64 20.1562 1288.75 20.5625C1288.85 20.9583 1289 21.2812 1289.18 21.5312C1289.37 21.7708 1289.58 21.9427 1289.81 22.0469C1290.05 22.1406 1290.3 22.1875 1290.58 22.1875C1291.4 22.1875 1292.05 21.9844 1292.53 21.5781C1293.02 21.1615 1293.37 20.599 1293.58 19.8906C1293.78 19.1823 1293.89 18.3802 1293.89 17.4844ZM1308.48 20.5469C1308.48 20.1927 1308.38 19.8802 1308.17 19.6094C1307.97 19.3281 1307.65 19.0521 1307.2 18.7812C1306.75 18.5104 1306.15 18.2188 1305.4 17.9062C1304.62 17.5833 1303.93 17.2604 1303.33 16.9375C1302.72 16.6146 1302.21 16.2604 1301.79 15.875C1301.38 15.4792 1301.06 15.026 1300.84 14.5156C1300.62 14.0052 1300.51 13.4115 1300.51 12.7344C1300.51 12.0365 1300.64 11.3906 1300.9 10.7969C1301.16 10.2031 1301.54 9.68229 1302.03 9.23438C1302.52 8.77604 1303.11 8.42188 1303.79 8.17188C1304.48 7.91146 1305.26 7.78125 1306.12 7.78125C1307.34 7.78125 1308.38 8.00521 1309.25 8.45312C1310.12 8.89062 1310.79 9.50521 1311.25 10.2969C1311.72 11.0781 1311.95 11.9792 1311.95 13H1308.31C1308.31 12.5729 1308.23 12.1875 1308.08 11.8438C1307.92 11.4896 1307.68 11.2083 1307.36 11C1307.03 10.7812 1306.62 10.6719 1306.12 10.6719C1305.66 10.6719 1305.28 10.7604 1304.97 10.9375C1304.66 11.1042 1304.43 11.3333 1304.28 11.625C1304.13 11.9062 1304.06 12.224 1304.06 12.5781C1304.06 12.8385 1304.11 13.0677 1304.2 13.2656C1304.29 13.4635 1304.45 13.6562 1304.67 13.8438C1304.89 14.0208 1305.18 14.2031 1305.54 14.3906C1305.92 14.5781 1306.39 14.7917 1306.97 15.0312C1308.1 15.4688 1309.04 15.9219 1309.79 16.3906C1310.54 16.8594 1311.11 17.4062 1311.48 18.0312C1311.86 18.6562 1312.04 19.4323 1312.04 20.3594C1312.04 21.1094 1311.9 21.7865 1311.62 22.3906C1311.35 22.9948 1310.96 23.5156 1310.43 23.9531C1309.92 24.3906 1309.3 24.7292 1308.58 24.9688C1307.86 25.1979 1307.05 25.3125 1306.17 25.3125C1304.85 25.3125 1303.73 25.0521 1302.81 24.5312C1301.9 24 1301.22 23.3177 1300.75 22.4844C1300.28 21.651 1300.04 20.7708 1300.04 19.8438H1303.56C1303.59 20.5104 1303.73 21.0312 1303.98 21.4062C1304.24 21.7812 1304.57 22.0417 1304.97 22.1875C1305.36 22.3229 1305.77 22.3906 1306.2 22.3906C1306.71 22.3906 1307.13 22.3229 1307.47 22.1875C1307.8 22.0417 1308.05 21.8281 1308.22 21.5469C1308.39 21.2656 1308.48 20.9323 1308.48 20.5469ZM1330.4 16.5625H1325.61V13.3906H1330.4C1331.18 13.3906 1331.81 13.224 1332.29 12.8906C1332.78 12.5573 1333.14 12.099 1333.36 11.5156C1333.59 10.9323 1333.7 10.2708 1333.7 9.53125C1333.7 8.82292 1333.59 8.15625 1333.36 7.53125C1333.14 6.90625 1332.79 6.40104 1332.31 6.01562C1331.83 5.63021 1331.2 5.4375 1330.4 5.4375H1326.67V25H1322.89V2.25H1330.4C1331.9 2.25 1333.18 2.5625 1334.25 3.1875C1335.31 3.8125 1336.12 4.67188 1336.68 5.76562C1337.25 6.84896 1337.53 8.09375 1337.53 9.5C1337.53 10.9688 1337.25 12.2292 1336.68 13.2812C1336.12 14.3333 1335.31 15.1458 1334.25 15.7188C1333.18 16.2812 1331.9 16.5625 1330.4 16.5625ZM1348.25 21.5625V13.1406C1348.25 12.5573 1348.16 12.0885 1348 11.7344C1347.84 11.3802 1347.61 11.125 1347.29 10.9688C1346.99 10.8021 1346.61 10.7188 1346.15 10.7188C1345.67 10.7188 1345.27 10.8177 1344.93 11.0156C1344.61 11.2135 1344.37 11.4844 1344.2 11.8281C1344.03 12.1615 1343.95 12.5469 1343.95 12.9844H1340.31C1340.31 12.3073 1340.45 11.6562 1340.72 11.0312C1341 10.4062 1341.4 9.84896 1341.92 9.35938C1342.44 8.86979 1343.07 8.48438 1343.81 8.20312C1344.55 7.92188 1345.37 7.78125 1346.28 7.78125C1347.36 7.78125 1348.33 7.96354 1349.17 8.32812C1350.01 8.68229 1350.67 9.26042 1351.15 10.0625C1351.64 10.8542 1351.89 11.8958 1351.89 13.1875V21.0781C1351.89 21.8594 1351.93 22.5573 1352.03 23.1719C1352.13 23.776 1352.27 24.3021 1352.45 24.75V25H1348.75C1348.58 24.5938 1348.46 24.0729 1348.37 23.4375C1348.29 22.8021 1348.25 22.1771 1348.25 21.5625ZM1348.73 14.7031L1348.75 17.0625H1347C1346.48 17.0625 1346.01 17.1354 1345.59 17.2812C1345.17 17.4167 1344.82 17.6146 1344.53 17.875C1344.25 18.125 1344.03 18.4323 1343.87 18.7969C1343.73 19.1615 1343.65 19.5625 1343.65 20C1343.65 20.5312 1343.73 20.9635 1343.87 21.2969C1344.03 21.6302 1344.25 21.8802 1344.54 22.0469C1344.85 22.2031 1345.21 22.2812 1345.64 22.2812C1346.22 22.2812 1346.73 22.1562 1347.15 21.9062C1347.59 21.6458 1347.92 21.3333 1348.15 20.9688C1348.39 20.6042 1348.49 20.2708 1348.43 19.9688L1349.26 21.4844C1349.18 21.8802 1349.02 22.2969 1348.79 22.7344C1348.58 23.1719 1348.29 23.5885 1347.93 23.9844C1347.58 24.3802 1347.15 24.7031 1346.65 24.9531C1346.15 25.1927 1345.58 25.3125 1344.92 25.3125C1343.97 25.3125 1343.13 25.1146 1342.39 24.7188C1341.65 24.3229 1341.06 23.7552 1340.64 23.0156C1340.22 22.2656 1340.01 21.3698 1340.01 20.3281C1340.01 19.4844 1340.15 18.7188 1340.43 18.0312C1340.72 17.3438 1341.13 16.7552 1341.68 16.2656C1342.24 15.7656 1342.93 15.3802 1343.76 15.1094C1344.61 14.8385 1345.59 14.7031 1346.72 14.7031H1348.73ZM1362.45 8.09375V10.9062H1354.15V8.09375H1362.45ZM1356.42 3.95312H1360.04V20.2812C1360.04 20.8021 1360.1 21.1979 1360.22 21.4688C1360.33 21.7396 1360.49 21.9219 1360.7 22.0156C1360.91 22.1094 1361.15 22.1562 1361.43 22.1562C1361.64 22.1562 1361.85 22.1406 1362.04 22.1094C1362.25 22.0677 1362.4 22.0312 1362.5 22V24.9375C1362.23 25.0417 1361.91 25.1302 1361.56 25.2031C1361.21 25.276 1360.78 25.3125 1360.28 25.3125C1359.54 25.3125 1358.88 25.1615 1358.29 24.8594C1357.71 24.5469 1357.25 24.0417 1356.92 23.3438C1356.59 22.6354 1356.42 21.6979 1356.42 20.5312V3.95312ZM1368.92 11.3594V25H1365.28V8.09375H1368.75L1368.92 11.3594ZM1373 7.98438L1372.98 11.5781C1372.77 11.526 1372.55 11.4948 1372.31 11.4844C1372.08 11.4635 1371.85 11.4531 1371.62 11.4531C1371.12 11.4531 1370.69 11.5417 1370.33 11.7188C1369.96 11.8958 1369.65 12.151 1369.4 12.4844C1369.15 12.8177 1368.96 13.2188 1368.81 13.6875C1368.67 14.1562 1368.59 14.6875 1368.56 15.2812L1367.78 15.3125C1367.78 14.25 1367.86 13.2656 1368.03 12.3594C1368.2 11.4427 1368.45 10.6458 1368.78 9.96875C1369.12 9.28125 1369.55 8.74479 1370.06 8.35938C1370.57 7.97396 1371.16 7.78125 1371.84 7.78125C1372.03 7.78125 1372.24 7.80208 1372.48 7.84375C1372.72 7.88542 1372.89 7.93229 1373 7.98438ZM1374.5 17.2344V15.875C1374.5 14.5625 1374.66 13.401 1374.98 12.3906C1375.3 11.3802 1375.76 10.5365 1376.36 9.85938C1376.96 9.17188 1377.67 8.65625 1378.48 8.3125C1379.29 7.95833 1380.19 7.78125 1381.17 7.78125C1382.17 7.78125 1383.08 7.95833 1383.89 8.3125C1384.71 8.65625 1385.42 9.17188 1386.01 9.85938C1386.62 10.5365 1387.08 11.3802 1387.4 12.3906C1387.73 13.401 1387.89 14.5625 1387.89 15.875V17.2344C1387.89 18.5469 1387.73 19.7083 1387.4 20.7188C1387.08 21.7292 1386.62 22.5781 1386.01 23.2656C1385.42 23.9427 1384.72 24.4531 1383.9 24.7969C1383.09 25.1406 1382.19 25.3125 1381.2 25.3125C1380.22 25.3125 1379.32 25.1406 1378.5 24.7969C1377.68 24.4531 1376.98 23.9427 1376.37 23.2656C1375.77 22.5781 1375.3 21.7292 1374.98 20.7188C1374.66 19.7083 1374.5 18.5469 1374.5 17.2344ZM1378.14 15.875V17.2344C1378.14 18.0781 1378.21 18.8177 1378.36 19.4531C1378.5 20.0781 1378.71 20.599 1378.98 21.0156C1379.25 21.4323 1379.58 21.7448 1379.95 21.9531C1380.33 22.1615 1380.74 22.2656 1381.2 22.2656C1381.71 22.2656 1382.15 22.1615 1382.53 21.9531C1382.91 21.7448 1383.23 21.4323 1383.48 21.0156C1383.74 20.599 1383.93 20.0781 1384.06 19.4531C1384.18 18.8177 1384.25 18.0781 1384.25 17.2344V15.875C1384.25 15.0417 1384.17 14.3125 1384.03 13.6875C1383.88 13.0521 1383.67 12.526 1383.4 12.1094C1383.13 11.6823 1382.8 11.3646 1382.42 11.1562C1382.04 10.9479 1381.63 10.8438 1381.17 10.8438C1380.72 10.8438 1380.31 10.9479 1379.93 11.1562C1379.57 11.3646 1379.25 11.6823 1378.98 12.1094C1378.71 12.526 1378.5 13.0521 1378.36 13.6875C1378.21 14.3125 1378.14 15.0417 1378.14 15.875ZM1397.03 22.2656C1397.5 22.2656 1397.91 22.1667 1398.28 21.9688C1398.65 21.7708 1398.95 21.4635 1399.17 21.0469C1399.39 20.6198 1399.51 20.0677 1399.53 19.3906H1402.95C1402.93 20.5885 1402.65 21.6354 1402.12 22.5312C1401.59 23.4167 1400.88 24.1042 1400 24.5938C1399.12 25.0729 1398.15 25.3125 1397.08 25.3125C1395.96 25.3125 1394.99 25.1354 1394.15 24.7812C1393.33 24.4167 1392.65 23.8906 1392.11 23.2031C1391.56 22.5156 1391.16 21.6823 1390.89 20.7031C1390.63 19.7135 1390.5 18.5833 1390.5 17.3125V15.7812C1390.5 14.5208 1390.63 13.3958 1390.89 12.4062C1391.16 11.4167 1391.56 10.5781 1392.11 9.89062C1392.65 9.20312 1393.33 8.68229 1394.15 8.32812C1394.98 7.96354 1395.95 7.78125 1397.06 7.78125C1398.25 7.78125 1399.27 8.03125 1400.14 8.53125C1401.01 9.02083 1401.7 9.73958 1402.18 10.6875C1402.67 11.6354 1402.93 12.7969 1402.95 14.1719H1399.53C1399.51 13.4427 1399.4 12.8333 1399.2 12.3438C1399 11.8438 1398.72 11.4688 1398.36 11.2188C1398 10.9688 1397.55 10.8438 1397.01 10.8438C1396.42 10.8438 1395.93 10.9583 1395.54 11.1875C1395.17 11.4062 1394.88 11.7292 1394.67 12.1562C1394.47 12.5833 1394.33 13.1042 1394.25 13.7188C1394.17 14.3229 1394.14 15.0104 1394.14 15.7812V17.3125C1394.14 18.1042 1394.17 18.8073 1394.25 19.4219C1394.32 20.026 1394.46 20.5417 1394.65 20.9688C1394.86 21.3958 1395.16 21.7188 1395.54 21.9375C1395.93 22.1562 1396.42 22.2656 1397.03 22.2656ZM1409.64 8.09375V25H1406V8.09375H1409.64ZM1405.81 3.67188C1405.81 3.08854 1405.99 2.60417 1406.34 2.21875C1406.7 1.82292 1407.19 1.625 1407.83 1.625C1408.46 1.625 1408.96 1.82292 1409.31 2.21875C1409.66 2.60417 1409.84 3.08854 1409.84 3.67188C1409.84 4.23438 1409.66 4.70833 1409.31 5.09375C1408.96 5.47917 1408.46 5.67188 1407.83 5.67188C1407.19 5.67188 1406.7 5.47917 1406.34 5.09375C1405.99 4.70833 1405.81 4.23438 1405.81 3.67188ZM1417.12 11.7031V25H1413.48V8.09375H1416.9L1417.12 11.7031ZM1416.47 15.9375H1415.31C1415.3 14.7188 1415.43 13.6094 1415.7 12.6094C1415.97 11.6094 1416.36 10.75 1416.86 10.0312C1417.37 9.3125 1417.97 8.76042 1418.67 8.375C1419.38 7.97917 1420.16 7.78125 1421.03 7.78125C1421.7 7.78125 1422.3 7.89583 1422.86 8.125C1423.42 8.34375 1423.9 8.70312 1424.29 9.20312C1424.69 9.70312 1424.99 10.3542 1425.2 11.1562C1425.42 11.9583 1425.53 12.9375 1425.53 14.0938V25H1421.89V14.0625C1421.89 13.2708 1421.8 12.6458 1421.62 12.1875C1421.46 11.7188 1421.21 11.3854 1420.87 11.1875C1420.54 10.9792 1420.12 10.875 1419.61 10.875C1419.14 10.875 1418.71 11.0104 1418.31 11.2812C1417.92 11.5417 1417.59 11.9062 1417.31 12.375C1417.04 12.8333 1416.83 13.3698 1416.68 13.9844C1416.54 14.5885 1416.47 15.2396 1416.47 15.9375ZM1433.04 8.09375V25H1429.4V8.09375H1433.04ZM1429.22 3.67188C1429.22 3.08854 1429.39 2.60417 1429.75 2.21875C1430.1 1.82292 1430.6 1.625 1431.23 1.625C1431.87 1.625 1432.36 1.82292 1432.72 2.21875C1433.07 2.60417 1433.25 3.08854 1433.25 3.67188C1433.25 4.23438 1433.07 4.70833 1432.72 5.09375C1432.36 5.47917 1431.87 5.67188 1431.23 5.67188C1430.6 5.67188 1430.1 5.47917 1429.75 5.09375C1429.39 4.70833 1429.22 4.23438 1429.22 3.67188ZM1436.4 17.2344V15.875C1436.4 14.5625 1436.56 13.401 1436.89 12.3906C1437.21 11.3802 1437.67 10.5365 1438.26 9.85938C1438.87 9.17188 1439.58 8.65625 1440.39 8.3125C1441.2 7.95833 1442.1 7.78125 1443.08 7.78125C1444.08 7.78125 1444.98 7.95833 1445.79 8.3125C1446.62 8.65625 1447.33 9.17188 1447.92 9.85938C1448.52 10.5365 1448.99 11.3802 1449.31 12.3906C1449.63 13.401 1449.79 14.5625 1449.79 15.875V17.2344C1449.79 18.5469 1449.63 19.7083 1449.31 20.7188C1448.99 21.7292 1448.52 22.5781 1447.92 23.2656C1447.33 23.9427 1446.62 24.4531 1445.81 24.7969C1445 25.1406 1444.1 25.3125 1443.11 25.3125C1442.13 25.3125 1441.23 25.1406 1440.4 24.7969C1439.59 24.4531 1438.88 23.9427 1438.28 23.2656C1437.67 22.5781 1437.21 21.7292 1436.89 20.7188C1436.56 19.7083 1436.4 18.5469 1436.4 17.2344ZM1440.04 15.875V17.2344C1440.04 18.0781 1440.12 18.8177 1440.26 19.4531C1440.41 20.0781 1440.62 20.599 1440.89 21.0156C1441.16 21.4323 1441.48 21.7448 1441.86 21.9531C1442.23 22.1615 1442.65 22.2656 1443.11 22.2656C1443.62 22.2656 1444.06 22.1615 1444.43 21.9531C1444.82 21.7448 1445.14 21.4323 1445.39 21.0156C1445.65 20.599 1445.84 20.0781 1445.97 19.4531C1446.09 18.8177 1446.15 18.0781 1446.15 17.2344V15.875C1446.15 15.0417 1446.08 14.3125 1445.93 13.6875C1445.79 13.0521 1445.58 12.526 1445.31 12.1094C1445.04 11.6823 1444.71 11.3646 1444.33 11.1562C1443.95 10.9479 1443.53 10.8438 1443.08 10.8438C1442.63 10.8438 1442.22 10.9479 1441.84 11.1562C1441.48 11.3646 1441.16 11.6823 1440.89 12.1094C1440.62 12.526 1440.41 13.0521 1440.26 13.6875C1440.12 14.3125 1440.04 15.0417 1440.04 15.875ZM1466.93 13.75V16.8125H1459.86V13.75H1466.93ZM1479.18 2.25H1482.64L1487.87 19.1719L1493.09 2.25H1496.29L1489.29 25H1486.43L1479.18 2.25ZM1477.89 2.25H1481.08L1481.59 16.7344V25H1477.89V2.25ZM1494.64 2.25H1497.84V25H1494.14V16.7344L1494.64 2.25ZM1517 13.3281V22.2969C1516.72 22.6406 1516.29 23.0521 1515.72 23.5312C1515.15 24 1514.39 24.4167 1513.43 24.7812C1512.49 25.1354 1511.29 25.3125 1509.84 25.3125C1508.62 25.3125 1507.51 25.1146 1506.5 24.7188C1505.5 24.3229 1504.64 23.724 1503.92 22.9219C1503.2 22.1198 1502.65 21.1198 1502.26 19.9219C1501.88 18.7135 1501.68 17.2865 1501.68 15.6406V11.5938C1501.68 9.96875 1501.86 8.55208 1502.2 7.34375C1502.55 6.13542 1503.07 5.13021 1503.75 4.32812C1504.42 3.51562 1505.25 2.91667 1506.22 2.53125C1507.18 2.13542 1508.3 1.9375 1509.56 1.9375C1511.15 1.9375 1512.48 2.21875 1513.54 2.78125C1514.62 3.33333 1515.43 4.15625 1516 5.25C1516.57 6.33333 1516.9 7.65625 1517 9.21875H1513.29C1513.21 8.26042 1513.03 7.48438 1512.75 6.89062C1512.48 6.28646 1512.09 5.83854 1511.58 5.54688C1511.06 5.25521 1510.41 5.10938 1509.61 5.10938C1508.88 5.10938 1508.25 5.23438 1507.73 5.48438C1507.21 5.73438 1506.78 6.125 1506.45 6.65625C1506.12 7.17708 1505.87 7.84375 1505.72 8.65625C1505.56 9.46875 1505.48 10.4375 1505.48 11.5625V15.6406C1505.48 16.7865 1505.58 17.7708 1505.78 18.5938C1505.98 19.4167 1506.26 20.0938 1506.64 20.625C1507.02 21.1458 1507.5 21.5312 1508.06 21.7812C1508.62 22.0208 1509.26 22.1406 1509.98 22.1406C1510.69 22.1406 1511.25 22.0677 1511.67 21.9219C1512.09 21.776 1512.41 21.6146 1512.64 21.4375C1512.88 21.25 1513.07 21.1042 1513.22 21V16.3125H1509.54V13.3281H1517Z" fill="white"/>
</svg>
