<svg width="1111" height="25" viewBox="0 0 1111 25" fill="none" xmlns="http://www.w3.org/2000/svg">
<path d="M0.434659 20V5.45455H5.8892C7.00663 5.45455 7.94413 5.64867 8.7017 6.03693C9.46402 6.42519 10.0393 6.9697 10.4276 7.67045C10.8205 8.36648 11.017 9.1785 11.017 10.1065C11.017 11.0393 10.8182 11.849 10.4205 12.5355C10.0275 13.2173 9.44744 13.7453 8.6804 14.1193C7.91335 14.4886 6.97112 14.6733 5.85369 14.6733H1.96875V12.4858H5.49858C6.15199 12.4858 6.68703 12.3958 7.10369 12.2159C7.52036 12.0312 7.82813 11.7637 8.02699 11.4134C8.23059 11.0582 8.33239 10.6226 8.33239 10.1065C8.33239 9.59044 8.23059 9.15009 8.02699 8.78551C7.82339 8.41619 7.51326 8.13684 7.09659 7.94744C6.67992 7.75331 6.14252 7.65625 5.48438 7.65625H3.0696V20H0.434659ZM7.94886 13.4091L11.5497 20H8.60938L5.07244 13.4091H7.94886ZM14.4425 20V5.45455H23.9027V7.66335H17.0774V11.6122H23.4126V13.821H17.0774V17.7912H23.9595V20H14.4425ZM35.4957 9.45312C35.4295 8.83286 35.1501 8.34991 34.6577 8.00426C34.17 7.65862 33.5355 7.4858 32.7543 7.4858C32.205 7.4858 31.7339 7.56866 31.3409 7.73438C30.9479 7.90009 30.6473 8.125 30.4389 8.40909C30.2306 8.69318 30.1241 9.01752 30.1193 9.3821C30.1193 9.68513 30.188 9.94792 30.3253 10.1705C30.4673 10.393 30.6591 10.5824 30.9006 10.7386C31.142 10.8902 31.4096 11.018 31.7031 11.1222C31.9967 11.2263 32.2926 11.3139 32.5909 11.3849L33.9545 11.7259C34.5038 11.8537 35.0317 12.0265 35.5384 12.2443C36.0497 12.4621 36.5066 12.7367 36.9091 13.0682C37.3163 13.3996 37.6383 13.7997 37.875 14.2685C38.1117 14.7372 38.2301 15.2865 38.2301 15.9162C38.2301 16.7685 38.0123 17.5189 37.5767 18.1676C37.1411 18.8116 36.5114 19.3158 35.6875 19.6804C34.8684 20.0402 33.8764 20.2202 32.7116 20.2202C31.58 20.2202 30.5975 20.045 29.7642 19.6946C28.9356 19.3442 28.2869 18.8329 27.8182 18.1605C27.3542 17.4882 27.1032 16.669 27.0653 15.7031H29.6577C29.6955 16.2098 29.8518 16.6312 30.1264 16.9673C30.401 17.3035 30.7585 17.5545 31.1989 17.7202C31.6439 17.8859 32.1411 17.9688 32.6903 17.9688C33.2633 17.9688 33.7652 17.8835 34.196 17.7131C34.6316 17.5379 34.9725 17.2964 35.2188 16.9886C35.465 16.6761 35.5904 16.3116 35.5952 15.8949C35.5904 15.5161 35.4792 15.2036 35.2614 14.9574C35.0436 14.7064 34.7382 14.4981 34.3452 14.3324C33.9569 14.1619 33.5024 14.0104 32.9815 13.8778L31.3267 13.4517C30.1288 13.1439 29.1818 12.6776 28.4858 12.0526C27.7945 11.4228 27.4489 10.5871 27.4489 9.54545C27.4489 8.68845 27.6809 7.93797 28.1449 7.29403C28.6136 6.65009 29.2505 6.15057 30.0554 5.79545C30.8603 5.43561 31.7718 5.25568 32.7898 5.25568C33.822 5.25568 34.7263 5.43561 35.5028 5.79545C36.2841 6.15057 36.8973 6.64536 37.3423 7.27983C37.7874 7.90956 38.017 8.634 38.0312 9.45312H35.4957ZM54.5763 12.7273C54.5763 14.2945 54.2828 15.6368 53.6957 16.7543C53.1133 17.867 52.3178 18.7192 51.3093 19.3111C50.3055 19.9029 49.1668 20.1989 47.8931 20.1989C46.6194 20.1989 45.4783 19.9029 44.4698 19.3111C43.466 18.7145 42.6706 17.8598 42.0835 16.7472C41.5011 15.6297 41.2099 14.2898 41.2099 12.7273C41.2099 11.16 41.5011 9.82008 42.0835 8.70739C42.6706 7.58996 43.466 6.73532 44.4698 6.14347C45.4783 5.55161 46.6194 5.25568 47.8931 5.25568C49.1668 5.25568 50.3055 5.55161 51.3093 6.14347C52.3178 6.73532 53.1133 7.58996 53.6957 8.70739C54.2828 9.82008 54.5763 11.16 54.5763 12.7273ZM51.9272 12.7273C51.9272 11.6241 51.7544 10.6937 51.4087 9.93608C51.0678 9.17377 50.5943 8.59848 49.9883 8.21023C49.3822 7.81723 48.6838 7.62074 47.8931 7.62074C47.1024 7.62074 46.404 7.81723 45.7979 8.21023C45.1919 8.59848 44.716 9.17377 44.3704 9.93608C44.0295 10.6937 43.859 11.6241 43.859 12.7273C43.859 13.8305 44.0295 14.7633 44.3704 15.5256C44.716 16.2831 45.1919 16.8584 45.7979 17.2514C46.404 17.6397 47.1024 17.8338 47.8931 17.8338C48.6838 17.8338 49.3822 17.6397 49.9883 17.2514C50.5943 16.8584 51.0678 16.2831 51.4087 15.5256C51.7544 14.7633 51.9272 13.8305 51.9272 12.7273ZM58.0675 20V5.45455H60.7024V17.7912H67.1087V20H58.0675ZM70.8377 5.45455L74.6232 16.9034H74.7724L78.5508 5.45455H81.4485L76.3207 20H73.0678L67.9471 5.45455H70.8377ZM84.533 20H81.7205L86.8413 5.45455H90.0941L95.2219 20H92.4094L88.5245 8.4375H88.4109L84.533 20ZM84.6254 14.2969H92.2958V16.4134H84.6254V14.2969ZM113.268 5.45455H115.903V14.9574C115.903 15.9991 115.656 16.9152 115.164 17.706C114.676 18.4967 113.99 19.1146 113.104 19.5597C112.219 20 111.184 20.2202 110.001 20.2202C108.812 20.2202 107.775 20 106.89 19.5597C106.004 19.1146 105.318 18.4967 104.83 17.706C104.343 16.9152 104.099 15.9991 104.099 14.9574V5.45455H106.734V14.7372C106.734 15.3433 106.866 15.883 107.131 16.3565C107.401 16.83 107.78 17.2017 108.268 17.4716C108.755 17.7367 109.333 17.8693 110.001 17.8693C110.668 17.8693 111.246 17.7367 111.734 17.4716C112.226 17.2017 112.605 16.83 112.87 16.3565C113.135 15.883 113.268 15.3433 113.268 14.7372V5.45455ZM119.767 5.45455H122.991L127.309 15.9943H127.48L131.798 5.45455H135.022V20H132.494V10.0071H132.359L128.339 19.9574H126.45L122.43 9.9858H122.295V20H119.767V5.45455ZM140.76 20H137.947L143.068 5.45455H146.321L151.449 20H148.636L144.751 8.4375H144.637L140.76 20ZM140.852 14.2969H148.522V16.4134H140.852V14.2969ZM168.23 9.45312C168.164 8.83286 167.884 8.34991 167.392 8.00426C166.904 7.65862 166.27 7.4858 165.489 7.4858C164.939 7.4858 164.468 7.56866 164.075 7.73438C163.682 7.90009 163.382 8.125 163.173 8.40909C162.965 8.69318 162.858 9.01752 162.854 9.3821C162.854 9.68513 162.922 9.94792 163.06 10.1705C163.202 10.393 163.393 10.5824 163.635 10.7386C163.876 10.8902 164.144 11.018 164.438 11.1222C164.731 11.2263 165.027 11.3139 165.325 11.3849L166.689 11.7259C167.238 11.8537 167.766 12.0265 168.273 12.2443C168.784 12.4621 169.241 12.7367 169.643 13.0682C170.051 13.3996 170.373 13.7997 170.609 14.2685C170.846 14.7372 170.964 15.2865 170.964 15.9162C170.964 16.7685 170.747 17.5189 170.311 18.1676C169.875 18.8116 169.246 19.3158 168.422 19.6804C167.603 20.0402 166.611 20.2202 165.446 20.2202C164.314 20.2202 163.332 20.045 162.499 19.6946C161.67 19.3442 161.021 18.8329 160.553 18.1605C160.089 17.4882 159.838 16.669 159.8 15.7031H162.392C162.43 16.2098 162.586 16.6312 162.861 16.9673C163.135 17.3035 163.493 17.5545 163.933 17.7202C164.378 17.8859 164.875 17.9688 165.425 17.9688C165.998 17.9688 166.5 17.8835 166.93 17.7131C167.366 17.5379 167.707 17.2964 167.953 16.9886C168.199 16.6761 168.325 16.3116 168.33 15.8949C168.325 15.5161 168.214 15.2036 167.996 14.9574C167.778 14.7064 167.473 14.4981 167.08 14.3324C166.691 14.1619 166.237 14.0104 165.716 13.8778L164.061 13.4517C162.863 13.1439 161.916 12.6776 161.22 12.0526C160.529 11.4228 160.183 10.5871 160.183 9.54545C160.183 8.68845 160.415 7.93797 160.879 7.29403C161.348 6.65009 161.985 6.15057 162.79 5.79545C163.595 5.43561 164.506 5.25568 165.524 5.25568C166.556 5.25568 167.461 5.43561 168.237 5.79545C169.018 6.15057 169.632 6.64536 170.077 7.27983C170.522 7.90956 170.751 8.634 170.766 9.45312H168.23ZM174.314 20V5.45455H183.774V7.66335H176.949V11.6122H183.284V13.821H176.949V17.7912H183.831V20H174.314ZM178.064 4.01989L179.654 0.774148H182.169L179.988 4.01989H178.064ZM187.462 20V5.45455H192.917C194.034 5.45455 194.971 5.64867 195.729 6.03693C196.491 6.42519 197.067 6.9697 197.455 7.67045C197.848 8.36648 198.044 9.1785 198.044 10.1065C198.044 11.0393 197.846 11.849 197.448 12.5355C197.055 13.2173 196.475 13.7453 195.708 14.1193C194.941 14.4886 193.998 14.6733 192.881 14.6733H188.996V12.4858H192.526C193.179 12.4858 193.714 12.3958 194.131 12.2159C194.548 12.0312 194.855 11.7637 195.054 11.4134C195.258 11.0582 195.36 10.6226 195.36 10.1065C195.36 9.59044 195.258 9.15009 195.054 8.78551C194.851 8.41619 194.541 8.13684 194.124 7.94744C193.707 7.75331 193.17 7.65625 192.512 7.65625H190.097V20H187.462ZM194.976 13.4091L198.577 20H195.637L192.1 13.4091H194.976ZM204.105 5.45455V20H201.47V5.45455H204.105ZM207.958 20V5.45455H217.418V7.66335H210.593V11.6122H216.928V13.821H210.593V17.7912H217.475V20H207.958ZM231.996 20H227.067V5.45455H232.096C233.54 5.45455 234.781 5.74574 235.817 6.32812C236.859 6.90578 237.659 7.73674 238.218 8.82102C238.777 9.9053 239.056 11.2027 239.056 12.7131C239.056 14.2282 238.774 15.5303 238.211 16.6193C237.652 17.7083 236.845 18.544 235.789 19.1264C234.738 19.7088 233.474 20 231.996 20ZM229.702 17.7202H231.869C232.882 17.7202 233.727 17.5355 234.404 17.1662C235.081 16.7921 235.59 16.2358 235.931 15.4972C236.272 14.7538 236.442 13.8258 236.442 12.7131C236.442 11.6004 236.272 10.6771 235.931 9.94318C235.59 9.20455 235.086 8.65294 234.418 8.28835C233.755 7.91903 232.932 7.73438 231.947 7.73438H229.702V17.7202ZM242.56 20V5.45455H252.02V7.66335H245.195V11.6122H251.53V13.821H245.195V17.7912H252.077V20H242.56ZM266.598 20H261.669V5.45455H266.697C268.142 5.45455 269.382 5.74574 270.419 6.32812C271.461 6.90578 272.261 7.73674 272.82 8.82102C273.378 9.9053 273.658 11.2027 273.658 12.7131C273.658 14.2282 273.376 15.5303 272.812 16.6193C272.254 17.7083 271.446 18.544 270.391 19.1264C269.339 19.7088 268.075 20 266.598 20ZM264.304 17.7202H266.47C267.483 17.7202 268.329 17.5355 269.006 17.1662C269.683 16.7921 270.192 16.2358 270.533 15.4972C270.874 14.7538 271.044 13.8258 271.044 12.7131C271.044 11.6004 270.874 10.6771 270.533 9.94318C270.192 9.20455 269.688 8.65294 269.02 8.28835C268.357 7.91903 267.533 7.73438 266.548 7.73438H264.304V17.7202ZM277.161 20V5.45455H286.621V7.66335H279.796V11.6122H286.131V13.821H279.796V17.7912H286.678V20H277.161ZM298.214 9.45312C298.148 8.83286 297.869 8.34991 297.376 8.00426C296.889 7.65862 296.254 7.4858 295.473 7.4858C294.924 7.4858 294.453 7.56866 294.06 7.73438C293.667 7.90009 293.366 8.125 293.158 8.40909C292.949 8.69318 292.843 9.01752 292.838 9.3821C292.838 9.68513 292.907 9.94792 293.044 10.1705C293.186 10.393 293.378 10.5824 293.619 10.7386C293.861 10.8902 294.128 11.018 294.422 11.1222C294.715 11.2263 295.011 11.3139 295.31 11.3849L296.673 11.7259C297.223 11.8537 297.75 12.0265 298.257 12.2443C298.768 12.4621 299.225 12.7367 299.628 13.0682C300.035 13.3996 300.357 13.7997 300.594 14.2685C300.83 14.7372 300.949 15.2865 300.949 15.9162C300.949 16.7685 300.731 17.5189 300.295 18.1676C299.86 18.8116 299.23 19.3158 298.406 19.6804C297.587 20.0402 296.595 20.2202 295.43 20.2202C294.299 20.2202 293.316 20.045 292.483 19.6946C291.654 19.3442 291.006 18.8329 290.537 18.1605C290.073 17.4882 289.822 16.669 289.784 15.7031H292.376C292.414 16.2098 292.571 16.6312 292.845 16.9673C293.12 17.3035 293.477 17.5545 293.918 17.7202C294.363 17.8859 294.86 17.9688 295.409 17.9688C295.982 17.9688 296.484 17.8835 296.915 17.7131C297.35 17.5379 297.691 17.2964 297.938 16.9886C298.184 16.6761 298.309 16.3116 298.314 15.8949C298.309 15.5161 298.198 15.2036 297.98 14.9574C297.762 14.7064 297.457 14.4981 297.064 14.3324C296.676 14.1619 296.221 14.0104 295.7 13.8778L294.045 13.4517C292.848 13.1439 291.901 12.6776 291.205 12.0526C290.513 11.4228 290.168 10.5871 290.168 9.54545C290.168 8.68845 290.4 7.93797 290.864 7.29403C291.332 6.65009 291.969 6.15057 292.774 5.79545C293.579 5.43561 294.491 5.25568 295.509 5.25568C296.541 5.25568 297.445 5.43561 298.222 5.79545C299.003 6.15057 299.616 6.64536 300.061 7.27983C300.506 7.90956 300.736 8.634 300.75 9.45312H298.214ZM305.931 20H303.119L308.24 5.45455H311.493L316.62 20H313.808L309.923 8.4375H309.809L305.931 20ZM306.024 14.2969H313.694V16.4134H306.024V14.2969ZM319.536 20V5.45455H328.854V7.66335H322.171V11.6122H328.215V13.821H322.171V20H319.536ZM334.89 5.45455V20H332.255V5.45455H334.89ZM351.74 12.7273C351.74 14.2945 351.447 15.6368 350.86 16.7543C350.277 17.867 349.482 18.7192 348.473 19.3111C347.47 19.9029 346.331 20.1989 345.057 20.1989C343.783 20.1989 342.642 19.9029 341.634 19.3111C340.63 18.7145 339.835 17.8598 339.248 16.7472C338.665 15.6297 338.374 14.2898 338.374 12.7273C338.374 11.16 338.665 9.82008 339.248 8.70739C339.835 7.58996 340.63 6.73532 341.634 6.14347C342.642 5.55161 343.783 5.25568 345.057 5.25568C346.331 5.25568 347.47 5.55161 348.473 6.14347C349.482 6.73532 350.277 7.58996 350.86 8.70739C351.447 9.82008 351.74 11.16 351.74 12.7273ZM349.091 12.7273C349.091 11.6241 348.918 10.6937 348.573 9.93608C348.232 9.17377 347.758 8.59848 347.152 8.21023C346.546 7.81723 345.848 7.62074 345.057 7.62074C344.266 7.62074 343.568 7.81723 342.962 8.21023C342.356 8.59848 341.88 9.17377 341.534 9.93608C341.194 10.6937 341.023 11.6241 341.023 12.7273C341.023 13.8305 341.194 14.7633 341.534 15.5256C341.88 16.2831 342.356 16.8584 342.962 17.2514C343.568 17.6397 344.266 17.8338 345.057 17.8338C345.848 17.8338 346.546 17.6397 347.152 17.2514C347.758 16.8584 348.232 16.2831 348.573 15.5256C348.918 14.7633 349.091 13.8305 349.091 12.7273ZM363.136 9.45312C363.07 8.83286 362.791 8.34991 362.298 8.00426C361.811 7.65862 361.176 7.4858 360.395 7.4858C359.846 7.4858 359.375 7.56866 358.982 7.73438C358.589 7.90009 358.288 8.125 358.08 8.40909C357.871 8.69318 357.765 9.01752 357.76 9.3821C357.76 9.68513 357.829 9.94792 357.966 10.1705C358.108 10.393 358.3 10.5824 358.541 10.7386C358.783 10.8902 359.05 11.018 359.344 11.1222C359.637 11.2263 359.933 11.3139 360.232 11.3849L361.595 11.7259C362.144 11.8537 362.672 12.0265 363.179 12.2443C363.69 12.4621 364.147 12.7367 364.55 13.0682C364.957 13.3996 365.279 13.7997 365.516 14.2685C365.752 14.7372 365.871 15.2865 365.871 15.9162C365.871 16.7685 365.653 17.5189 365.217 18.1676C364.782 18.8116 364.152 19.3158 363.328 19.6804C362.509 20.0402 361.517 20.2202 360.352 20.2202C359.221 20.2202 358.238 20.045 357.405 19.6946C356.576 19.3442 355.928 18.8329 355.459 18.1605C354.995 17.4882 354.744 16.669 354.706 15.7031H357.298C357.336 16.2098 357.492 16.6312 357.767 16.9673C358.042 17.3035 358.399 17.5545 358.839 17.7202C359.285 17.8859 359.782 17.9688 360.331 17.9688C360.904 17.9688 361.406 17.8835 361.837 17.7131C362.272 17.5379 362.613 17.2964 362.859 16.9886C363.106 16.6761 363.231 16.3116 363.236 15.8949C363.231 15.5161 363.12 15.2036 362.902 14.9574C362.684 14.7064 362.379 14.4981 361.986 14.3324C361.598 14.1619 361.143 14.0104 360.622 13.8778L358.967 13.4517C357.769 13.1439 356.822 12.6776 356.126 12.0526C355.435 11.4228 355.089 10.5871 355.089 9.54545C355.089 8.68845 355.321 7.93797 355.786 7.29403C356.254 6.65009 356.891 6.15057 357.696 5.79545C358.501 5.43561 359.412 5.25568 360.43 5.25568C361.463 5.25568 362.367 5.43561 363.143 5.79545C363.925 6.15057 364.538 6.64536 364.983 7.27983C365.428 7.90956 365.658 8.634 365.672 9.45312H363.136ZM380.11 20H375.181V5.45455H380.209C381.653 5.45455 382.894 5.74574 383.931 6.32812C384.972 6.90578 385.773 7.73674 386.331 8.82102C386.89 9.9053 387.169 11.2027 387.169 12.7131C387.169 14.2282 386.888 15.5303 386.324 16.6193C385.766 17.7083 384.958 18.544 383.902 19.1264C382.851 19.7088 381.587 20 380.11 20ZM377.816 17.7202H379.982C380.995 17.7202 381.84 17.5355 382.517 17.1662C383.194 16.7921 383.703 16.2358 384.044 15.4972C384.385 14.7538 384.556 13.8258 384.556 12.7131C384.556 11.6004 384.385 10.6771 384.044 9.94318C383.703 9.20455 383.199 8.65294 382.532 8.28835C381.869 7.91903 381.045 7.73438 380.06 7.73438H377.816V17.7202ZM390.673 20V5.45455H400.133V7.66335H393.308V11.6122H399.643V13.821H393.308V17.7912H400.19V20H390.673ZM409.782 20V5.45455H415.237C416.354 5.45455 417.292 5.66288 418.049 6.07955C418.812 6.49621 419.387 7.06913 419.775 7.7983C420.168 8.52273 420.365 9.34659 420.365 10.2699C420.365 11.2027 420.168 12.0312 419.775 12.7557C419.382 13.4801 418.802 14.0507 418.035 14.4673C417.268 14.8793 416.324 15.0852 415.201 15.0852H411.586V12.919H414.846C415.5 12.919 416.035 12.8054 416.451 12.5781C416.868 12.3509 417.176 12.0384 417.375 11.6406C417.578 11.2429 417.68 10.786 417.68 10.2699C417.68 9.75379 417.578 9.29924 417.375 8.90625C417.176 8.51326 416.866 8.20786 416.444 7.99006C416.028 7.76752 415.49 7.65625 414.832 7.65625H412.417V20H409.782ZM423.653 20V5.45455H429.108C430.225 5.45455 431.163 5.64867 431.92 6.03693C432.683 6.42519 433.258 6.9697 433.646 7.67045C434.039 8.36648 434.236 9.1785 434.236 10.1065C434.236 11.0393 434.037 11.849 433.639 12.5355C433.246 13.2173 432.666 13.7453 431.899 14.1193C431.132 14.4886 430.19 14.6733 429.072 14.6733H425.188V12.4858H428.717C429.371 12.4858 429.906 12.3958 430.322 12.2159C430.739 12.0312 431.047 11.7637 431.246 11.4134C431.449 11.0582 431.551 10.6226 431.551 10.1065C431.551 9.59044 431.449 9.15009 431.246 8.78551C431.042 8.41619 430.732 8.13684 430.315 7.94744C429.899 7.75331 429.361 7.65625 428.703 7.65625H426.288V20H423.653ZM431.168 13.4091L434.768 20H431.828L428.291 13.4091H431.168ZM450.658 12.7273C450.658 14.2945 450.365 15.6368 449.778 16.7543C449.195 17.867 448.4 18.7192 447.391 19.3111C446.388 19.9029 445.249 20.1989 443.975 20.1989C442.701 20.1989 441.56 19.9029 440.552 19.3111C439.548 18.7145 438.753 17.8598 438.165 16.7472C437.583 15.6297 437.292 14.2898 437.292 12.7273C437.292 11.16 437.583 9.82008 438.165 8.70739C438.753 7.58996 439.548 6.73532 440.552 6.14347C441.56 5.55161 442.701 5.25568 443.975 5.25568C445.249 5.25568 446.388 5.55161 447.391 6.14347C448.4 6.73532 449.195 7.58996 449.778 8.70739C450.365 9.82008 450.658 11.16 450.658 12.7273ZM448.009 12.7273C448.009 11.6241 447.836 10.6937 447.491 9.93608C447.15 9.17377 446.676 8.59848 446.07 8.21023C445.464 7.81723 444.766 7.62074 443.975 7.62074C443.184 7.62074 442.486 7.81723 441.88 8.21023C441.274 8.59848 440.798 9.17377 440.452 9.93608C440.112 10.6937 439.941 11.6241 439.941 12.7273C439.941 13.8305 440.112 14.7633 440.452 15.5256C440.798 16.2831 441.274 16.8584 441.88 17.2514C442.486 17.6397 443.184 17.8338 443.975 17.8338C444.766 17.8338 445.464 17.6397 446.07 17.2514C446.676 16.8584 447.15 16.2831 447.491 15.5256C447.836 14.7633 448.009 13.8305 448.009 12.7273ZM463.894 10.0994C463.775 9.71591 463.612 9.37263 463.404 9.0696C463.2 8.76184 462.954 8.49905 462.665 8.28125C462.381 8.06345 462.054 7.90009 461.685 7.79119C461.316 7.67756 460.913 7.62074 460.478 7.62074C459.696 7.62074 459 7.81723 458.39 8.21023C457.779 8.60322 457.298 9.18087 456.948 9.94318C456.602 10.7008 456.429 11.6241 456.429 12.7131C456.429 13.8116 456.602 14.742 456.948 15.5043C457.293 16.2666 457.774 16.8466 458.39 17.2443C459.005 17.6373 459.72 17.8338 460.534 17.8338C461.273 17.8338 461.912 17.6918 462.452 17.4077C462.997 17.1236 463.416 16.7211 463.709 16.2003C464.003 15.6747 464.15 15.0592 464.15 14.3537L464.746 14.446H460.797V12.3864H466.699V14.1335C466.699 15.3788 466.434 16.456 465.904 17.3651C465.373 18.2741 464.644 18.9749 463.716 19.4673C462.788 19.955 461.723 20.1989 460.52 20.1989C459.18 20.1989 458.004 19.8982 456.99 19.2969C455.982 18.6908 455.194 17.8314 454.625 16.7188C454.062 15.6013 453.78 14.2756 453.78 12.7415C453.78 11.5672 453.946 10.5185 454.277 9.59517C454.614 8.67188 455.082 7.88826 455.684 7.24432C456.285 6.59564 456.99 6.10322 457.8 5.76705C458.61 5.42614 459.49 5.25568 460.442 5.25568C461.247 5.25568 461.998 5.37405 462.694 5.6108C463.39 5.8428 464.007 6.17424 464.547 6.60511C465.092 7.03598 465.539 7.54735 465.89 8.1392C466.24 8.73106 466.47 9.38447 466.578 10.0994H463.894ZM470.247 20V5.45455H475.702C476.819 5.45455 477.757 5.64867 478.514 6.03693C479.277 6.42519 479.852 6.9697 480.24 7.67045C480.633 8.36648 480.83 9.1785 480.83 10.1065C480.83 11.0393 480.631 11.849 480.233 12.5355C479.84 13.2173 479.26 13.7453 478.493 14.1193C477.726 14.4886 476.784 14.6733 475.666 14.6733H471.781V12.4858H475.311C475.964 12.4858 476.5 12.3958 476.916 12.2159C477.333 12.0312 477.641 11.7637 477.839 11.4134C478.043 11.0582 478.145 10.6226 478.145 10.1065C478.145 9.59044 478.043 9.15009 477.839 8.78551C477.636 8.41619 477.326 8.13684 476.909 7.94744C476.492 7.75331 475.955 7.65625 475.297 7.65625H472.882V20H470.247ZM477.761 13.4091L481.362 20H478.422L474.885 13.4091H477.761ZM486.123 20H483.31L488.431 5.45455H491.684L496.812 20H493.999L490.114 8.4375H490.001L486.123 20ZM486.215 14.2969H493.886V16.4134H486.215V14.2969ZM499.728 5.45455H502.952L507.27 15.9943H507.441L511.759 5.45455H514.983V20H512.455V10.0071H512.32L508.3 19.9574H506.411L502.391 9.9858H502.256V20H499.728V5.45455ZM520.721 20H517.908L523.029 5.45455H526.282L531.409 20H528.597L524.712 8.4375H524.598L520.721 20ZM520.813 14.2969H528.483V16.4134H520.813V14.2969ZM546.092 10.3622H543.436C543.36 9.92661 543.22 9.54072 543.017 9.20455C542.813 8.86364 542.56 8.57481 542.257 8.33807C541.954 8.10133 541.608 7.92377 541.22 7.8054C540.836 7.68229 540.422 7.62074 539.977 7.62074C539.186 7.62074 538.485 7.8196 537.875 8.21733C537.264 8.61032 536.786 9.18797 536.44 9.95028C536.094 10.7079 535.922 11.6335 535.922 12.7273C535.922 13.84 536.094 14.7775 536.44 15.5398C536.79 16.2973 537.269 16.8703 537.875 17.2585C538.485 17.642 539.184 17.8338 539.97 17.8338C540.405 17.8338 540.813 17.777 541.191 17.6634C541.575 17.545 541.918 17.3722 542.221 17.1449C542.529 16.9176 542.787 16.6383 542.995 16.3068C543.208 15.9754 543.355 15.5966 543.436 15.1705L546.092 15.1847C545.993 15.8759 545.777 16.5246 545.446 17.1307C545.119 17.7367 544.69 18.2718 544.16 18.7358C543.63 19.1951 543.01 19.5549 542.299 19.8153C541.589 20.071 540.801 20.1989 539.934 20.1989C538.656 20.1989 537.515 19.9029 536.511 19.3111C535.507 18.7192 534.717 17.8646 534.139 16.7472C533.561 15.6297 533.272 14.2898 533.272 12.7273C533.272 11.16 533.564 9.82008 534.146 8.70739C534.728 7.58996 535.521 6.73532 536.525 6.14347C537.529 5.55161 538.665 5.25568 539.934 5.25568C540.744 5.25568 541.497 5.36932 542.193 5.59659C542.889 5.82386 543.509 6.15767 544.054 6.59801C544.598 7.03362 545.046 7.56866 545.396 8.20312C545.751 8.83286 545.983 9.55256 546.092 10.3622ZM539.189 19.9858H540.581L540.467 20.5895C540.912 20.6558 541.288 20.8262 541.596 21.1009C541.909 21.3802 542.065 21.7803 542.065 22.3011C542.07 22.9735 541.769 23.5133 541.163 23.9205C540.557 24.3277 539.693 24.5312 538.571 24.5312L538.542 23.267C539.087 23.267 539.52 23.1937 539.842 23.0469C540.164 22.9048 540.327 22.6776 540.332 22.3651C540.342 22.062 540.228 21.8395 539.991 21.6974C539.759 21.5601 539.39 21.4654 538.883 21.4134L539.189 19.9858ZM551.197 20H548.385L553.505 5.45455H556.758L561.886 20H559.074L555.189 8.4375H555.075L551.197 20ZM551.289 14.2969H558.96V16.4134H551.289V14.2969ZM553.051 4.01989L551.488 3.98438C551.488 3.14157 551.706 2.48106 552.142 2.00284C552.582 1.52462 553.119 1.28551 553.754 1.28551C554.062 1.28551 554.329 1.33759 554.556 1.44176C554.788 1.54119 554.999 1.6572 555.189 1.78977C555.378 1.92235 555.565 2.04072 555.75 2.14489C555.934 2.24432 556.138 2.29403 556.36 2.29403C556.63 2.29403 556.843 2.19223 557 1.98864C557.161 1.78504 557.243 1.52462 557.248 1.20739L558.775 1.27131C558.77 2.11884 558.55 2.77699 558.115 3.24574C557.679 3.70975 557.146 3.94413 556.517 3.94886C556.171 3.94886 555.882 3.89915 555.65 3.79972C555.418 3.69555 555.215 3.57718 555.039 3.4446C554.869 3.31203 554.696 3.19602 554.521 3.09659C554.346 2.99242 554.14 2.94034 553.903 2.94034C553.652 2.94034 553.446 3.03977 553.285 3.23864C553.129 3.4375 553.051 3.69792 553.051 4.01989ZM577.115 12.7273C577.115 14.2945 576.822 15.6368 576.235 16.7543C575.652 17.867 574.857 18.7192 573.848 19.3111C572.845 19.9029 571.706 20.1989 570.432 20.1989C569.158 20.1989 568.017 19.9029 567.009 19.3111C566.005 18.7145 565.21 17.8598 564.623 16.7472C564.04 15.6297 563.749 14.2898 563.749 12.7273C563.749 11.16 564.04 9.82008 564.623 8.70739C565.21 7.58996 566.005 6.73532 567.009 6.14347C568.017 5.55161 569.158 5.25568 570.432 5.25568C571.706 5.25568 572.845 5.55161 573.848 6.14347C574.857 6.73532 575.652 7.58996 576.235 8.70739C576.822 9.82008 577.115 11.16 577.115 12.7273ZM574.466 12.7273C574.466 11.6241 574.293 10.6937 573.948 9.93608C573.607 9.17377 573.133 8.59848 572.527 8.21023C571.921 7.81723 571.223 7.62074 570.432 7.62074C569.641 7.62074 568.943 7.81723 568.337 8.21023C567.731 8.59848 567.255 9.17377 566.909 9.93608C566.569 10.6937 566.398 11.6241 566.398 12.7273C566.398 13.8305 566.569 14.7633 566.909 15.5256C567.255 16.2831 567.731 16.8584 568.337 17.2514C568.943 17.6397 569.641 17.8338 570.432 17.8338C571.223 17.8338 571.921 17.6397 572.527 17.2514C573.133 16.8584 573.607 16.2831 573.948 15.5256C574.293 14.7633 574.466 13.8305 574.466 12.7273ZM586.567 20V5.45455H596.028V7.66335H589.202V11.6122H595.538V13.821H589.202V17.7912H596.085V20H586.567ZM611.669 5.45455V20H609.325L602.472 10.0923H602.351V20H599.716V5.45455H602.074L608.92 15.3693H609.048V5.45455H611.669ZM620.959 15.1136H623.346L624.759 16.946L625.767 18.1392L628.189 21.25H625.632L623.985 19.1619L623.282 18.1676L620.959 15.1136ZM628.537 12.7273C628.537 14.2945 628.244 15.6368 627.657 16.7543C627.074 17.867 626.279 18.7192 625.27 19.3111C624.266 19.9029 623.128 20.1989 621.854 20.1989C620.58 20.1989 619.439 19.9029 618.431 19.3111C617.427 18.7145 616.632 17.8598 616.044 16.7472C615.462 15.6297 615.171 14.2898 615.171 12.7273C615.171 11.16 615.462 9.82008 616.044 8.70739C616.632 7.58996 617.427 6.73532 618.431 6.14347C619.439 5.55161 620.58 5.25568 621.854 5.25568C623.128 5.25568 624.266 5.55161 625.27 6.14347C626.279 6.73532 627.074 7.58996 627.657 8.70739C628.244 9.82008 628.537 11.16 628.537 12.7273ZM625.888 12.7273C625.888 11.6241 625.715 10.6937 625.37 9.93608C625.029 9.17377 624.555 8.59848 623.949 8.21023C623.343 7.81723 622.645 7.62074 621.854 7.62074C621.063 7.62074 620.365 7.81723 619.759 8.21023C619.153 8.59848 618.677 9.17377 618.331 9.93608C617.99 10.6937 617.82 11.6241 617.82 12.7273C617.82 13.8305 617.99 14.7633 618.331 15.5256C618.677 16.2831 619.153 16.8584 619.759 17.2514C620.365 17.6397 621.063 17.8338 621.854 17.8338C622.645 17.8338 623.343 17.6397 623.949 17.2514C624.555 16.8584 625.029 16.2831 625.37 15.5256C625.715 14.7633 625.888 13.8305 625.888 12.7273ZM641.217 5.45455H643.852V14.9574C643.852 15.9991 643.606 16.9152 643.113 17.706C642.626 18.4967 641.939 19.1146 641.054 19.5597C640.168 20 639.134 20.2202 637.95 20.2202C636.761 20.2202 635.725 20 634.839 19.5597C633.954 19.1146 633.267 18.4967 632.779 17.706C632.292 16.9152 632.048 15.9991 632.048 14.9574V5.45455H634.683V14.7372C634.683 15.3433 634.815 15.883 635.081 16.3565C635.35 16.83 635.729 17.2017 636.217 17.4716C636.705 17.7367 637.282 17.8693 637.95 17.8693C638.618 17.8693 639.195 17.7367 639.683 17.4716C640.175 17.2017 640.554 16.83 640.819 16.3565C641.084 15.883 641.217 15.3433 641.217 14.7372V5.45455ZM649.584 20H646.771L651.892 5.45455H655.145L660.273 20H657.46L653.575 8.4375H653.462L649.584 20ZM649.676 14.2969H657.347V16.4134H649.676V14.2969ZM675.142 5.45455V20H672.798L665.944 10.0923H665.824V20H663.189V5.45455H665.547L672.393 15.3693H672.521V5.45455H675.142ZM678.374 7.66335V5.45455H689.979V7.66335H685.483V20H682.869V7.66335H678.374ZM705.569 12.7273C705.569 14.2945 705.275 15.6368 704.688 16.7543C704.105 17.867 703.31 18.7192 702.301 19.3111C701.298 19.9029 700.159 20.1989 698.885 20.1989C697.612 20.1989 696.471 19.9029 695.462 19.3111C694.458 18.7145 693.663 17.8598 693.076 16.7472C692.493 15.6297 692.202 14.2898 692.202 12.7273C692.202 11.16 692.493 9.82008 693.076 8.70739C693.663 7.58996 694.458 6.73532 695.462 6.14347C696.471 5.55161 697.612 5.25568 698.885 5.25568C700.159 5.25568 701.298 5.55161 702.301 6.14347C703.31 6.73532 704.105 7.58996 704.688 8.70739C705.275 9.82008 705.569 11.16 705.569 12.7273ZM702.919 12.7273C702.919 11.6241 702.747 10.6937 702.401 9.93608C702.06 9.17377 701.587 8.59848 700.98 8.21023C700.374 7.81723 699.676 7.62074 698.885 7.62074C698.095 7.62074 697.396 7.81723 696.79 8.21023C696.184 8.59848 695.708 9.17377 695.363 9.93608C695.022 10.6937 694.851 11.6241 694.851 12.7273C694.851 13.8305 695.022 14.7633 695.363 15.5256C695.708 16.2831 696.184 16.8584 696.79 17.2514C697.396 17.6397 698.095 17.8338 698.885 17.8338C699.676 17.8338 700.374 17.6397 700.98 17.2514C701.587 16.8584 702.06 16.2831 702.401 15.5256C702.747 14.7633 702.919 13.8305 702.919 12.7273ZM722.925 9.45312C722.859 8.83286 722.58 8.34991 722.087 8.00426C721.6 7.65862 720.965 7.4858 720.184 7.4858C719.635 7.4858 719.164 7.56866 718.771 7.73438C718.378 7.90009 718.077 8.125 717.869 8.40909C717.66 8.69318 717.554 9.01752 717.549 9.3821C717.549 9.68513 717.618 9.94792 717.755 10.1705C717.897 10.393 718.089 10.5824 718.33 10.7386C718.572 10.8902 718.839 11.018 719.133 11.1222C719.426 11.2263 719.722 11.3139 720.021 11.3849L721.384 11.7259C721.933 11.8537 722.461 12.0265 722.968 12.2443C723.479 12.4621 723.936 12.7367 724.339 13.0682C724.746 13.3996 725.068 13.7997 725.305 14.2685C725.541 14.7372 725.66 15.2865 725.66 15.9162C725.66 16.7685 725.442 17.5189 725.006 18.1676C724.571 18.8116 723.941 19.3158 723.117 19.6804C722.298 20.0402 721.306 20.2202 720.141 20.2202C719.01 20.2202 718.027 20.045 717.194 19.6946C716.365 19.3442 715.717 18.8329 715.248 18.1605C714.784 17.4882 714.533 16.669 714.495 15.7031H717.087C717.125 16.2098 717.281 16.6312 717.556 16.9673C717.831 17.3035 718.188 17.5545 718.629 17.7202C719.074 17.8859 719.571 17.9688 720.12 17.9688C720.693 17.9688 721.195 17.8835 721.626 17.7131C722.061 17.5379 722.402 17.2964 722.648 16.9886C722.895 16.6761 723.02 16.3116 723.025 15.8949C723.02 15.5161 722.909 15.2036 722.691 14.9574C722.473 14.7064 722.168 14.4981 721.775 14.3324C721.387 14.1619 720.932 14.0104 720.411 13.8778L718.756 13.4517C717.558 13.1439 716.612 12.6776 715.915 12.0526C715.224 11.4228 714.879 10.5871 714.879 9.54545C714.879 8.68845 715.111 7.93797 715.575 7.29403C716.043 6.65009 716.68 6.15057 717.485 5.79545C718.29 5.43561 719.201 5.25568 720.219 5.25568C721.252 5.25568 722.156 5.43561 722.933 5.79545C723.714 6.15057 724.327 6.64536 724.772 7.27983C725.217 7.90956 725.447 8.634 725.461 9.45312H722.925ZM729.009 20V5.45455H738.469V7.66335H731.644V11.6122H737.979V13.821H731.644V17.7912H738.526V20H729.009ZM753.047 20H748.118V5.45455H753.147C754.591 5.45455 755.831 5.74574 756.868 6.32812C757.91 6.90578 758.71 7.73674 759.269 8.82102C759.828 9.9053 760.107 11.2027 760.107 12.7131C760.107 14.2282 759.825 15.5303 759.262 16.6193C758.703 17.7083 757.896 18.544 756.84 19.1264C755.789 19.7088 754.525 20 753.047 20ZM750.753 17.7202H752.919C753.933 17.7202 754.778 17.5355 755.455 17.1662C756.132 16.7921 756.641 16.2358 756.982 15.4972C757.323 14.7538 757.493 13.8258 757.493 12.7131C757.493 11.6004 757.323 10.6771 756.982 9.94318C756.641 9.20455 756.137 8.65294 755.469 8.28835C754.806 7.91903 753.982 7.73438 752.998 7.73438H750.753V17.7202ZM763.61 20V5.45455H773.071V7.66335H766.245V11.6122H772.581V13.821H766.245V17.7912H773.127V20H763.61ZM776.759 20V5.45455H779.394V17.7912H785.8V20H776.759ZM791.722 5.45455V20H789.087V5.45455H791.722ZM808.026 10.3622H805.369C805.294 9.92661 805.154 9.54072 804.95 9.20455C804.747 8.86364 804.493 8.57481 804.19 8.33807C803.887 8.10133 803.542 7.92377 803.153 7.8054C802.77 7.68229 802.356 7.62074 801.911 7.62074C801.12 7.62074 800.419 7.8196 799.808 8.21733C799.197 8.61032 798.719 9.18797 798.374 9.95028C798.028 10.7079 797.855 11.6335 797.855 12.7273C797.855 13.84 798.028 14.7775 798.374 15.5398C798.724 16.2973 799.202 16.8703 799.808 17.2585C800.419 17.642 801.117 17.8338 801.903 17.8338C802.339 17.8338 802.746 17.777 803.125 17.6634C803.509 17.545 803.852 17.3722 804.155 17.1449C804.463 16.9176 804.721 16.6383 804.929 16.3068C805.142 15.9754 805.289 15.5966 805.369 15.1705L808.026 15.1847C807.926 15.8759 807.711 16.5246 807.379 17.1307C807.053 17.7367 806.624 18.2718 806.094 18.7358C805.563 19.1951 804.943 19.5549 804.233 19.8153C803.523 20.071 802.734 20.1989 801.868 20.1989C800.589 20.1989 799.448 19.9029 798.445 19.3111C797.441 18.7192 796.65 17.8646 796.072 16.7472C795.495 15.6297 795.206 14.2898 795.206 12.7273C795.206 11.16 795.497 9.82008 796.08 8.70739C796.662 7.58996 797.455 6.73532 798.459 6.14347C799.463 5.55161 800.599 5.25568 801.868 5.25568C802.678 5.25568 803.43 5.36932 804.126 5.59659C804.822 5.82386 805.443 6.15767 805.987 6.59801C806.532 7.03362 806.979 7.56866 807.33 8.20312C807.685 8.83286 807.917 9.55256 808.026 10.3622ZM814.074 5.45455V20H811.439V5.45455H814.074ZM819.795 20H816.982L822.103 5.45455H825.356L830.484 20H827.671L823.786 8.4375H823.673L819.795 20ZM819.887 14.2969H827.558V16.4134H819.887V14.2969ZM851.811 10.3622H849.154C849.079 9.92661 848.939 9.54072 848.735 9.20455C848.532 8.86364 848.279 8.57481 847.975 8.33807C847.672 8.10133 847.327 7.92377 846.939 7.8054C846.555 7.68229 846.141 7.62074 845.696 7.62074C844.905 7.62074 844.204 7.8196 843.593 8.21733C842.983 8.61032 842.504 9.18797 842.159 9.95028C841.813 10.7079 841.64 11.6335 841.64 12.7273C841.64 13.84 841.813 14.7775 842.159 15.5398C842.509 16.2973 842.987 16.8703 843.593 17.2585C844.204 17.642 844.903 17.8338 845.689 17.8338C846.124 17.8338 846.531 17.777 846.91 17.6634C847.294 17.545 847.637 17.3722 847.94 17.1449C848.248 16.9176 848.506 16.6383 848.714 16.3068C848.927 15.9754 849.074 15.5966 849.154 15.1705L851.811 15.1847C851.711 15.8759 851.496 16.5246 851.164 17.1307C850.838 17.7367 850.409 18.2718 849.879 18.7358C849.349 19.1951 848.728 19.5549 848.018 19.8153C847.308 20.071 846.52 20.1989 845.653 20.1989C844.375 20.1989 843.234 19.9029 842.23 19.3111C841.226 18.7192 840.435 17.8646 839.858 16.7472C839.28 15.6297 838.991 14.2898 838.991 12.7273C838.991 11.16 839.282 9.82008 839.865 8.70739C840.447 7.58996 841.24 6.73532 842.244 6.14347C843.248 5.55161 844.384 5.25568 845.653 5.25568C846.463 5.25568 847.216 5.36932 847.912 5.59659C848.608 5.82386 849.228 6.15767 849.772 6.59801C850.317 7.03362 850.764 7.56866 851.115 8.20312C851.47 8.83286 851.702 9.55256 851.811 10.3622ZM868.221 12.7273C868.221 14.2945 867.927 15.6368 867.34 16.7543C866.758 17.867 865.962 18.7192 864.954 19.3111C863.95 19.9029 862.811 20.1989 861.538 20.1989C860.264 20.1989 859.123 19.9029 858.114 19.3111C857.111 18.7145 856.315 17.8598 855.728 16.7472C855.146 15.6297 854.854 14.2898 854.854 12.7273C854.854 11.16 855.146 9.82008 855.728 8.70739C856.315 7.58996 857.111 6.73532 858.114 6.14347C859.123 5.55161 860.264 5.25568 861.538 5.25568C862.811 5.25568 863.95 5.55161 864.954 6.14347C865.962 6.73532 866.758 7.58996 867.34 8.70739C867.927 9.82008 868.221 11.16 868.221 12.7273ZM865.572 12.7273C865.572 11.6241 865.399 10.6937 865.053 9.93608C864.712 9.17377 864.239 8.59848 863.633 8.21023C863.027 7.81723 862.328 7.62074 861.538 7.62074C860.747 7.62074 860.049 7.81723 859.442 8.21023C858.836 8.59848 858.361 9.17377 858.015 9.93608C857.674 10.6937 857.504 11.6241 857.504 12.7273C857.504 13.8305 857.674 14.7633 858.015 15.5256C858.361 16.2831 858.836 16.8584 859.442 17.2514C860.049 17.6397 860.747 17.8338 861.538 17.8338C862.328 17.8338 863.027 17.6397 863.633 17.2514C864.239 16.8584 864.712 16.2831 865.053 15.5256C865.399 14.7633 865.572 13.8305 865.572 12.7273ZM871.712 5.45455H874.936L879.255 15.9943H879.425L883.743 5.45455H886.968V20H884.439V10.0071H884.304L880.284 19.9574H878.395L874.375 9.9858H874.24V20H871.712V5.45455ZM896.798 20V5.45455H902.252C903.37 5.45455 904.307 5.66288 905.065 6.07955C905.827 6.49621 906.403 7.06913 906.791 7.7983C907.184 8.52273 907.38 9.34659 907.38 10.2699C907.38 11.2027 907.184 12.0312 906.791 12.7557C906.398 13.4801 905.818 14.0507 905.051 14.4673C904.284 14.8793 903.339 15.0852 902.217 15.0852H898.602V12.919H901.862C902.515 12.919 903.05 12.8054 903.467 12.5781C903.884 12.3509 904.191 12.0384 904.39 11.6406C904.594 11.2429 904.696 10.786 904.696 10.2699C904.696 9.75379 904.594 9.29924 904.39 8.90625C904.191 8.51326 903.881 8.20786 903.46 7.99006C903.043 7.76752 902.506 7.65625 901.848 7.65625H899.433V20H896.798ZM913.304 5.45455V20H910.669V5.45455H913.304ZM916.887 20V18.3594L924.345 7.66335H916.845V5.45455H927.612V7.09517L920.162 17.7912H927.654V20H916.887ZM930.934 20V18.3594L938.392 7.66335H930.892V5.45455H941.659V7.09517L934.208 17.7912H941.701V20H930.934ZM947.119 20H944.306L949.427 5.45455H952.68L957.808 20H954.995L951.11 8.4375H950.997L947.119 20ZM947.211 14.2969H954.882V16.4134H947.211V14.2969ZM968.394 9.45312C968.328 8.83286 968.049 8.34991 967.556 8.00426C967.068 7.65862 966.434 7.4858 965.653 7.4858C965.103 7.4858 964.632 7.56866 964.239 7.73438C963.846 7.90009 963.546 8.125 963.337 8.40909C963.129 8.69318 963.022 9.01752 963.018 9.3821C963.018 9.68513 963.086 9.94792 963.224 10.1705C963.366 10.393 963.558 10.5824 963.799 10.7386C964.04 10.8902 964.308 11.018 964.602 11.1222C964.895 11.2263 965.191 11.3139 965.489 11.3849L966.853 11.7259C967.402 11.8537 967.93 12.0265 968.437 12.2443C968.948 12.4621 969.405 12.7367 969.808 13.0682C970.215 13.3996 970.537 13.7997 970.773 14.2685C971.01 14.7372 971.129 15.2865 971.129 15.9162C971.129 16.7685 970.911 17.5189 970.475 18.1676C970.04 18.8116 969.41 19.3158 968.586 19.6804C967.767 20.0402 966.775 20.2202 965.61 20.2202C964.478 20.2202 963.496 20.045 962.663 19.6946C961.834 19.3442 961.185 18.8329 960.717 18.1605C960.253 17.4882 960.002 16.669 959.964 15.7031H962.556C962.594 16.2098 962.75 16.6312 963.025 16.9673C963.299 17.3035 963.657 17.5545 964.097 17.7202C964.542 17.8859 965.04 17.9688 965.589 17.9688C966.162 17.9688 966.664 17.8835 967.094 17.7131C967.53 17.5379 967.871 17.2964 968.117 16.9886C968.363 16.6761 968.489 16.3116 968.494 15.8949C968.489 15.5161 968.378 15.2036 968.16 14.9574C967.942 14.7064 967.637 14.4981 967.244 14.3324C966.855 14.1619 966.401 14.0104 965.88 13.8778L964.225 13.4517C963.027 13.1439 962.08 12.6776 961.384 12.0526C960.693 11.4228 960.347 10.5871 960.347 9.54545C960.347 8.68845 960.579 7.93797 961.043 7.29403C961.512 6.65009 962.149 6.15057 962.954 5.79545C963.759 5.43561 964.67 5.25568 965.688 5.25568C966.72 5.25568 967.625 5.43561 968.401 5.79545C969.183 6.15057 969.796 6.64536 970.241 7.27983C970.686 7.90956 970.915 8.634 970.93 9.45312H968.394ZM988.343 9.45312C988.277 8.83286 987.998 8.34991 987.505 8.00426C987.018 7.65862 986.383 7.4858 985.602 7.4858C985.053 7.4858 984.582 7.56866 984.189 7.73438C983.796 7.90009 983.495 8.125 983.287 8.40909C983.078 8.69318 982.972 9.01752 982.967 9.3821C982.967 9.68513 983.036 9.94792 983.173 10.1705C983.315 10.393 983.507 10.5824 983.748 10.7386C983.99 10.8902 984.257 11.018 984.551 11.1222C984.844 11.2263 985.14 11.3139 985.439 11.3849L986.802 11.7259C987.351 11.8537 987.879 12.0265 988.386 12.2443C988.897 12.4621 989.354 12.7367 989.757 13.0682C990.164 13.3996 990.486 13.7997 990.723 14.2685C990.959 14.7372 991.078 15.2865 991.078 15.9162C991.078 16.7685 990.86 17.5189 990.424 18.1676C989.989 18.8116 989.359 19.3158 988.535 19.6804C987.716 20.0402 986.724 20.2202 985.559 20.2202C984.428 20.2202 983.445 20.045 982.612 19.6946C981.783 19.3442 981.135 18.8329 980.666 18.1605C980.202 17.4882 979.951 16.669 979.913 15.7031H982.505C982.543 16.2098 982.699 16.6312 982.974 16.9673C983.249 17.3035 983.606 17.5545 984.047 17.7202C984.492 17.8859 984.989 17.9688 985.538 17.9688C986.111 17.9688 986.613 17.8835 987.044 17.7131C987.479 17.5379 987.82 17.2964 988.066 16.9886C988.313 16.6761 988.438 16.3116 988.443 15.8949C988.438 15.5161 988.327 15.2036 988.109 14.9574C987.891 14.7064 987.586 14.4981 987.193 14.3324C986.805 14.1619 986.35 14.0104 985.829 13.8778L984.174 13.4517C982.976 13.1439 982.029 12.6776 981.333 12.0526C980.642 11.4228 980.297 10.5871 980.297 9.54545C980.297 8.68845 980.529 7.93797 980.993 7.29403C981.461 6.65009 982.098 6.15057 982.903 5.79545C983.708 5.43561 984.619 5.25568 985.637 5.25568C986.67 5.25568 987.574 5.43561 988.35 5.79545C989.132 6.15057 989.745 6.64536 990.19 7.27983C990.635 7.90956 990.865 8.634 990.879 9.45312H988.343ZM996.06 20H993.248L998.369 5.45455H1001.62L1006.75 20H1003.94L1000.05 8.4375H999.938L996.06 20ZM996.153 14.2969H1003.82V16.4134H996.153V14.2969ZM1009.67 20V5.45455H1015.23C1016.28 5.45455 1017.16 5.62026 1017.85 5.9517C1018.55 6.27841 1019.08 6.72585 1019.42 7.29403C1019.77 7.86222 1019.95 8.50616 1019.95 9.22585C1019.95 9.81771 1019.84 10.3243 1019.61 10.7457C1019.38 11.1624 1019.08 11.5009 1018.69 11.7614C1018.31 12.0218 1017.88 12.2088 1017.41 12.3224V12.4645C1017.92 12.4929 1018.42 12.6515 1018.89 12.9403C1019.37 13.2244 1019.76 13.6269 1020.06 14.1477C1020.37 14.6686 1020.52 15.2983 1020.52 16.0369C1020.52 16.7898 1020.34 17.4669 1019.97 18.0682C1019.61 18.6648 1019.06 19.1359 1018.32 19.4815C1017.59 19.8272 1016.67 20 1015.55 20H1009.67ZM1012.3 17.7983H1015.13C1016.09 17.7983 1016.78 17.616 1017.2 17.2514C1017.63 16.8821 1017.84 16.4086 1017.84 15.831C1017.84 15.4001 1017.73 15.0118 1017.52 14.6662C1017.31 14.3158 1017 14.0412 1016.61 13.8423C1016.22 13.6387 1015.75 13.5369 1015.2 13.5369H1012.3V17.7983ZM1012.3 11.6406H1014.91C1015.36 11.6406 1015.77 11.5578 1016.14 11.392C1016.5 11.2216 1016.79 10.9825 1016.99 10.6747C1017.21 10.3622 1017.31 9.9929 1017.31 9.56676C1017.31 9.00331 1017.12 8.5393 1016.72 8.17472C1016.32 7.81013 1015.74 7.62784 1014.96 7.62784H1012.3V11.6406ZM1036.81 12.7273C1036.81 14.2945 1036.51 15.6368 1035.93 16.7543C1035.34 17.867 1034.55 18.7192 1033.54 19.3111C1032.54 19.9029 1031.4 20.1989 1030.12 20.1989C1028.85 20.1989 1027.71 19.9029 1026.7 19.3111C1025.7 18.7145 1024.9 17.8598 1024.31 16.7472C1023.73 15.6297 1023.44 14.2898 1023.44 12.7273C1023.44 11.16 1023.73 9.82008 1024.31 8.70739C1024.9 7.58996 1025.7 6.73532 1026.7 6.14347C1027.71 5.55161 1028.85 5.25568 1030.12 5.25568C1031.4 5.25568 1032.54 5.55161 1033.54 6.14347C1034.55 6.73532 1035.34 7.58996 1035.93 8.70739C1036.51 9.82008 1036.81 11.16 1036.81 12.7273ZM1034.16 12.7273C1034.16 11.6241 1033.98 10.6937 1033.64 9.93608C1033.3 9.17377 1032.82 8.59848 1032.22 8.21023C1031.61 7.81723 1030.91 7.62074 1030.12 7.62074C1029.33 7.62074 1028.63 7.81723 1028.03 8.21023C1027.42 8.59848 1026.95 9.17377 1026.6 9.93608C1026.26 10.6937 1026.09 11.6241 1026.09 12.7273C1026.09 13.8305 1026.26 14.7633 1026.6 15.5256C1026.95 16.2831 1027.42 16.8584 1028.03 17.2514C1028.63 17.6397 1029.33 17.8338 1030.12 17.8338C1030.91 17.8338 1031.61 17.6397 1032.22 17.2514C1032.82 16.8584 1033.3 16.2831 1033.64 15.5256C1033.98 14.7633 1034.16 13.8305 1034.16 12.7273ZM1040.3 20V5.45455H1045.75C1046.87 5.45455 1047.81 5.64867 1048.56 6.03693C1049.33 6.42519 1049.9 6.9697 1050.29 7.67045C1050.68 8.36648 1050.88 9.1785 1050.88 10.1065C1050.88 11.0393 1050.68 11.849 1050.28 12.5355C1049.89 13.2173 1049.31 13.7453 1048.54 14.1193C1047.78 14.4886 1046.83 14.6733 1045.72 14.6733H1041.83V12.4858H1045.36C1046.02 12.4858 1046.55 12.3958 1046.97 12.2159C1047.38 12.0312 1047.69 11.7637 1047.89 11.4134C1048.09 11.0582 1048.2 10.6226 1048.2 10.1065C1048.2 9.59044 1048.09 9.15009 1047.89 8.78551C1047.69 8.41619 1047.38 8.13684 1046.96 7.94744C1046.54 7.75331 1046.01 7.65625 1045.35 7.65625H1042.93V20H1040.3ZM1047.81 13.4091L1051.41 20H1048.47L1044.94 13.4091H1047.81ZM1067.3 12.7273C1067.3 14.2945 1067.01 15.6368 1066.42 16.7543C1065.84 17.867 1065.04 18.7192 1064.04 19.3111C1063.03 19.9029 1061.89 20.1989 1060.62 20.1989C1059.35 20.1989 1058.2 19.9029 1057.2 19.3111C1056.19 18.7145 1055.4 17.8598 1054.81 16.7472C1054.23 15.6297 1053.94 14.2898 1053.94 12.7273C1053.94 11.16 1054.23 9.82008 1054.81 8.70739C1055.4 7.58996 1056.19 6.73532 1057.2 6.14347C1058.2 5.55161 1059.35 5.25568 1060.62 5.25568C1061.89 5.25568 1063.03 5.55161 1064.04 6.14347C1065.04 6.73532 1065.84 7.58996 1066.42 8.70739C1067.01 9.82008 1067.3 11.16 1067.3 12.7273ZM1064.65 12.7273C1064.65 11.6241 1064.48 10.6937 1064.14 9.93608C1063.79 9.17377 1063.32 8.59848 1062.71 8.21023C1062.11 7.81723 1061.41 7.62074 1060.62 7.62074C1059.83 7.62074 1059.13 7.81723 1058.52 8.21023C1057.92 8.59848 1057.44 9.17377 1057.1 9.93608C1056.76 10.6937 1056.59 11.6241 1056.59 12.7273C1056.59 13.8305 1056.76 14.7633 1057.1 15.5256C1057.44 16.2831 1057.92 16.8584 1058.52 17.2514C1059.13 17.6397 1059.83 17.8338 1060.62 17.8338C1061.41 17.8338 1062.11 17.6397 1062.71 17.2514C1063.32 16.8584 1063.79 16.2831 1064.14 15.5256C1064.48 14.7633 1064.65 13.8305 1064.65 12.7273ZM1078.7 9.45312C1078.63 8.83286 1078.35 8.34991 1077.86 8.00426C1077.37 7.65862 1076.74 7.4858 1075.96 7.4858C1075.41 7.4858 1074.94 7.56866 1074.54 7.73438C1074.15 7.90009 1073.85 8.125 1073.64 8.40909C1073.43 8.69318 1073.33 9.01752 1073.32 9.3821C1073.32 9.68513 1073.39 9.94792 1073.53 10.1705C1073.67 10.393 1073.86 10.5824 1074.1 10.7386C1074.35 10.8902 1074.61 11.018 1074.91 11.1222C1075.2 11.2263 1075.5 11.3139 1075.79 11.3849L1077.16 11.7259C1077.71 11.8537 1078.23 12.0265 1078.74 12.2443C1079.25 12.4621 1079.71 12.7367 1080.11 13.0682C1080.52 13.3996 1080.84 13.7997 1081.08 14.2685C1081.31 14.7372 1081.43 15.2865 1081.43 15.9162C1081.43 16.7685 1081.22 17.5189 1080.78 18.1676C1080.34 18.8116 1079.71 19.3158 1078.89 19.6804C1078.07 20.0402 1077.08 20.2202 1075.91 20.2202C1074.78 20.2202 1073.8 20.045 1072.97 19.6946C1072.14 19.3442 1071.49 18.8329 1071.02 18.1605C1070.56 17.4882 1070.31 16.669 1070.27 15.7031H1072.86C1072.9 16.2098 1073.05 16.6312 1073.33 16.9673C1073.6 17.3035 1073.96 17.5545 1074.4 17.7202C1074.85 17.8859 1075.34 17.9688 1075.89 17.9688C1076.47 17.9688 1076.97 17.8835 1077.4 17.7131C1077.83 17.5379 1078.18 17.2964 1078.42 16.9886C1078.67 16.6761 1078.79 16.3116 1078.8 15.8949C1078.79 15.5161 1078.68 15.2036 1078.46 14.9574C1078.25 14.7064 1077.94 14.4981 1077.55 14.3324C1077.16 14.1619 1076.71 14.0104 1076.18 13.8778L1074.53 13.4517C1073.33 13.1439 1072.38 12.6776 1071.69 12.0526C1071 11.4228 1070.65 10.5871 1070.65 9.54545C1070.65 8.68845 1070.88 7.93797 1071.35 7.29403C1071.82 6.65009 1072.45 6.15057 1073.26 5.79545C1074.06 5.43561 1074.97 5.25568 1075.99 5.25568C1077.03 5.25568 1077.93 5.43561 1078.71 5.79545C1079.49 6.15057 1080.1 6.64536 1080.55 7.27983C1080.99 7.90956 1081.22 8.634 1081.23 9.45312H1078.7ZM1086.42 20H1083.6L1088.72 5.45455H1091.98L1097.1 20H1094.29L1090.41 8.4375H1090.29L1086.42 20ZM1086.51 14.2969H1094.18V16.4134H1086.51V14.2969ZM1107.69 9.45312C1107.62 8.83286 1107.35 8.34991 1106.85 8.00426C1106.37 7.65862 1105.73 7.4858 1104.95 7.4858C1104.4 7.4858 1103.93 7.56866 1103.54 7.73438C1103.14 7.90009 1102.84 8.125 1102.63 8.40909C1102.43 8.69318 1102.32 9.01752 1102.31 9.3821C1102.31 9.68513 1102.38 9.94792 1102.52 10.1705C1102.66 10.393 1102.85 10.5824 1103.1 10.7386C1103.34 10.8902 1103.6 11.018 1103.9 11.1222C1104.19 11.2263 1104.49 11.3139 1104.79 11.3849L1106.15 11.7259C1106.7 11.8537 1107.23 12.0265 1107.73 12.2443C1108.25 12.4621 1108.7 12.7367 1109.1 13.0682C1109.51 13.3996 1109.83 13.7997 1110.07 14.2685C1110.31 14.7372 1110.43 15.2865 1110.43 15.9162C1110.43 16.7685 1110.21 17.5189 1109.77 18.1676C1109.34 18.8116 1108.71 19.3158 1107.88 19.6804C1107.06 20.0402 1106.07 20.2202 1104.91 20.2202C1103.78 20.2202 1102.79 20.045 1101.96 19.6946C1101.13 19.3442 1100.48 18.8329 1100.01 18.1605C1099.55 17.4882 1099.3 16.669 1099.26 15.7031H1101.85C1101.89 16.2098 1102.05 16.6312 1102.32 16.9673C1102.6 17.3035 1102.95 17.5545 1103.39 17.7202C1103.84 17.8859 1104.34 17.9688 1104.89 17.9688C1105.46 17.9688 1105.96 17.8835 1106.39 17.7131C1106.83 17.5379 1107.17 17.2964 1107.41 16.9886C1107.66 16.6761 1107.79 16.3116 1107.79 15.8949C1107.79 15.5161 1107.67 15.2036 1107.46 14.9574C1107.24 14.7064 1106.93 14.4981 1106.54 14.3324C1106.15 14.1619 1105.7 14.0104 1105.18 13.8778L1103.52 13.4517C1102.32 13.1439 1101.38 12.6776 1100.68 12.0526C1099.99 11.4228 1099.64 10.5871 1099.64 9.54545C1099.64 8.68845 1099.88 7.93797 1100.34 7.29403C1100.81 6.65009 1101.45 6.15057 1102.25 5.79545C1103.06 5.43561 1103.97 5.25568 1104.99 5.25568C1106.02 5.25568 1106.92 5.43561 1107.7 5.79545C1108.48 6.15057 1109.09 6.64536 1109.54 7.27983C1109.98 7.90956 1110.21 8.634 1110.23 9.45312H1107.69Z" fill="white"/>
</svg>
