<svg width="369" height="73" viewBox="0 0 369 73" fill="none" xmlns="http://www.w3.org/2000/svg">
<path d="M25.7211 50.4375V58H6.81482V50.4375H25.7211ZM9.62732 12.5V58H0.471069V12.5H9.62732ZM61.0648 31.7188V39.3125C61.0648 42.5208 60.669 45.3333 59.8773 47.75C59.1065 50.1458 58.0023 52.1562 56.5648 53.7812C55.1482 55.3854 53.4294 56.5938 51.4086 57.4062C49.4086 58.2188 47.1898 58.625 44.7523 58.625C42.3148 58.625 40.0857 58.2188 38.0648 57.4062C36.0648 56.5938 34.3357 55.3854 32.8773 53.7812C31.4398 52.1562 30.3252 50.1458 29.5336 47.75C28.7419 45.3333 28.3461 42.5208 28.3461 39.3125V31.7188C28.3461 28.4271 28.7315 25.5521 29.5023 23.0938C30.2732 20.6146 31.3877 18.5521 32.8461 16.9062C34.3044 15.2396 36.0336 13.9896 38.0336 13.1562C40.0336 12.3021 42.2523 11.875 44.6898 11.875C47.1273 11.875 49.3461 12.3021 51.3461 13.1562C53.3461 13.9896 55.0752 15.2396 56.5336 16.9062C57.9919 18.5521 59.1065 20.6146 59.8773 23.0938C60.669 25.5521 61.0648 28.4271 61.0648 31.7188ZM51.9711 39.3125V31.6562C51.9711 29.4896 51.8148 27.6458 51.5023 26.125C51.1898 24.5833 50.7211 23.3229 50.0961 22.3438C49.4711 21.3646 48.7107 20.6458 47.8148 20.1875C46.919 19.7292 45.8773 19.5 44.6898 19.5C43.5023 19.5 42.4502 19.7292 41.5336 20.1875C40.6377 20.6458 39.8773 21.3646 39.2523 22.3438C38.6482 23.3229 38.1898 24.5833 37.8773 26.125C37.5857 27.6458 37.4398 29.4896 37.4398 31.6562V39.3125C37.4398 41.3958 37.5961 43.1771 37.9086 44.6562C38.2211 46.1354 38.6898 47.3438 39.3148 48.2812C39.9398 49.2188 40.7002 49.9167 41.5961 50.375C42.5127 50.8125 43.5648 51.0312 44.7523 51.0312C45.919 51.0312 46.9502 50.8125 47.8461 50.375C48.7627 49.9167 49.5232 49.2188 50.1273 48.2812C50.7315 47.3438 51.1898 46.1354 51.5023 44.6562C51.8148 43.1771 51.9711 41.3958 51.9711 39.3125ZM89.4086 42.8438H98.5023C98.3773 46.2604 97.6898 49.1458 96.4398 51.5C95.1898 53.8333 93.4086 55.6042 91.0961 56.8125C88.8044 58.0208 86.0336 58.625 82.7836 58.625C80.2627 58.625 78.0232 58.2083 76.0648 57.375C74.1065 56.5208 72.4398 55.2708 71.0648 53.625C69.6898 51.9792 68.6482 49.9479 67.9398 47.5312C67.2523 45.0938 66.9086 42.2917 66.9086 39.125V31.4062C66.9086 28.2396 67.2732 25.4375 68.0023 23C68.7523 20.5625 69.8148 18.5208 71.1898 16.875C72.5857 15.2083 74.2627 13.9583 76.2211 13.125C78.2002 12.2708 80.4294 11.8438 82.9086 11.8438C86.2211 11.8438 88.9919 12.4688 91.2211 13.7188C93.4502 14.9688 95.169 16.7917 96.3773 19.1875C97.6065 21.5625 98.3461 24.4688 98.5961 27.9062H89.4711C89.4086 25.7396 89.1586 24.0417 88.7211 22.8125C88.3044 21.5625 87.6377 20.6875 86.7211 20.1875C85.8044 19.6667 84.5336 19.4062 82.9086 19.4062C81.7002 19.4062 80.6586 19.625 79.7836 20.0625C78.9086 20.4792 78.1898 21.1562 77.6273 22.0938C77.0648 23.0312 76.6482 24.2604 76.3773 25.7812C76.1273 27.3021 76.0023 29.1562 76.0023 31.3438V39.125C76.0023 41.2708 76.1169 43.1042 76.3461 44.625C76.5752 46.125 76.9398 47.3542 77.4398 48.3125C77.9398 49.2708 78.6169 49.9688 79.4711 50.4062C80.3461 50.8438 81.4502 51.0625 82.7836 51.0625C84.3252 51.0625 85.5648 50.8333 86.5023 50.375C87.4607 49.9167 88.169 49.0938 88.6273 47.9062C89.0857 46.7188 89.3461 45.0312 89.4086 42.8438ZM120.69 20.625L110.909 58H101.252L115.471 12.5H121.502L120.69 20.625ZM128.409 58L118.565 20.625L117.659 12.5H123.784L138.127 58H128.409ZM128.752 41.0312V48.625H108.221V41.0312H128.752ZM167.721 50.4375V58H148.815V50.4375H167.721ZM151.627 12.5V58H142.471V12.5H151.627ZM182.596 12.5V58H173.502V12.5H182.596ZM218.627 50.4375V58H191.565V50.4375H218.627ZM218.284 17.8438L195.565 58H189.159V52.4688L212.159 12.5H218.284V17.8438ZM215.19 12.5V20.0938H188.971V12.5H215.19ZM241.252 20.625L231.471 58H221.815L236.034 12.5H242.065L241.252 20.625ZM248.971 58L239.127 20.625L238.221 12.5H244.346L258.69 58H248.971ZM249.315 41.0312V48.625H228.784V41.0312H249.315ZM284.034 42.8438H293.127C293.002 46.2604 292.315 49.1458 291.065 51.5C289.815 53.8333 288.034 55.6042 285.721 56.8125C283.429 58.0208 280.659 58.625 277.409 58.625C274.888 58.625 272.648 58.2083 270.69 57.375C268.731 56.5208 267.065 55.2708 265.69 53.625C264.315 51.9792 263.273 49.9479 262.565 47.5312C261.877 45.0938 261.534 42.2917 261.534 39.125V31.4062C261.534 28.2396 261.898 25.4375 262.627 23C263.377 20.5625 264.44 18.5208 265.815 16.875C267.211 15.2083 268.888 13.9583 270.846 13.125C272.825 12.2708 275.054 11.8438 277.534 11.8438C280.846 11.8438 283.617 12.4688 285.846 13.7188C288.075 14.9688 289.794 16.7917 291.002 19.1875C292.231 21.5625 292.971 24.4688 293.221 27.9062H284.096C284.034 25.7396 283.784 24.0417 283.346 22.8125C282.929 21.5625 282.263 20.6875 281.346 20.1875C280.429 19.6667 279.159 19.4062 277.534 19.4062C276.325 19.4062 275.284 19.625 274.409 20.0625C273.534 20.4792 272.815 21.1562 272.252 22.0938C271.69 23.0312 271.273 24.2604 271.002 25.7812C270.752 27.3021 270.627 29.1562 270.627 31.3438V39.125C270.627 41.2708 270.742 43.1042 270.971 44.625C271.2 46.125 271.565 47.3542 272.065 48.3125C272.565 49.2708 273.242 49.9688 274.096 50.4062C274.971 50.8438 276.075 51.0625 277.409 51.0625C278.95 51.0625 280.19 50.8333 281.127 50.375C282.086 49.9167 282.794 49.0938 283.252 47.9062C283.711 46.7188 283.971 45.0312 284.034 42.8438ZM274.127 57.8438H280.659L280.377 59.6875C281.315 59.8958 282.179 60.3958 282.971 61.1875C283.763 61.9792 284.159 63.2812 284.159 65.0938C284.159 66.1979 283.961 67.1979 283.565 68.0938C283.169 69.0104 282.565 69.8021 281.752 70.4688C280.961 71.1354 279.971 71.6458 278.784 72C277.596 72.3542 276.221 72.5312 274.659 72.5312L274.471 67.3438C274.971 67.3438 275.398 67.25 275.752 67.0625C276.106 66.8958 276.367 66.625 276.534 66.25C276.721 65.875 276.815 65.3854 276.815 64.7812C276.815 64.1979 276.69 63.7396 276.44 63.4062C276.211 63.0938 275.836 62.8542 275.315 62.6875C274.815 62.5208 274.138 62.4062 273.284 62.3438L274.127 57.8438ZM315.315 20.625L305.534 58H295.877L310.096 12.5H316.127L315.315 20.625ZM323.034 58L313.19 20.625L312.284 12.5H318.409L332.752 58H323.034ZM323.377 41.0312V48.625H302.846V41.0312H323.377ZM319.534 0.40625L324.502 0.75C324.502 2.29167 324.242 3.69792 323.721 4.96875C323.2 6.21875 322.461 7.21875 321.502 7.96875C320.565 8.71875 319.481 9.09375 318.252 9.09375C317.44 9.09375 316.731 8.95833 316.127 8.6875C315.544 8.41667 314.992 8.10417 314.471 7.75C313.971 7.39583 313.461 7.08333 312.94 6.8125C312.419 6.54167 311.825 6.40625 311.159 6.40625C310.575 6.40625 310.086 6.66667 309.69 7.1875C309.315 7.70833 309.127 8.44792 309.127 9.40625L304.159 9.0625C304.159 7.5625 304.419 6.1875 304.94 4.9375C305.481 3.66667 306.221 2.64583 307.159 1.875C308.096 1.08333 309.159 0.6875 310.346 0.6875C311.013 0.6875 311.638 0.833333 312.221 1.125C312.804 1.39583 313.377 1.70833 313.94 2.0625C314.502 2.41667 315.075 2.72917 315.659 3C316.242 3.27083 316.856 3.40625 317.502 3.40625C318.065 3.40625 318.544 3.14583 318.94 2.625C319.336 2.10417 319.534 1.36458 319.534 0.40625ZM368.377 31.7188V39.3125C368.377 42.5208 367.981 45.3333 367.19 47.75C366.419 50.1458 365.315 52.1562 363.877 53.7812C362.461 55.3854 360.742 56.5938 358.721 57.4062C356.721 58.2188 354.502 58.625 352.065 58.625C349.627 58.625 347.398 58.2188 345.377 57.4062C343.377 56.5938 341.648 55.3854 340.19 53.7812C338.752 52.1562 337.638 50.1458 336.846 47.75C336.054 45.3333 335.659 42.5208 335.659 39.3125V31.7188C335.659 28.4271 336.044 25.5521 336.815 23.0938C337.586 20.6146 338.7 18.5521 340.159 16.9062C341.617 15.2396 343.346 13.9896 345.346 13.1562C347.346 12.3021 349.565 11.875 352.002 11.875C354.44 11.875 356.659 12.3021 358.659 13.1562C360.659 13.9896 362.388 15.2396 363.846 16.9062C365.304 18.5521 366.419 20.6146 367.19 23.0938C367.981 25.5521 368.377 28.4271 368.377 31.7188ZM359.284 39.3125V31.6562C359.284 29.4896 359.127 27.6458 358.815 26.125C358.502 24.5833 358.034 23.3229 357.409 22.3438C356.784 21.3646 356.023 20.6458 355.127 20.1875C354.231 19.7292 353.19 19.5 352.002 19.5C350.815 19.5 349.763 19.7292 348.846 20.1875C347.95 20.6458 347.19 21.3646 346.565 22.3438C345.961 23.3229 345.502 24.5833 345.19 26.125C344.898 27.6458 344.752 29.4896 344.752 31.6562V39.3125C344.752 41.3958 344.909 43.1771 345.221 44.6562C345.534 46.1354 346.002 47.3438 346.627 48.2812C347.252 49.2188 348.013 49.9167 348.909 50.375C349.825 50.8125 350.877 51.0312 352.065 51.0312C353.231 51.0312 354.263 50.8125 355.159 50.375C356.075 49.9167 356.836 49.2188 357.44 48.2812C358.044 47.3438 358.502 46.1354 358.815 44.6562C359.127 43.1771 359.284 41.3958 359.284 39.3125Z" fill="white"/>
</svg>
