<svg xmlns="http://www.w3.org/2000/svg" xmlns:xlink="http://www.w3.org/1999/xlink" width="160" zoomAndPan="magnify" viewBox="0 0 120 30.000001" height="40" preserveAspectRatio="xMidYMid meet" version="1.0"><defs><g/></defs><g fill="#262642" fill-opacity="1"><g transform="translate(1.935482, 21.949981)"><g><path d="M 0.53125 -6.265625 C 0.53125 -7.554688 0.796875 -8.6875 1.328125 -9.65625 C 1.867188 -10.625 2.617188 -11.367188 3.578125 -11.890625 C 4.535156 -12.410156 5.632812 -12.671875 6.875 -12.671875 C 8.457031 -12.671875 9.789062 -12.234375 10.875 -11.359375 C 11.96875 -10.492188 12.671875 -9.28125 12.984375 -7.71875 L 8.34375 -7.71875 C 8.070312 -8.53125 7.550781 -8.9375 6.78125 -8.9375 C 6.226562 -8.9375 5.789062 -8.707031 5.46875 -8.25 C 5.15625 -7.800781 5 -7.140625 5 -6.265625 C 5 -5.390625 5.15625 -4.71875 5.46875 -4.25 C 5.789062 -3.789062 6.226562 -3.5625 6.78125 -3.5625 C 7.5625 -3.5625 8.082031 -3.972656 8.34375 -4.796875 L 12.984375 -4.796875 C 12.671875 -3.242188 11.96875 -2.03125 10.875 -1.15625 C 9.789062 -0.28125 8.457031 0.15625 6.875 0.15625 C 5.632812 0.15625 4.535156 -0.101562 3.578125 -0.625 C 2.617188 -1.144531 1.867188 -1.882812 1.328125 -2.84375 C 0.796875 -3.8125 0.53125 -4.953125 0.53125 -6.265625 Z M 0.53125 -6.265625 "/></g></g></g><g fill="#262642" fill-opacity="1"><g transform="translate(15.472542, 21.949981)"><g><path d="M 7.0625 0.15625 C 5.8125 0.15625 4.691406 -0.101562 3.703125 -0.625 C 2.722656 -1.144531 1.945312 -1.882812 1.375 -2.84375 C 0.8125 -3.8125 0.53125 -4.953125 0.53125 -6.265625 C 0.53125 -7.554688 0.816406 -8.6875 1.390625 -9.65625 C 1.960938 -10.625 2.742188 -11.367188 3.734375 -11.890625 C 4.722656 -12.410156 5.84375 -12.671875 7.09375 -12.671875 C 8.34375 -12.671875 9.457031 -12.410156 10.4375 -11.890625 C 11.425781 -11.367188 12.207031 -10.625 12.78125 -9.65625 C 13.351562 -8.6875 13.640625 -7.554688 13.640625 -6.265625 C 13.640625 -4.972656 13.351562 -3.835938 12.78125 -2.859375 C 12.207031 -1.890625 11.421875 -1.144531 10.421875 -0.625 C 9.429688 -0.101562 8.3125 0.15625 7.0625 0.15625 Z M 7.0625 -3.640625 C 7.675781 -3.640625 8.1875 -3.863281 8.59375 -4.3125 C 9 -4.769531 9.203125 -5.421875 9.203125 -6.265625 C 9.203125 -7.109375 9 -7.753906 8.59375 -8.203125 C 8.1875 -8.648438 7.6875 -8.875 7.09375 -8.875 C 6.5 -8.875 6 -8.648438 5.59375 -8.203125 C 5.195312 -7.753906 5 -7.109375 5 -6.265625 C 5 -5.398438 5.191406 -4.742188 5.578125 -4.296875 C 5.960938 -3.859375 6.457031 -3.640625 7.0625 -3.640625 Z M 7.0625 -3.640625 "/></g></g></g><g fill="#262642" fill-opacity="1"><g transform="translate(29.656348, 21.949981)"><g><path d="M 9.4375 -12.625 C 10.875 -12.625 12.015625 -12.144531 12.859375 -11.1875 C 13.710938 -10.226562 14.140625 -8.929688 14.140625 -7.296875 L 14.140625 0 L 9.765625 0 L 9.765625 -6.71875 C 9.765625 -7.425781 9.578125 -7.984375 9.203125 -8.390625 C 8.835938 -8.804688 8.34375 -9.015625 7.71875 -9.015625 C 7.0625 -9.015625 6.546875 -8.804688 6.171875 -8.390625 C 5.804688 -7.984375 5.625 -7.425781 5.625 -6.71875 L 5.625 0 L 1.25 0 L 1.25 -12.515625 L 5.625 -12.515625 L 5.625 -10.71875 C 6.007812 -11.289062 6.523438 -11.75 7.171875 -12.09375 C 7.828125 -12.445312 8.582031 -12.625 9.4375 -12.625 Z M 9.4375 -12.625 "/></g></g></g><g fill="#262642" fill-opacity="1"><g transform="translate(44.955235, 21.949981)"><g><path d="M 5.859375 -12.671875 C 6.710938 -12.671875 7.453125 -12.5 8.078125 -12.15625 C 8.710938 -11.8125 9.203125 -11.347656 9.546875 -10.765625 L 9.546875 -12.515625 L 13.90625 -12.515625 L 13.90625 -0.140625 C 13.90625 1.035156 13.679688 2.09375 13.234375 3.03125 C 12.796875 3.976562 12.101562 4.734375 11.15625 5.296875 C 10.21875 5.867188 9.023438 6.15625 7.578125 6.15625 C 5.648438 6.15625 4.101562 5.703125 2.9375 4.796875 C 1.78125 3.890625 1.117188 2.65625 0.953125 1.09375 L 5.265625 1.09375 C 5.347656 1.488281 5.566406 1.796875 5.921875 2.015625 C 6.285156 2.242188 6.75 2.359375 7.3125 2.359375 C 8.800781 2.359375 9.546875 1.523438 9.546875 -0.140625 L 9.546875 -1.734375 C 9.203125 -1.160156 8.710938 -0.703125 8.078125 -0.359375 C 7.453125 -0.015625 6.710938 0.15625 5.859375 0.15625 C 4.867188 0.15625 3.96875 -0.101562 3.15625 -0.625 C 2.34375 -1.144531 1.703125 -1.890625 1.234375 -2.859375 C 0.765625 -3.835938 0.53125 -4.972656 0.53125 -6.265625 C 0.53125 -7.554688 0.765625 -8.6875 1.234375 -9.65625 C 1.703125 -10.625 2.34375 -11.367188 3.15625 -11.890625 C 3.96875 -12.410156 4.867188 -12.671875 5.859375 -12.671875 Z M 9.546875 -6.265625 C 9.546875 -7.066406 9.328125 -7.695312 8.890625 -8.15625 C 8.453125 -8.625 7.910156 -8.859375 7.265625 -8.859375 C 6.609375 -8.859375 6.066406 -8.628906 5.640625 -8.171875 C 5.210938 -7.710938 5 -7.078125 5 -6.265625 C 5 -5.460938 5.210938 -4.828125 5.640625 -4.359375 C 6.066406 -3.890625 6.609375 -3.65625 7.265625 -3.65625 C 7.910156 -3.65625 8.453125 -3.882812 8.890625 -4.34375 C 9.328125 -4.8125 9.546875 -5.453125 9.546875 -6.265625 Z M 9.546875 -6.265625 "/></g></g></g><g fill="#262642" fill-opacity="1"><g transform="translate(60.120314, 21.949981)"><g><path d="M 13.203125 -6.40625 C 13.203125 -6.0625 13.179688 -5.71875 13.140625 -5.375 L 4.859375 -5.375 C 4.898438 -4.6875 5.085938 -4.175781 5.421875 -3.84375 C 5.765625 -3.507812 6.195312 -3.34375 6.71875 -3.34375 C 7.4375 -3.34375 7.953125 -3.671875 8.265625 -4.328125 L 12.9375 -4.328125 C 12.738281 -3.460938 12.359375 -2.691406 11.796875 -2.015625 C 11.242188 -1.335938 10.539062 -0.804688 9.6875 -0.421875 C 8.84375 -0.0351562 7.910156 0.15625 6.890625 0.15625 C 5.660156 0.15625 4.5625 -0.101562 3.59375 -0.625 C 2.632812 -1.144531 1.882812 -1.882812 1.34375 -2.84375 C 0.800781 -3.8125 0.53125 -4.953125 0.53125 -6.265625 C 0.53125 -7.578125 0.796875 -8.710938 1.328125 -9.671875 C 1.867188 -10.628906 2.617188 -11.367188 3.578125 -11.890625 C 4.535156 -12.410156 5.640625 -12.671875 6.890625 -12.671875 C 8.117188 -12.671875 9.207031 -12.414062 10.15625 -11.90625 C 11.113281 -11.40625 11.859375 -10.679688 12.390625 -9.734375 C 12.929688 -8.785156 13.203125 -7.675781 13.203125 -6.40625 Z M 8.734375 -7.484375 C 8.734375 -8.023438 8.554688 -8.445312 8.203125 -8.75 C 7.847656 -9.050781 7.40625 -9.203125 6.875 -9.203125 C 6.332031 -9.203125 5.890625 -9.054688 5.546875 -8.765625 C 5.210938 -8.484375 4.992188 -8.054688 4.890625 -7.484375 Z M 8.734375 -7.484375 "/></g></g></g><g fill="#262642" fill-opacity="1"><g transform="translate(73.858091, 21.949981)"><g><path d="M 9.4375 -12.625 C 10.875 -12.625 12.015625 -12.144531 12.859375 -11.1875 C 13.710938 -10.226562 14.140625 -8.929688 14.140625 -7.296875 L 14.140625 0 L 9.765625 0 L 9.765625 -6.71875 C 9.765625 -7.425781 9.578125 -7.984375 9.203125 -8.390625 C 8.835938 -8.804688 8.34375 -9.015625 7.71875 -9.015625 C 7.0625 -9.015625 6.546875 -8.804688 6.171875 -8.390625 C 5.804688 -7.984375 5.625 -7.425781 5.625 -6.71875 L 5.625 0 L 1.25 0 L 1.25 -12.515625 L 5.625 -12.515625 L 5.625 -10.71875 C 6.007812 -11.289062 6.523438 -11.75 7.171875 -12.09375 C 7.828125 -12.445312 8.582031 -12.625 9.4375 -12.625 Z M 9.4375 -12.625 "/></g></g></g><g fill="#262642" fill-opacity="1"><g transform="translate(89.156978, 21.949981)"><g><path d="M 3.453125 -13.671875 C 2.679688 -13.671875 2.0625 -13.878906 1.59375 -14.296875 C 1.125 -14.722656 0.890625 -15.253906 0.890625 -15.890625 C 0.890625 -16.546875 1.125 -17.085938 1.59375 -17.515625 C 2.0625 -17.953125 2.679688 -18.171875 3.453125 -18.171875 C 4.210938 -18.171875 4.828125 -17.953125 5.296875 -17.515625 C 5.765625 -17.085938 6 -16.546875 6 -15.890625 C 6 -15.253906 5.765625 -14.722656 5.296875 -14.296875 C 4.828125 -13.878906 4.210938 -13.671875 3.453125 -13.671875 Z M 5.625 -12.515625 L 5.625 0 L 1.25 0 L 1.25 -12.515625 Z M 5.625 -12.515625 "/></g></g></g><g fill="#262642" fill-opacity="1"><g transform="translate(96.025867, 21.949981)"><g><path d="M 0.53125 -6.265625 C 0.53125 -7.554688 0.765625 -8.6875 1.234375 -9.65625 C 1.703125 -10.625 2.34375 -11.367188 3.15625 -11.890625 C 3.96875 -12.410156 4.867188 -12.671875 5.859375 -12.671875 C 6.722656 -12.671875 7.46875 -12.5 8.09375 -12.15625 C 8.71875 -11.8125 9.203125 -11.347656 9.546875 -10.765625 L 9.546875 -12.515625 L 13.90625 -12.515625 L 13.90625 0 L 9.546875 0 L 9.546875 -1.734375 C 9.203125 -1.160156 8.710938 -0.703125 8.078125 -0.359375 C 7.453125 -0.015625 6.710938 0.15625 5.859375 0.15625 C 4.867188 0.15625 3.96875 -0.101562 3.15625 -0.625 C 2.34375 -1.144531 1.703125 -1.890625 1.234375 -2.859375 C 0.765625 -3.835938 0.53125 -4.972656 0.53125 -6.265625 Z M 9.546875 -6.265625 C 9.546875 -7.066406 9.328125 -7.695312 8.890625 -8.15625 C 8.453125 -8.625 7.910156 -8.859375 7.265625 -8.859375 C 6.609375 -8.859375 6.066406 -8.628906 5.640625 -8.171875 C 5.210938 -7.710938 5 -7.078125 5 -6.265625 C 5 -5.460938 5.210938 -4.828125 5.640625 -4.359375 C 6.066406 -3.890625 6.609375 -3.65625 7.265625 -3.65625 C 7.910156 -3.65625 8.453125 -3.882812 8.890625 -4.34375 C 9.328125 -4.8125 9.546875 -5.453125 9.546875 -6.265625 Z M 9.546875 -6.265625 "/></g></g></g><g fill="#262642" fill-opacity="1"><g transform="translate(111.190945, 21.949981)"><g><path d="M 5.625 -16.5 L 5.625 0 L 1.25 0 L 1.25 -16.5 Z M 5.625 -16.5 "/></g></g></g></svg>